SplineFontDB: 3.0
FontName: Exo-Italic
FullName: Exo Italic
FamilyName: Exo
Weight: Book
Copyright: Copyright (c) 2011 Natanael Gama (exo@ndiscovered.com), with Reserved Font Name "Exo"
Version: 1.00
ItalicAngle: 0
UnderlinePosition: -100
UnderlineWidth: 50
Ascent: 800
Descent: 200
sfntRevision: 0x00010000
LayerCount: 2
Layer: 0 1 "Back"  1
Layer: 1 1 "Fore"  0
XUID: [1021 850 1732638948 15331974]
FSType: 0
OS2Version: 4
OS2_WeightWidthSlopeOnly: 0
OS2_UseTypoMetrics: 1
CreationTime: 1265665101
ModificationTime: 1328305025
PfmFamily: 17
TTFWeight: 400
TTFWidth: 5
LineGap: 0
VLineGap: 0
Panose: 2 0 5 3 0 0 0 0 0 0
OS2TypoAscent: 202
OS2TypoAOffset: 1
OS2TypoDescent: -127
OS2TypoDOffset: 1
OS2TypoLinegap: 0
OS2WinAscent: 0
OS2WinAOffset: 1
OS2WinDescent: 54
OS2WinDOffset: 1
HheadAscent: 0
HheadAOffset: 1
HheadDescent: -54
HheadDOffset: 1
OS2SubXSize: 650
OS2SubYSize: 700
OS2SubXOff: 0
OS2SubYOff: 140
OS2SupXSize: 650
OS2SupYSize: 700
OS2SupXOff: 0
OS2SupYOff: 480
OS2StrikeYSize: 49
OS2StrikeYPos: 258
OS2Vendor: 'PfEd'
OS2CodePages: 20000093.00000000
OS2UnicodeRanges: a00000ef.4000204b.00000000.00000000
Lookup: 4 0 0 "'ordn' Ordinals lookup 0"  {"'ordn' Ordinals lookup 0 subtable"  } ['ordn' ('DFLT' <'dflt' > 'grek' <'dflt' > 'latn' <'dflt' > ) ]
Lookup: 1 0 0 "'smcp' Lowercase to Small Capitals lookup 1"  {"'smcp' Lowercase to Small Capitals lookup 1 subtable"  } ['smcp' ('DFLT' <'dflt' > 'grek' <'dflt' > 'latn' <'FRA ' 'dflt' > ) ]
Lookup: 1 0 0 "'c2sc' Capitals to Small Capitals in Latin lookup 2"  {"'c2sc' Capitals to Small Capitals in Latin lookup 2 subtable"  } ['c2sc' ('latn' <'dflt' > ) ]
Lookup: 4 0 0 "'dlig' Discretionary Ligatures lookup 3"  {"'dlig' Discretionary Ligatures lookup 3 subtable"  } ['dlig' ('DFLT' <'dflt' > 'grek' <'dflt' > 'latn' <'dflt' > ) ]
Lookup: 4 0 1 "'liga' Standard Ligatures lookup 4"  {"'liga' Standard Ligatures lookup 4 subtable"  } ['liga' ('DFLT' <'dflt' > 'grek' <'dflt' > 'latn' <'FRA ' 'dflt' > ) ]

StartChar: .notdef
Encoding: 0 -1 0
AltUni2: 000000.ffffffff.0
Width: 758
Flags: W
LayerCount: 2
Fore
SplineSet
100 0 m 1,0,-1
 100 531 l 1,1,-1
 658 531 l 1,2,-1
 658 0 l 1,3,-1
 100 0 l 1,0,-1
114 22 m 1,4,-1
 370 266 l 1,5,-1
 114 507 l 1,6,-1
 114 22 l 1,4,-1
124 518 m 1,7,-1
 381 276 l 1,8,-1
 635 518 l 1,9,-1
 124 518 l 1,7,-1
127 13 m 1,10,-1
 634 13 l 1,11,-1
 381 256 l 1,12,-1
 127 13 l 1,10,-1
392 266 m 1,13,-1
 644 25 l 1,14,-1
 644 506 l 1,15,-1
 392 266 l 1,13,-1
EndSplineSet
EndChar

StartChar: exclam
Encoding: 33 33 4
Width: 265
GlyphClass: 2
Flags: W
LayerCount: 2
Fore
SplineSet
122 105 m 2,0,-1
 177 105 l 2,1,2
 197 105 197 105 197 87 c 0,3,4
 197 84 197 84 196 80 c 2,5,-1
 187 23 l 2,6,7
 184 0 184 0 161 0 c 2,8,-1
 106 0 l 2,9,10
 82 0 82 0 85 23 c 2,11,-1
 94 80 l 2,12,13
 97 105 97 105 122 105 c 2,0,-1
122 200 m 1,14,-1
 199 731 l 1,15,-1
 288 731 l 1,16,-1
 197 200 l 1,17,-1
 122 200 l 1,14,-1
EndSplineSet
Substitution2: "'smcp' Lowercase to Small Capitals lookup 1 subtable" exclam.smcp
EndChar

StartChar: quotedbl
Encoding: 34 34 5
Width: 381
GlyphClass: 2
Flags: W
LayerCount: 2
Fore
SplineSet
180 531 m 1,0,-1
 190 665 l 1,1,-1
 201 732 l 1,2,-1
 276 732 l 1,3,-1
 265 665 l 1,4,-1
 234 531 l 1,5,-1
 180 531 l 1,0,-1
315 531 m 1,6,-1
 325 665 l 1,7,-1
 336 732 l 1,8,-1
 411 732 l 1,9,-1
 400 665 l 1,10,-1
 369 531 l 1,11,-1
 315 531 l 1,6,-1
EndSplineSet
Substitution2: "'smcp' Lowercase to Small Capitals lookup 1 subtable" quotedbl.smcp
EndChar

StartChar: numbersign
Encoding: 35 35 6
Width: 687
GlyphClass: 2
Flags: W
LayerCount: 2
Fore
SplineSet
56 232 m 1,0,-1
 72 284 l 1,1,-1
 231 284 l 1,2,-1
 283 449 l 1,3,-1
 124 449 l 1,4,-1
 142 501 l 1,5,-1
 300 501 l 1,6,-1
 373 732 l 1,7,-1
 425 732 l 1,8,-1
 352 501 l 1,9,-1
 518 501 l 1,10,-1
 590 732 l 1,11,-1
 642 732 l 1,12,-1
 570 501 l 1,13,-1
 747 501 l 1,14,-1
 729 449 l 1,15,-1
 552 449 l 1,16,-1
 500 283 l 1,17,-1
 677 283 l 1,18,-1
 661 231 l 1,19,-1
 484 231 l 1,20,-1
 410 0 l 1,21,-1
 358 0 l 1,22,-1
 432 231 l 1,23,-1
 266 232 l 1,24,-1
 192 0 l 1,25,-1
 140 0 l 1,26,-1
 214 232 l 1,27,-1
 56 232 l 1,0,-1
283 284 m 1,28,-1
 448 283 l 1,29,-1
 500 449 l 1,30,-1
 335 449 l 1,31,-1
 283 284 l 1,28,-1
EndSplineSet
Substitution2: "'smcp' Lowercase to Small Capitals lookup 1 subtable" numbersign.smcp
EndChar

StartChar: dollar
Encoding: 36 36 7
Width: 574
GlyphClass: 2
Flags: W
LayerCount: 2
Fore
SplineSet
90 70 m 1,0,-1
 328 64 l 2,1,2
 366 64 366 64 399 77 c 0,3,4
 462 102 462 102 470 156 c 2,5,-1
 481 224 l 2,6,7
 487 265 487 265 487 279 c 0,8,9
 487 322 487 322 413 322 c 2,10,-1
 283 322 l 2,11,12
 189 322 189 322 155 373 c 0,13,14
 130 411 130 411 130 459 c 0,15,16
 130 476 130 476 133 494 c 2,17,-1
 143 560 l 1,18,19
 160 659 160 659 215 697.5 c 128,-1,20
 270 736 270 736 360 738 c 1,21,-1
 374 824 l 1,22,-1
 432 824 l 1,23,-1
 418 735 l 1,24,25
 511 728 511 728 605 714 c 1,26,-1
 596 656 l 1,27,-1
 358 665 l 2,28,29
 353 665 353 665 348 665 c 0,30,31
 234 665 234 665 217 560 c 1,32,-1
 207 494 l 2,33,34
 205 478 205 478 205 456 c 128,-1,35
 205 434 205 434 218 418 c 0,36,37
 236 396 236 396 295 396 c 2,38,-1
 425 396 l 2,39,40
 474 396 474 396 505 380.5 c 128,-1,41
 536 365 536 365 546 340 c 1,42,43
 560 309 560 309 560 278 c 128,-1,44
 560 247 560 247 555 224 c 1,45,-1
 544 156 l 2,46,47
 534 91 534 91 494 51.5 c 128,-1,48
 454 12 454 12 411 1.5 c 128,-1,49
 368 -9 368 -9 340 -9 c 128,-1,50
 312 -9 312 -9 300 -8 c 1,51,-1
 287 -90 l 1,52,-1
 229 -90 l 1,53,-1
 243 -3 l 1,54,55
 216 0 216 0 80 17 c 1,56,-1
 90 70 l 1,0,-1
EndSplineSet
Substitution2: "'smcp' Lowercase to Small Capitals lookup 1 subtable" dollar.smcp
EndChar

StartChar: percent
Encoding: 37 37 8
Width: 962
GlyphClass: 2
Flags: W
LayerCount: 2
Fore
SplineSet
285 732 m 2,0,-1
 386 732 l 2,1,2
 452 732 452 732 478 703 c 0,3,4
 496 682 496 682 496 642 c 0,5,6
 496 626 496 626 493 607 c 2,7,-1
 472 474 l 2,8,9
 460 402 460 402 430 375.5 c 128,-1,10
 400 349 400 349 324 349 c 2,11,-1
 223 349 l 2,12,13
 165 349 165 349 139 377.5 c 128,-1,14
 113 406 113 406 113 447 c 0,15,16
 113 460 113 460 115 474 c 2,17,-1
 136 607 l 2,18,19
 147 675 147 675 176.5 703.5 c 128,-1,20
 206 732 206 732 285 732 c 2,0,-1
180 474 m 2,21,22
 178 462 178 462 178 448 c 128,-1,23
 178 434 178 434 187.5 424 c 128,-1,24
 197 414 197 414 233 414 c 2,25,-1
 334 414 l 2,26,27
 374 414 374 414 387.5 425.5 c 128,-1,28
 401 437 401 437 407 474 c 2,29,-1
 428 607 l 2,30,31
 430 623 430 623 430 636.5 c 128,-1,32
 430 650 430 650 423.5 658.5 c 128,-1,33
 417 667 417 667 376 667 c 2,34,-1
 275 667 l 2,35,36
 233 667 233 667 220 655 c 128,-1,37
 207 643 207 643 201 607 c 2,38,-1
 180 474 l 2,21,22
225 0 m 1,39,-1
 779 732 l 1,40,-1
 850 732 l 1,41,-1
 296 0 l 1,42,-1
 225 0 l 1,39,-1
753 383 m 2,43,-1
 854 383 l 2,44,45
 920 383 920 383 946 354 c 0,46,47
 964 333 964 333 964 293 c 0,48,49
 964 277 964 277 961 258 c 2,50,-1
 940 125 l 2,51,52
 928 54 928 54 897.5 27 c 128,-1,53
 867 0 867 0 791 0 c 2,54,-1
 690 0 l 2,55,56
 632 0 632 0 606.5 28 c 128,-1,57
 581 56 581 56 581 98 c 0,58,59
 581 111 581 111 583 125 c 2,60,-1
 604 258 l 2,61,62
 615 326 615 326 644.5 354.5 c 128,-1,63
 674 383 674 383 753 383 c 2,43,-1
648 125 m 2,64,65
 646 112 646 112 646 98.5 c 128,-1,66
 646 85 646 85 655 75 c 128,-1,67
 664 65 664 65 700 65 c 2,68,-1
 801 65 l 2,69,70
 841 65 841 65 855 76.5 c 128,-1,71
 869 88 869 88 875 125 c 2,72,-1
 896 258 l 2,73,74
 898 273 898 273 898 286.5 c 128,-1,75
 898 300 898 300 891 309 c 128,-1,76
 884 318 884 318 843 318 c 2,77,-1
 742 318 l 2,78,79
 701 318 701 318 688 306 c 128,-1,80
 675 294 675 294 669 258 c 2,81,-1
 648 125 l 2,64,65
EndSplineSet
Substitution2: "'smcp' Lowercase to Small Capitals lookup 1 subtable" percent.smcp
EndChar

StartChar: ampersand
Encoding: 38 38 9
Width: 626
GlyphClass: 2
Flags: W
LayerCount: 2
Fore
SplineSet
63 181 m 0,0,1
 63 284 63 284 170 366 c 2,2,-1
 265 439 l 1,3,-1
 216 524 l 2,4,5
 192 566 192 566 192 601 c 0,6,7
 192 613 192 613 196 625 c 0,8,9
 207 669 207 669 242 696 c 128,-1,10
 277 723 277 723 318.5 727 c 128,-1,11
 360 731 360 731 399 731 c 0,12,13
 493 731 493 731 583 710 c 1,14,-1
 575 662 l 1,15,-1
 372 662 l 2,16,17
 261 662 261 662 261 603 c 0,18,19
 261 577 261 577 282 540 c 2,20,-1
 469 216 l 1,21,-1
 602 336 l 1,22,-1
 626 316 l 1,23,-1
 555 198 l 1,24,-1
 507 152 l 1,25,-1
 597 0 l 1,26,-1
 521 0 l 1,27,-1
 456 111 l 1,28,-1
 382 44 l 2,29,30
 327 -5 327 -5 252 -5 c 1,31,-1
 181 8 l 1,32,33
 127 28 127 28 95 78.5 c 128,-1,34
 63 129 63 129 63 181 c 0,0,1
254 64 m 0,35,36
 299 64 299 64 336 97 c 2,37,-1
 420 172 l 1,38,-1
 300 374 l 1,39,-1
 214 308 l 1,40,41
 132 247 132 247 132 178 c 0,42,43
 132 144 132 144 155 116 c 1,44,45
 191 64 191 64 254 64 c 0,35,36
EndSplineSet
AlternateSubs2: "'salt' Stylistic Alternatives in Latin lookup 16 subtable" ampersand.salt
Substitution2: "'smcp' Lowercase to Small Capitals lookup 1 subtable" ampersand.smcp
EndChar

StartChar: quotesingle
Encoding: 39 39 10
Width: 186
GlyphClass: 2
Flags: W
LayerCount: 2
Fore
SplineSet
150 531 m 1,0,-1
 160 665 l 1,1,-1
 171 732 l 1,2,-1
 246 732 l 1,3,-1
 235 665 l 1,4,-1
 204 531 l 1,5,-1
 150 531 l 1,0,-1
EndSplineSet
Substitution2: "'smcp' Lowercase to Small Capitals lookup 1 subtable" quotesingle.smcp
EndChar

StartChar: parenleft
Encoding: 40 40 11
Width: 335
GlyphClass: 2
Flags: W
LayerCount: 2
Fore
SplineSet
236 -113 m 0,0,1
 253 -160 253 -160 268 -185 c 2,2,-1
 282 -210 l 1,3,-1
 201 -210 l 1,4,5
 164 -148 164 -148 134 -14 c 0,6,7
 114 75 114 75 114 170 c 0,8,9
 114 329 114 329 172 498 c 0,10,11
 215 626 215 626 295 759 c 0,12,13
 325 809 325 809 344 834 c 2,14,-1
 364 860 l 1,15,-1
 452 860 l 1,16,17
 427 832 427 832 386 767.5 c 128,-1,18
 345 703 345 703 314 644.5 c 128,-1,19
 283 586 283 586 250 498 c 0,20,21
 186 328 186 328 186 174.5 c 128,-1,22
 186 21 186 21 236 -113 c 0,0,1
EndSplineSet
Substitution2: "'case' Case-Sensitive Forms lookup 18 subtable" parenleft.alt
Substitution2: "'c2sc' Capitals to Small Capitals in Latin lookup 2 subtable" parenleft.smcp
Substitution2: "'smcp' Lowercase to Small Capitals lookup 1 subtable" parenleft.smcp
EndChar

StartChar: parenright
Encoding: 41 41 12
Width: 337
GlyphClass: 2
Flags: W
LayerCount: 2
Fore
SplineSet
204 763 m 0,0,1
 186 810 186 810 172 835 c 2,2,-1
 157 860 l 1,3,-1
 238 860 l 1,4,5
 275 798 275 798 305 664 c 0,6,7
 325 575 325 575 325 480 c 0,8,9
 325 321 325 321 268 152 c 0,10,11
 224 24 224 24 144 -109 c 0,12,13
 114 -159 114 -159 94 -184 c 1,14,-1
 75 -210 l 1,15,-1
 -13 -210 l 1,16,17
 12 -182 12 -182 53 -117.5 c 128,-1,18
 94 -53 94 -53 125 5.5 c 128,-1,19
 156 64 156 64 189 152 c 0,20,21
 253 322 253 322 253 475.5 c 128,-1,22
 253 629 253 629 204 763 c 0,0,1
EndSplineSet
Substitution2: "'case' Case-Sensitive Forms lookup 18 subtable" parenright.alt
Substitution2: "'c2sc' Capitals to Small Capitals in Latin lookup 2 subtable" parenright.smcp
Substitution2: "'smcp' Lowercase to Small Capitals lookup 1 subtable" parenright.smcp
EndChar

StartChar: asterisk
Encoding: 42 42 13
Width: 440
GlyphClass: 2
Flags: W
LayerCount: 2
Fore
SplineSet
139 566 m 1,0,-1
 145 606 l 1,1,-1
 289 635 l 1,2,-1
 282 561 l 1,3,-1
 139 566 l 1,0,-1
183 414 m 1,4,-1
 228 549 l 1,5,-1
 298 532 l 1,6,-1
 218 402 l 1,7,-1
 183 414 l 1,4,-1
283 476 m 1,8,-1
 334 538 l 1,9,-1
 429 447 l 1,10,-1
 403 415 l 1,11,-1
 283 476 l 1,8,-1
289 717 m 1,12,-1
 330 733 l 1,13,-1
 387 615 l 1,14,-1
 314 584 l 1,15,-1
 289 717 l 1,12,-1
341 571 m 1,16,-1
 473 647 l 1,17,-1
 486 612 l 1,18,-1
 380 515 l 1,19,-1
 341 571 l 1,16,-1
EndSplineSet
Substitution2: "'smcp' Lowercase to Small Capitals lookup 1 subtable" asterisk.smcp
EndChar

StartChar: plus
Encoding: 43 43 14
Width: 516
GlyphClass: 2
Flags: W
LayerCount: 2
Fore
SplineSet
100 319 m 1,0,-1
 112 393 l 1,1,-1
 282 393 l 1,2,-1
 309 564 l 1,3,-1
 383 564 l 1,4,-1
 356 393 l 1,5,-1
 528 393 l 1,6,-1
 516 319 l 1,7,-1
 344 319 l 1,8,-1
 317 148 l 1,9,-1
 243 148 l 1,10,-1
 270 319 l 1,11,-1
 100 319 l 1,0,-1
EndSplineSet
EndChar

StartChar: comma
Encoding: 44 44 15
Width: 268
GlyphClass: 2
Flags: W
LayerCount: 2
Fore
SplineSet
83 -56 m 0,0,1
 111 -56 111 -56 117 -25 c 1,2,-1
 121 0 l 1,3,-1
 110 0 l 2,4,5
 88 0 88 0 88 19 c 0,6,7
 88 22 88 22 89 25 c 2,8,-1
 97 79 l 2,9,10
 102 106 102 106 127 106 c 2,11,-1
 178 106 l 2,12,13
 198 106 198 106 198 86 c 0,14,15
 198 83 198 83 197 79 c 2,16,-1
 183 -11 l 2,17,18
 179 -38 179 -38 166 -56 c 0,19,20
 142 -90 142 -90 93 -90 c 0,21,22
 89 -90 89 -90 76 -88 c 1,23,-1
 81 -56 l 2,24,25
 82 -56 82 -56 83 -56 c 0,0,1
EndSplineSet
EndChar

StartChar: hyphen
Encoding: 45 45 16
Width: 355
GlyphClass: 2
Flags: W
LayerCount: 2
Fore
SplineSet
60 253 m 1,0,-1
 72 327 l 1,1,-1
 386 327 l 1,2,-1
 374 253 l 1,3,-1
 60 253 l 1,0,-1
EndSplineSet
Substitution2: "'case' Case-Sensitive Forms lookup 18 subtable" hyphen.alt
Substitution2: "'c2sc' Capitals to Small Capitals in Latin lookup 2 subtable" hyphen.smcp
Substitution2: "'smcp' Lowercase to Small Capitals lookup 1 subtable" hyphen.smcp
EndChar

StartChar: period
Encoding: 46 46 17
Width: 271
GlyphClass: 2
Flags: W
LayerCount: 2
Fore
SplineSet
125 105 m 2,0,-1
 178 105 l 2,1,2
 200 105 200 105 200 87 c 0,3,4
 200 84 200 84 199 80 c 2,5,-1
 190 23 l 2,6,7
 186 0 186 0 162 0 c 2,8,-1
 109 0 l 2,9,10
 85 0 85 0 88 23 c 2,11,-1
 97 80 l 2,12,13
 100 105 100 105 125 105 c 2,0,-1
EndSplineSet
EndChar

StartChar: slash
Encoding: 47 47 18
Width: 400
GlyphClass: 2
Flags: W
LayerCount: 2
Fore
SplineSet
8 -72 m 1,0,-1
 422 770 l 1,1,-1
 501 770 l 1,2,-1
 87 -72 l 1,3,-1
 8 -72 l 1,0,-1
EndSplineSet
Substitution2: "'numr' Numerators in Latin lookup 13 subtable" fraction
Substitution2: "'frac' Diagonal Fractions lookup 6 subtable" fraction
EndChar

StartChar: zero
Encoding: 48 48 19
Width: 642
GlyphClass: 2
Flags: W
LayerCount: 2
Fore
SplineSet
357 732 m 2,0,-1
 521 732 l 2,1,2
 605 732 605 732 640 684 c 0,3,4
 666 648 666 648 666 601 c 0,5,6
 666 586 666 586 663 570 c 2,7,-1
 598 162 l 2,8,9
 584 75 584 75 536.5 37.5 c 128,-1,10
 489 0 489 0 405 0 c 2,11,-1
 241 0 l 2,12,13
 166 0 166 0 124 39 c 0,14,15
 92 69 92 69 92 125 c 0,16,17
 92 142 92 142 95 162 c 2,18,-1
 160 570 l 2,19,20
 185 732 185 732 357 732 c 2,0,-1
169 162 m 2,21,22
 166 145 166 145 166 132.5 c 128,-1,23
 166 120 166 120 169 106 c 128,-1,24
 172 92 172 92 187 84.5 c 128,-1,25
 202 77 202 77 213.5 75.5 c 128,-1,26
 225 74 225 74 238 74 c 2,27,-1
 417 74 l 2,28,29
 509 74 509 74 524 162 c 2,30,-1
 589 570 l 2,31,32
 591 583 591 583 591 602 c 128,-1,33
 591 621 591 621 577 639.5 c 128,-1,34
 563 658 563 658 510 658 c 2,35,-1
 346 658 l 2,36,37
 247 658 247 658 234 570 c 1,38,-1
 169 162 l 2,21,22
EndSplineSet
Substitution2: "'dnom' Denominators in Latin lookup 19 subtable" zero.denominator
Substitution2: "'sups' Superscript lookup 17 subtable" zerosuperior
Substitution2: "'onum' Oldstyle Figures in Latin lookup 15 subtable" zero.oldstyle
Substitution2: "'tnum' Tabular Numbers in Latin lookup 14 subtable" zero.tnum
Substitution2: "'numr' Numerators in Latin lookup 13 subtable" zero.numerator
Substitution2: "'zero' Slashed Zero lookup 12 subtable" uni0338
Substitution2: "'sinf' Scientific Inferiors lookup 11 subtable" zeroinferior
Substitution2: "'frac' Diagonal Fractions lookup 5 subtable" zero.numerator
Substitution2: "'smcp' Lowercase to Small Capitals lookup 1 subtable" zero.smcp
EndChar

StartChar: one
Encoding: 49 49 20
Width: 361
GlyphClass: 2
Flags: W
LayerCount: 2
Fore
SplineSet
134 594 m 1,0,-1
 142 647 l 1,1,2
 186 647 186 647 231.5 668.5 c 128,-1,3
 277 690 277 690 300 711 c 2,4,-1
 324 732 l 1,5,-1
 396 732 l 1,6,-1
 282 0 l 1,7,-1
 208 0 l 1,8,-1
 310 637 l 1,9,10
 289 621 289 621 243.5 607.5 c 128,-1,11
 198 594 198 594 134 594 c 1,0,-1
EndSplineSet
Substitution2: "'dnom' Denominators in Latin lookup 19 subtable" one.denominator
Substitution2: "'sups' Superscript lookup 17 subtable" onesuperior
Substitution2: "'onum' Oldstyle Figures in Latin lookup 15 subtable" one.oldstyle
Substitution2: "'tnum' Tabular Numbers in Latin lookup 14 subtable" one.tnum
Substitution2: "'numr' Numerators in Latin lookup 13 subtable" one.numerator
Substitution2: "'sinf' Scientific Inferiors lookup 11 subtable" oneinferior
Substitution2: "'frac' Diagonal Fractions lookup 5 subtable" one.numerator
Substitution2: "'smcp' Lowercase to Small Capitals lookup 1 subtable" one.smcp
EndChar

StartChar: two
Encoding: 50 50 21
Width: 595
GlyphClass: 2
Flags: W
LayerCount: 2
Fore
SplineSet
560 567 m 0,0,1
 560 667 560 667 448 667 c 2,2,-1
 145 667 l 1,3,-1
 154 722 l 1,4,5
 314 742 314 742 462 742 c 0,6,7
 557 742 557 742 598 681 c 0,8,9
 632 630 632 630 632 560 c 0,10,11
 632 489 632 489 591.5 422.5 c 128,-1,12
 551 356 551 356 503.5 306.5 c 128,-1,13
 456 257 456 257 393 206 c 0,14,15
 302 131 302 131 214 74 c 1,16,-1
 554 74 l 1,17,-1
 542 0 l 1,18,-1
 47 0 l 1,19,-1
 58 68 l 1,20,21
 212 163 212 163 346 268 c 0,22,23
 434 336 434 336 491 406 c 0,24,25
 560 490 560 490 560 567 c 0,0,1
EndSplineSet
Substitution2: "'dnom' Denominators in Latin lookup 19 subtable" two.denominator
Substitution2: "'sups' Superscript lookup 17 subtable" twosuperior
Substitution2: "'onum' Oldstyle Figures in Latin lookup 15 subtable" two.oldstyle
Substitution2: "'tnum' Tabular Numbers in Latin lookup 14 subtable" two.tnum
Substitution2: "'numr' Numerators in Latin lookup 13 subtable" two.numerator
Substitution2: "'sinf' Scientific Inferiors lookup 11 subtable" twoinferior
Substitution2: "'frac' Diagonal Fractions lookup 5 subtable" two.numerator
Substitution2: "'smcp' Lowercase to Small Capitals lookup 1 subtable" two.smcp
EndChar

StartChar: three
Encoding: 51 51 22
Width: 594
GlyphClass: 2
Flags: W
LayerCount: 2
Fore
SplineSet
355 68 m 2,0,1
 397 68 397 68 433.5 91.5 c 128,-1,2
 470 115 470 115 478 161 c 2,3,-1
 488 220 l 1,4,5
 492 234 492 234 492 243 c 128,-1,6
 492 252 492 252 490 262.5 c 128,-1,7
 488 273 488 273 487.5 284 c 128,-1,8
 487 295 487 295 478 303 c 128,-1,9
 469 311 469 311 463.5 315 c 128,-1,10
 458 319 458 319 445.5 321.5 c 128,-1,11
 433 324 433 324 424.5 324.5 c 128,-1,12
 416 325 416 325 402 326 c 2,13,-1
 160 333 l 1,14,-1
 170 391 l 1,15,-1
 414 401 l 2,16,17
 519 406 519 406 534 500 c 2,18,-1
 545 569 l 2,19,20
 547 580 547 580 547 589 c 0,21,22
 547 660 547 660 455 660 c 2,23,-1
 144 660 l 1,24,-1
 151 706 l 1,25,26
 235 735 235 735 395 735 c 0,27,28
 433 735 433 735 474 734 c 0,29,30
 547 732 547 732 588 686 c 0,31,32
 621 650 621 650 621 598 c 0,33,34
 621 584 621 584 619 569 c 2,35,-1
 608 500 l 2,36,37
 589 383 589 383 520 364 c 1,38,39
 568 337 568 337 568 264 c 0,40,41
 568 244 568 244 564 220 c 2,42,-1
 554 161 l 1,43,44
 528 -7 528 -7 350 -7 c 0,45,46
 312 -7 312 -7 289.5 -7 c 128,-1,47
 267 -7 267 -7 240.5 -6.5 c 128,-1,48
 214 -6 214 -6 204 -5.5 c 128,-1,49
 194 -5 194 -5 172 -3.5 c 128,-1,50
 150 -2 150 -2 138 0 c 128,-1,51
 126 2 126 2 108 5 c 0,52,53
 80 10 80 10 49 21 c 1,54,-1
 57 68 l 1,55,-1
 355 68 l 2,0,1
EndSplineSet
Substitution2: "'dnom' Denominators in Latin lookup 19 subtable" three.denominator
Substitution2: "'sups' Superscript lookup 17 subtable" threesuperior
Substitution2: "'onum' Oldstyle Figures in Latin lookup 15 subtable" three.oldstyle
Substitution2: "'tnum' Tabular Numbers in Latin lookup 14 subtable" three.tnum
Substitution2: "'numr' Numerators in Latin lookup 13 subtable" three.numerator
Substitution2: "'sinf' Scientific Inferiors lookup 11 subtable" threeinferior
Substitution2: "'frac' Diagonal Fractions lookup 5 subtable" three.numerator
Substitution2: "'smcp' Lowercase to Small Capitals lookup 1 subtable" three.smcp
EndChar

StartChar: four
Encoding: 52 52 23
Width: 603
GlyphClass: 2
Flags: W
LayerCount: 2
Fore
SplineSet
55 224 m 1,0,-1
 456 732 l 1,1,-1
 549 732 l 1,2,-1
 181 265 l 1,3,-1
 457 265 l 1,4,-1
 490 472 l 1,5,-1
 542 547 l 1,6,-1
 579 547 l 1,7,-1
 534 265 l 1,8,-1
 624 265 l 1,9,-1
 615 206 l 1,10,-1
 522 187 l 1,11,-1
 493 2 l 1,12,-1
 416 2 l 1,13,-1
 445 187 l 1,14,-1
 83 187 l 1,15,-1
 55 224 l 1,0,-1
EndSplineSet
Substitution2: "'dnom' Denominators in Latin lookup 19 subtable" four.denominator
Substitution2: "'sups' Superscript lookup 17 subtable" foursuperior
Substitution2: "'onum' Oldstyle Figures in Latin lookup 15 subtable" four.oldstyle
Substitution2: "'tnum' Tabular Numbers in Latin lookup 14 subtable" four.tnum
Substitution2: "'numr' Numerators in Latin lookup 13 subtable" four.numerator
Substitution2: "'sinf' Scientific Inferiors lookup 11 subtable" fourinferior
Substitution2: "'frac' Diagonal Fractions lookup 5 subtable" four.numerator
Substitution2: "'smcp' Lowercase to Small Capitals lookup 1 subtable" four.smcp
EndChar

StartChar: five
Encoding: 53 53 24
Width: 603
GlyphClass: 2
Flags: W
LayerCount: 2
Fore
SplineSet
364 449 m 1,0,-1
 450 446 l 1,1,2
 519 446 519 446 558 398 c 0,3,4
 588 360 588 360 588 306 c 0,5,6
 588 291 588 291 586 275 c 2,7,-1
 569 165 l 2,8,9
 554 70 554 70 505.5 33 c 128,-1,10
 457 -4 457 -4 379 -5 c 0,11,12
 359 -5 359 -5 315 -5 c 0,13,14
 213 -5 213 -5 79 19 c 1,15,-1
 88 74 l 1,16,-1
 392 74 l 2,17,18
 439 74 439 74 464 102.5 c 128,-1,19
 489 131 489 131 495 167 c 2,20,-1
 512 273 l 2,21,22
 515 289 515 289 515 302 c 0,23,24
 515 372 515 372 439 372 c 2,25,-1
 288 372 l 2,26,27
 255 372 255 372 227 353 c 128,-1,28
 199 334 199 334 193 297 c 1,29,-1
 124 297 l 1,30,-1
 215 732 l 1,31,-1
 638 732 l 1,32,-1
 626 658 l 1,33,-1
 274 658 l 1,34,-1
 223 416 l 1,35,36
 253 449 253 449 364 449 c 1,0,-1
EndSplineSet
Substitution2: "'dnom' Denominators in Latin lookup 19 subtable" five.denominator
Substitution2: "'sups' Superscript lookup 17 subtable" fivesuperior
Substitution2: "'onum' Oldstyle Figures in Latin lookup 15 subtable" five.oldstyle
Substitution2: "'tnum' Tabular Numbers in Latin lookup 14 subtable" five.tnum
Substitution2: "'numr' Numerators in Latin lookup 13 subtable" five.numerator
Substitution2: "'sinf' Scientific Inferiors lookup 11 subtable" fiveinferior
Substitution2: "'frac' Diagonal Fractions lookup 5 subtable" five.numerator
Substitution2: "'smcp' Lowercase to Small Capitals lookup 1 subtable" five.smcp
EndChar

StartChar: six
Encoding: 54 54 25
Width: 621
GlyphClass: 2
Flags: W
LayerCount: 2
Fore
SplineSet
202 407 m 1,0,1
 383 428 383 428 446.5 428 c 128,-1,2
 510 428 510 428 536 419 c 0,3,4
 579 403 579 403 600 356 c 0,5,6
 607 338 607 338 607 326.5 c 128,-1,7
 607 315 607 315 605 279 c 1,8,-1
 585 148 l 1,9,10
 561 0 561 0 400 0 c 2,11,-1
 253 0 l 2,12,13
 109 0 109 0 109 220 c 0,14,15
 109 291 109 291 124 384 c 0,16,17
 153 567 153 567 217 652.5 c 128,-1,18
 281 738 281 738 352 738 c 0,19,20
 527 738 527 738 651 719 c 1,21,-1
 642 664 l 1,22,-1
 353 664 l 2,23,24
 323 664 323 664 296 636.5 c 128,-1,25
 269 609 269 609 250 566 c 0,26,27
 218 490 218 490 202 407 c 1,0,1
180 216 m 0,28,29
 180 71 180 71 261 71 c 2,30,-1
 410 71 l 2,31,32
 444 71 444 71 475 89 c 128,-1,33
 506 107 506 107 513 154 c 2,34,-1
 532 279 l 2,35,36
 534 292 534 292 534 310 c 128,-1,37
 534 328 534 328 519.5 341 c 128,-1,38
 505 354 505 354 456 354 c 2,39,-1
 193 354 l 1,40,41
 180 273 180 273 180 216 c 0,28,29
EndSplineSet
Substitution2: "'dnom' Denominators in Latin lookup 19 subtable" six.denominator
Substitution2: "'sups' Superscript lookup 17 subtable" sixsuperior
Substitution2: "'onum' Oldstyle Figures in Latin lookup 15 subtable" six.oldstyle
Substitution2: "'tnum' Tabular Numbers in Latin lookup 14 subtable" six.tnum
Substitution2: "'numr' Numerators in Latin lookup 13 subtable" six.numerator
Substitution2: "'sinf' Scientific Inferiors lookup 11 subtable" sixinferior
Substitution2: "'frac' Diagonal Fractions lookup 5 subtable" six.numerator
Substitution2: "'smcp' Lowercase to Small Capitals lookup 1 subtable" six.smcp
EndChar

StartChar: seven
Encoding: 55 55 26
Width: 546
GlyphClass: 2
Flags: W
LayerCount: 2
Fore
SplineSet
134 658 m 1,0,-1
 146 732 l 1,1,-1
 605 732 l 1,2,-1
 624 684 l 1,3,-1
 251 0 l 1,4,-1
 163 0 l 1,5,-1
 525 658 l 1,6,-1
 134 658 l 1,0,-1
EndSplineSet
Substitution2: "'dnom' Denominators in Latin lookup 19 subtable" seven.denominator
Substitution2: "'sups' Superscript lookup 17 subtable" sevensuperior
Substitution2: "'onum' Oldstyle Figures in Latin lookup 15 subtable" seven.oldstyle
Substitution2: "'tnum' Tabular Numbers in Latin lookup 14 subtable" seven.tnum
Substitution2: "'numr' Numerators in Latin lookup 13 subtable" seven.numerator
Substitution2: "'sinf' Scientific Inferiors lookup 11 subtable" seveninferior
Substitution2: "'frac' Diagonal Fractions lookup 5 subtable" seven.numerator
Substitution2: "'smcp' Lowercase to Small Capitals lookup 1 subtable" seven.smcp
EndChar

StartChar: eight
Encoding: 56 56 27
Width: 632
GlyphClass: 2
Flags: W
LayerCount: 2
Fore
SplineSet
186.5 398 m 128,-1,1
 168 422 168 422 164.5 441.5 c 128,-1,2
 161 461 161 461 161 474 c 128,-1,3
 161 487 161 487 163 499 c 2,4,-1
 174 564 l 1,5,6
 189 661 189 661 238 699 c 128,-1,7
 287 737 287 737 377 737 c 2,8,-1
 523 737 l 2,9,10
 598 737 598 737 634 692 c 0,11,12
 661 658 661 658 661 605 c 0,13,14
 661 586 661 586 658 564 c 2,15,-1
 647 499 l 1,16,17
 644 456 644 456 606 414 c 0,18,19
 583 388 583 388 549 381 c 1,20,21
 586 369 586 369 600 330 c 0,22,23
 610 303 610 303 610 283.5 c 128,-1,24
 610 264 610 264 608 252 c 2,25,-1
 593 154 l 2,26,27
 577 53 577 53 518 24 c 1,28,29
 490 9 490 9 465 4.5 c 128,-1,30
 440 0 440 0 405 0 c 2,31,-1
 260 0 l 2,32,33
 212 0 212 0 179.5 13 c 128,-1,34
 147 26 147 26 132.5 43 c 128,-1,35
 118 60 118 60 111.5 83 c 128,-1,36
 105 106 105 106 105 120.5 c 128,-1,37
 105 135 105 135 109 154 c 1,38,-1
 124 252 l 2,39,40
 132 304 132 304 164 332 c 128,-1,41
 196 360 196 360 236 364 c 1,42,0
 205 374 205 374 186.5 398 c 128,-1,1
180 131 m 0,43,44
 180 104 180 104 198 89 c 128,-1,45
 216 74 216 74 272 74 c 2,46,-1
 417 74 l 2,47,48
 453 74 453 74 482.5 92 c 128,-1,49
 512 110 512 110 518 151 c 2,50,-1
 535 256 l 2,51,52
 536 265 536 265 536 273 c 0,53,54
 536 300 536 300 517 318.5 c 128,-1,55
 498 337 498 337 462 337 c 2,56,-1
 303 337 l 2,57,58
 212 337 212 337 199 256 c 2,59,-1
 182 151 l 2,60,61
 180 140 180 140 180 131 c 0,43,44
234 476 m 0,62,63
 234 445 234 445 257 427.5 c 128,-1,64
 280 410 280 410 314 410 c 2,65,-1
 473 410 l 2,66,67
 558 410 558 410 572 494 c 2,68,-1
 583 562 l 2,69,70
 587 584 587 584 587 606.5 c 128,-1,71
 587 629 587 629 576 642 c 0,72,73
 560 663 560 663 511 663 c 2,74,-1
 365 663 l 2,75,76
 305 663 305 663 280.5 640 c 128,-1,77
 256 617 256 617 247 562 c 2,78,-1
 236 494 l 2,79,80
 234 484 234 484 234 476 c 0,62,63
EndSplineSet
Substitution2: "'dnom' Denominators in Latin lookup 19 subtable" eight.denominator
Substitution2: "'sups' Superscript lookup 17 subtable" eightsuperior
Substitution2: "'onum' Oldstyle Figures in Latin lookup 15 subtable" eight.oldstyle
Substitution2: "'tnum' Tabular Numbers in Latin lookup 14 subtable" eight.tnum
Substitution2: "'numr' Numerators in Latin lookup 13 subtable" eight.numerator
Substitution2: "'sinf' Scientific Inferiors lookup 11 subtable" eightinferior
Substitution2: "'frac' Diagonal Fractions lookup 5 subtable" eight.numerator
Substitution2: "'smcp' Lowercase to Small Capitals lookup 1 subtable" eight.smcp
EndChar

StartChar: nine
Encoding: 57 57 28
Width: 620
GlyphClass: 2
Flags: W
LayerCount: 2
Fore
SplineSet
535 331 m 1,0,1
 354 310 354 310 290.5 310 c 128,-1,2
 227 310 227 310 201 319 c 0,3,4
 158 335 158 335 138 382 c 0,5,6
 130 400 130 400 130 411.5 c 128,-1,7
 130 423 130 423 132 459 c 1,8,-1
 152 590 l 1,9,10
 176 738 176 738 337 738 c 2,11,-1
 484 738 l 2,12,13
 628 738 628 738 628 518 c 0,14,15
 628 447 628 447 613 354 c 0,16,17
 584 171 584 171 520 85.5 c 128,-1,18
 456 0 456 0 385 0 c 0,19,20
 186 0 186 0 86 19 c 1,21,-1
 95 74 l 1,22,-1
 384 74 l 2,23,24
 414 74 414 74 441 101.5 c 128,-1,25
 468 129 468 129 486 172 c 0,26,27
 519 248 519 248 535 331 c 1,0,1
205 459 m 2,28,29
 203 446 203 446 203 428 c 128,-1,30
 203 410 203 410 217.5 397 c 128,-1,31
 232 384 232 384 281 384 c 2,32,-1
 544 384 l 1,33,34
 557 465 557 465 557 522 c 0,35,36
 557 667 557 667 476 667 c 2,37,-1
 327 667 l 2,38,39
 293 667 293 667 262 649 c 128,-1,40
 231 631 231 631 224 584 c 2,41,-1
 205 459 l 2,28,29
EndSplineSet
Substitution2: "'dnom' Denominators in Latin lookup 19 subtable" nine.denominator
Substitution2: "'sups' Superscript lookup 17 subtable" ninesuperior
Substitution2: "'onum' Oldstyle Figures in Latin lookup 15 subtable" nine.oldstyle
Substitution2: "'tnum' Tabular Numbers in Latin lookup 14 subtable" nine.tnum
Substitution2: "'numr' Numerators in Latin lookup 13 subtable" nine.numerator
Substitution2: "'sinf' Scientific Inferiors lookup 11 subtable" nineinferior
Substitution2: "'frac' Diagonal Fractions lookup 5 subtable" nine.numerator
Substitution2: "'smcp' Lowercase to Small Capitals lookup 1 subtable" nine.smcp
EndChar

StartChar: colon
Encoding: 58 58 29
Width: 272
GlyphClass: 2
Flags: W
LayerCount: 2
Fore
SplineSet
125 105 m 2,0,-1
 178 105 l 2,1,2
 200 105 200 105 200 87 c 0,3,4
 200 84 200 84 199 80 c 2,5,-1
 190 23 l 2,6,7
 186 0 186 0 162 0 c 2,8,-1
 109 0 l 2,9,10
 85 0 85 0 88 23 c 2,11,-1
 97 80 l 2,12,13
 100 105 100 105 125 105 c 2,0,-1
193 532 m 2,15,-1
 246 532 l 2,16,17
 268 532 268 532 268 514 c 0,18,19
 268 511 268 511 267 507 c 2,20,-1
 258 450 l 2,21,22
 254 427 254 427 229 427 c 2,23,-1
 176 427 l 2,24,25
 156 427 156 427 156 445 c 0,26,27
 156 447 156 447 156 450 c 2,28,-1
 165 507 l 2,29,14
 168 532 168 532 193 532 c 2,15,-1
EndSplineSet
EndChar

StartChar: semicolon
Encoding: 59 59 30
Width: 272
GlyphClass: 2
Flags: W
LayerCount: 2
Fore
SplineSet
83 -56 m 0,0,1
 111 -56 111 -56 117 -25 c 1,2,-1
 121 0 l 1,3,-1
 110 0 l 2,4,5
 100 0 100 0 93.5 8 c 128,-1,6
 87 16 87 16 89 25 c 2,7,-1
 97 79 l 2,8,9
 99 90 99 90 107.5 98 c 128,-1,10
 116 106 116 106 127 106 c 2,11,-1
 178 106 l 2,12,13
 198 106 198 106 198 86 c 0,14,15
 198 83 198 83 197 79 c 2,16,-1
 183 -11 l 2,17,18
 179 -38 179 -38 166 -56 c 0,19,20
 142 -90 142 -90 93 -90 c 0,21,22
 89 -90 89 -90 76 -88 c 1,23,-1
 81 -56 l 2,24,25
 82 -56 82 -56 83 -56 c 0,0,1
195 533 m 2,26,-1
 248 533 l 2,27,28
 270 533 270 533 270 515 c 0,29,30
 270 512 270 512 269 508 c 2,31,-1
 260 451 l 2,32,33
 256 428 256 428 232 428 c 2,34,-1
 179 428 l 2,35,36
 155 428 155 428 158 451 c 2,37,-1
 167 508 l 2,38,39
 170 533 170 533 195 533 c 2,26,-1
EndSplineSet
EndChar

StartChar: less
Encoding: 60 60 31
Width: 474
GlyphClass: 2
Flags: W
LayerCount: 2
Fore
SplineSet
99 314 m 1,0,-1
 112 394 l 1,1,-1
 512 556 l 1,2,-1
 500 476 l 1,3,-1
 190 350 l 1,4,-1
 459 215 l 1,5,-1
 446 140 l 1,6,-1
 99 314 l 1,0,-1
EndSplineSet
EndChar

StartChar: equal
Encoding: 61 61 32
Width: 467
GlyphClass: 2
Flags: W
LayerCount: 2
Fore
SplineSet
53 212 m 1,0,-1
 66 286 l 1,1,-1
 493 286 l 1,2,-1
 480 212 l 1,3,-1
 53 212 l 1,0,-1
85 421 m 1,4,-1
 98 495 l 1,5,-1
 525 495 l 1,6,-1
 512 421 l 1,7,-1
 85 421 l 1,4,-1
EndSplineSet
EndChar

StartChar: greater
Encoding: 62 62 33
Width: 475
GlyphClass: 2
Flags: W
LayerCount: 2
Fore
SplineSet
72 140 m 1,0,-1
 85 222 l 1,1,-1
 401 354 l 1,2,-1
 125 486 l 1,3,-1
 138 556 l 1,4,-1
 487 394 l 1,5,-1
 475 314 l 1,6,-1
 72 140 l 1,0,-1
EndSplineSet
EndChar

StartChar: question
Encoding: 63 63 34
Width: 540
GlyphClass: 2
Flags: W
LayerCount: 2
Fore
SplineSet
318 739 m 2,0,-1
 388 741 l 2,1,2
 408 741 408 741 419 739 c 1,3,4
 515 739 515 739 558 686 c 0,5,6
 592 644 592 644 592 589 c 0,7,8
 592 572 592 572 589 554 c 2,9,-1
 573 453 l 2,10,11
 547 290 547 290 377 290 c 0,12,13
 344 290 344 290 305 296 c 1,14,-1
 296 248 l 1,15,16
 288 199 288 199 289 195 c 1,17,-1
 214 195 l 1,18,-1
 239 357 l 1,19,20
 286 356 286 356 322 356 c 128,-1,21
 358 356 358 356 390.5 357.5 c 128,-1,22
 423 359 423 359 457.5 383 c 128,-1,23
 492 407 492 407 500 453 c 2,24,-1
 516 554 l 2,25,26
 519 571 519 571 519 585 c 0,27,28
 519 624 519 624 495.5 646 c 128,-1,29
 472 668 472 668 396 668 c 2,30,-1
 125 668 l 1,31,-1
 134 719 l 1,32,33
 192 727 192 727 215.5 729.5 c 128,-1,34
 239 732 239 732 273 735.5 c 128,-1,35
 307 739 307 739 318 739 c 2,0,-1
212 105 m 2,36,-1
 265 105 l 2,37,38
 287 105 287 105 287 87 c 0,39,40
 287 84 287 84 286 80 c 2,41,-1
 277 23 l 2,42,43
 273 0 273 0 249 0 c 2,44,-1
 196 0 l 2,45,46
 172 0 172 0 175 23 c 2,47,-1
 184 80 l 2,48,49
 187 105 187 105 212 105 c 2,36,-1
EndSplineSet
Substitution2: "'smcp' Lowercase to Small Capitals lookup 1 subtable" question.smcp
EndChar

StartChar: at
Encoding: 64 64 35
Width: 868
GlyphClass: 2
Flags: W
LayerCount: 2
Fore
SplineSet
566 63 m 1,0,1
 505 -4 505 -4 410.5 -4 c 128,-1,2
 316 -4 316 -4 276 55 c 0,3,4
 249 94 249 94 249 172 c 0,5,6
 249 217 249 217 259.5 285.5 c 128,-1,7
 270 354 270 354 295 410 c 128,-1,8
 320 466 320 466 352 494 c 0,9,10
 409 544 409 544 473 544 c 0,11,12
 635 544 635 544 700 482 c 1,13,-1
 641 77 l 1,14,15
 683 77 683 77 706 94 c 128,-1,16
 729 111 729 111 738 167 c 2,17,-1
 791 521 l 2,18,19
 794 541 794 541 794 557 c 0,20,21
 794 613 794 613 758 622 c 0,22,23
 748 624 748 624 734.5 624 c 128,-1,24
 721 624 721 624 720 624 c 2,25,-1
 338 624 l 2,26,27
 236 624 236 624 219 521 c 2,28,-1
 138 9 l 2,29,30
 135 -8 135 -8 135 -22 c 0,31,32
 135 -105 135 -105 223 -105 c 2,33,-1
 609 -105 l 1,34,-1
 601 -152 l 1,35,36
 466 -179 466 -179 309 -179 c 2,37,-1
 211 -179 l 2,38,39
 134 -179 134 -179 92 -126 c 1,40,41
 61 -85 61 -85 61 -28 c 0,42,43
 61 -10 61 -10 64 9 c 2,44,-1
 145 521 l 2,45,46
 174 699 174 699 350 699 c 2,47,-1
 725 699 l 2,48,49
 807 699 807 699 842 653 c 0,50,51
 868 619 868 619 868 564 c 0,52,53
 868 544 868 544 865 521 c 2,54,-1
 812 167 l 2,55,56
 800 84 800 84 762 46 c 0,57,58
 746 30 746 30 715 16.5 c 128,-1,59
 684 3 684 3 643 3 c 2,60,-1
 589 3 l 1,61,-1
 566 63 l 1,0,1
329 254 m 0,62,63
 323 208 323 208 323 169.5 c 128,-1,64
 323 131 323 131 334 109 c 1,65,66
 351 70 351 70 416 70 c 0,67,68
 456 70 456 70 490.5 82.5 c 128,-1,69
 525 95 525 95 572 130 c 1,70,-1
 623 455 l 1,71,72
 563 471 563 471 474 471 c 0,73,74
 356 471 356 471 329 254 c 0,62,63
EndSplineSet
Substitution2: "'case' Case-Sensitive Forms lookup 18 subtable" at.alt
Substitution2: "'smcp' Lowercase to Small Capitals lookup 1 subtable" at.smcp
EndChar

StartChar: A
Encoding: 65 65 36
Width: 660
GlyphClass: 2
Flags: W
LayerCount: 2
Fore
SplineSet
45 0 m 1,0,-1
 430 732 l 1,1,-1
 504 732 l 1,2,-1
 645 0 l 1,3,-1
 570 0 l 1,4,-1
 531 204 l 1,5,-1
 234 204 l 1,6,-1
 126 0 l 1,7,-1
 45 0 l 1,0,-1
273 278 m 1,8,-1
 517 278 l 1,9,-1
 454 628 l 1,10,-1
 273 278 l 1,8,-1
EndSplineSet
Substitution2: "'c2sc' Capitals to Small Capitals in Latin lookup 2 subtable" a.smcp
EndChar

StartChar: B
Encoding: 66 66 37
Width: 597
GlyphClass: 2
Flags: W
LayerCount: 2
Fore
SplineSet
479 732 m 2,0,1
 531 732 531 732 567 714 c 0,2,3
 642 677 642 677 642 569 c 0,4,5
 642 555 642 555 640 539 c 0,6,7
 624 409 624 409 521 380 c 1,8,9
 549 375 549 375 570.5 333 c 128,-1,10
 592 291 592 291 592 240 c 0,11,12
 592 221 592 221 590 201 c 0,13,14
 565 0 565 0 363 0 c 2,15,-1
 80 0 l 1,16,-1
 196 732 l 1,17,-1
 479 732 l 2,0,1
375 74 m 2,18,19
 494 74 494 74 515 206 c 0,20,21
 518 224 518 224 518 251 c 128,-1,22
 518 278 518 278 501 306 c 0,23,24
 477 347 477 347 418 347 c 2,25,-1
 210 347 l 1,26,-1
 167 74 l 1,27,-1
 375 74 l 2,18,19
430 421 m 2,28,29
 546 421 546 421 565 542 c 0,30,31
 568 561 568 561 568 576 c 0,32,33
 568 616 568 616 546 637 c 128,-1,34
 524 658 524 658 469 658 c 2,35,-1
 260 658 l 1,36,-1
 222 421 l 1,37,-1
 430 421 l 2,28,29
EndSplineSet
Substitution2: "'c2sc' Capitals to Small Capitals in Latin lookup 2 subtable" b.smcp
EndChar

StartChar: C
Encoding: 67 67 38
Width: 578
GlyphClass: 2
Flags: W
LayerCount: 2
Fore
SplineSet
291 716 m 128,-1,1
 343 740 343 740 421 740 c 128,-1,2
 499 740 499 740 656 710 c 1,3,-1
 647 651 l 1,4,5
 533 666 533 666 431 666 c 0,6,7
 392 666 392 666 381.5 665.5 c 128,-1,8
 371 665 371 665 348.5 659.5 c 128,-1,9
 326 654 326 654 312.5 643.5 c 128,-1,10
 299 633 299 633 278 611 c 128,-1,11
 257 589 257 589 243 558 c 0,12,13
 207 480 207 480 193 392 c 128,-1,14
 179 304 179 304 179 269.5 c 128,-1,15
 179 235 179 235 180 218 c 0,16,17
 185 154 185 154 217 113 c 128,-1,18
 249 72 249 72 306 68 c 0,19,20
 326 67 326 67 377 67 c 128,-1,21
 428 67 428 67 559 76 c 1,22,-1
 551 17 l 1,23,24
 466 -6 466 -6 302 -6 c 0,25,26
 247 -6 247 -6 207.5 17 c 128,-1,27
 168 40 168 40 146 76 c 1,28,29
 105 147 105 147 105 255 c 0,30,31
 105 307 105 307 118 384.5 c 128,-1,32
 131 462 131 462 151 526 c 128,-1,33
 171 590 171 590 205 641 c 128,-1,0
 239 692 239 692 291 716 c 128,-1,1
EndSplineSet
Substitution2: "'c2sc' Capitals to Small Capitals in Latin lookup 2 subtable" c.smcp
EndChar

StartChar: D
Encoding: 68 68 39
Width: 668
GlyphClass: 2
Flags: W
LayerCount: 2
Fore
SplineSet
469 732 m 0,0,1
 533 732 533 732 578 705 c 128,-1,2
 623 678 623 678 644 638 c 0,3,4
 681 568 681 568 681 462 c 0,5,6
 681 414 681 414 671 363 c 1,7,8
 608 0 608 0 353 0 c 2,9,-1
 80 0 l 1,10,-1
 196 731 l 2,11,12
 196 732 196 732 469 732 c 0,0,1
365 77 m 2,13,14
 457 77 457 77 517 159.5 c 128,-1,15
 577 242 577 242 597 364 c 0,16,17
 607 426 607 426 607 485 c 128,-1,18
 607 544 607 544 586 586 c 1,19,20
 552 658 552 658 457 658 c 2,21,-1
 258 658 l 1,22,-1
 166 77 l 1,23,-1
 365 77 l 2,13,14
EndSplineSet
Substitution2: "'c2sc' Capitals to Small Capitals in Latin lookup 2 subtable" d.smcp
EndChar

StartChar: E
Encoding: 69 69 40
Width: 567
GlyphClass: 2
Flags: W
LayerCount: 2
Fore
SplineSet
309 732 m 0,0,1
 315 732 315 732 321 732 c 2,2,-1
 635 716 l 1,3,-1
 626 658 l 1,4,-1
 309 658 l 2,5,6
 277 658 277 658 264.5 643 c 128,-1,7
 252 628 252 628 248 602 c 2,8,-1
 216 402 l 1,9,-1
 544 392 l 1,10,-1
 534 333 l 1,11,-1
 204 323 l 1,12,-1
 172 123 l 1,13,14
 168 84 168 84 186 77 c 0,15,16
 202 71 202 71 227 71 c 2,17,-1
 534 71 l 1,18,-1
 524 14 l 1,19,-1
 214 -3 l 2,20,21
 209 -3 209 -3 205 -3 c 0,22,23
 156 -3 156 -3 126 23.5 c 128,-1,24
 96 50 96 50 96 96 c 0,25,26
 96 108 96 108 98 123 c 2,27,-1
 174 602 l 2,28,29
 195 732 195 732 309 732 c 0,0,1
EndSplineSet
Substitution2: "'c2sc' Capitals to Small Capitals in Latin lookup 2 subtable" e.smcp
EndChar

StartChar: F
Encoding: 70 70 41
Width: 568
GlyphClass: 2
Flags: W
LayerCount: 2
Fore
SplineSet
310 732 m 0,0,1
 316 732 316 732 322 732 c 2,2,-1
 636 716 l 1,3,-1
 627 658 l 1,4,-1
 310 658 l 2,5,6
 278 658 278 658 265.5 643 c 128,-1,7
 253 628 253 628 249 602 c 2,8,-1
 218 402 l 1,9,-1
 545 392 l 1,10,-1
 536 333 l 1,11,-1
 205 323 l 1,12,-1
 154 0 l 1,13,-1
 80 0 l 1,14,-1
 175 602 l 2,15,16
 196 732 196 732 310 732 c 0,0,1
EndSplineSet
Substitution2: "'c2sc' Capitals to Small Capitals in Latin lookup 2 subtable" f.smcp
EndChar

StartChar: G
Encoding: 71 71 42
Width: 609
GlyphClass: 2
Flags: W
LayerCount: 2
Fore
SplineSet
424 739 m 0,0,1
 496 739 496 739 650 710 c 1,2,-1
 642 651 l 1,3,4
 572 661 572 661 486 662.5 c 128,-1,5
 400 664 400 664 388.5 665 c 128,-1,6
 377 666 377 666 364 662.5 c 128,-1,7
 351 659 351 659 337.5 655.5 c 128,-1,8
 324 652 324 652 310 641 c 128,-1,9
 296 630 296 630 283 616 c 128,-1,10
 270 602 270 602 257 578.5 c 128,-1,11
 244 555 244 555 232 526 c 0,12,13
 208 465 208 465 196.5 387 c 128,-1,14
 185 309 185 309 185 253.5 c 128,-1,15
 185 198 185 198 202 150 c 0,16,17
 230 67 230 67 311 67 c 0,18,19
 312 67 312 67 313 67 c 0,20,21
 348 67 348 67 396.5 80.5 c 128,-1,22
 445 94 445 94 476 108 c 2,23,-1
 507 122 l 1,24,-1
 541 314 l 1,25,-1
 372 314 l 1,26,-1
 380 364 l 1,27,28
 475 389 475 389 559 389 c 0,29,30
 590 389 590 389 626 386 c 1,31,-1
 565 0 l 1,32,-1
 508 0 l 1,33,-1
 498 57 l 1,34,35
 472 33 472 33 415.5 13 c 128,-1,36
 359 -7 359 -7 305 -7 c 128,-1,37
 251 -7 251 -7 212 16 c 0,38,39
 140 58 140 58 118 162 c 0,40,41
 107 210 107 210 107 260.5 c 128,-1,42
 107 311 107 311 120 386 c 128,-1,43
 133 461 133 461 153 525 c 128,-1,44
 173 589 173 589 208 640 c 0,45,46
 274 739 274 739 419 739 c 0,47,48
 421 739 421 739 424 739 c 0,0,1
EndSplineSet
Substitution2: "'c2sc' Capitals to Small Capitals in Latin lookup 2 subtable" g.smcp
EndChar

StartChar: H
Encoding: 72 72 43
Width: 644
GlyphClass: 2
Flags: W
LayerCount: 2
Fore
SplineSet
85 0 m 1,0,-1
 201 732 l 1,1,-1
 275 732 l 1,2,-1
 220 391 l 1,3,-1
 570 391 l 1,4,-1
 625 732 l 1,5,-1
 699 732 l 1,6,-1
 583 0 l 1,7,-1
 509 0 l 1,8,-1
 560 317 l 1,9,-1
 210 317 l 1,10,-1
 159 0 l 1,11,-1
 85 0 l 1,0,-1
EndSplineSet
Substitution2: "'c2sc' Capitals to Small Capitals in Latin lookup 2 subtable" h.smcp
EndChar

StartChar: I
Encoding: 73 73 44
Width: 225
GlyphClass: 2
Flags: W
LayerCount: 2
Fore
SplineSet
90 0 m 1,0,-1
 206 732 l 1,1,-1
 280 732 l 1,2,-1
 164 0 l 1,3,-1
 90 0 l 1,0,-1
EndSplineSet
Substitution2: "'c2sc' Capitals to Small Capitals in Latin lookup 2 subtable" i.smcp
EndChar

StartChar: J
Encoding: 74 74 45
Width: 360
GlyphClass: 2
Flags: W
LayerCount: 2
Fore
SplineSet
51 75 m 1,0,1
 112 60 112 60 136 60 c 128,-1,2
 160 60 160 60 173.5 64 c 128,-1,3
 187 68 187 68 205 78 c 0,4,5
 240 98 240 98 251 165 c 2,6,-1
 341 732 l 1,7,-1
 415 732 l 1,8,-1
 325 165 l 2,9,10
 308 52 308 52 250 18 c 0,11,12
 208 -6 208 -6 145 -6 c 0,13,14
 75 -6 75 -6 38 21 c 1,15,-1
 51 75 l 1,0,1
EndSplineSet
Substitution2: "'c2sc' Capitals to Small Capitals in Latin lookup 2 subtable" j.smcp
EndChar

StartChar: K
Encoding: 75 75 46
Width: 572
GlyphClass: 2
Flags: W
LayerCount: 2
Fore
SplineSet
80 0 m 1,0,-1
 196 732 l 1,1,-1
 270 732 l 1,2,-1
 218 404 l 1,3,-1
 305 404 l 1,4,-1
 580 732 l 1,5,-1
 672 732 l 1,6,-1
 368 362 l 1,7,-1
 556 0 l 1,8,-1
 467 0 l 1,9,-1
 298 330 l 1,10,-1
 207 330 l 1,11,-1
 155 0 l 1,12,-1
 80 0 l 1,0,-1
EndSplineSet
Substitution2: "'c2sc' Capitals to Small Capitals in Latin lookup 2 subtable" k.smcp
EndChar

StartChar: L
Encoding: 76 76 47
Width: 535
GlyphClass: 2
Flags: W
LayerCount: 2
Fore
SplineSet
228 74 m 2,0,-1
 534 74 l 1,1,-1
 523 0 l 1,2,-1
 215 0 l 2,3,4
 158 0 158 0 127.5 27 c 128,-1,5
 97 54 97 54 97 99 c 0,6,7
 97 111 97 111 99 126 c 2,8,-1
 197 732 l 1,9,-1
 270 732 l 1,10,-1
 173 126 l 2,11,12
 167 88 167 88 188 80 c 0,13,14
 203 74 203 74 228 74 c 2,0,-1
EndSplineSet
Substitution2: "'c2sc' Capitals to Small Capitals in Latin lookup 2 subtable" l.smcp
EndChar

StartChar: M
Encoding: 77 77 48
Width: 802
GlyphClass: 2
Flags: W
LayerCount: 2
Fore
SplineSet
71 0 m 1,0,-1
 235 732 l 1,1,-1
 331 732 l 1,2,-1
 433 123 l 1,3,-1
 721 732 l 1,4,-1
 822 732 l 1,5,-1
 762 0 l 1,6,-1
 688 0 l 1,7,-1
 740 599 l 1,8,-1
 455 0 l 1,9,-1
 379 0 l 1,10,-1
 280 598 l 1,11,-1
 145 0 l 1,12,-1
 71 0 l 1,0,-1
EndSplineSet
AlternateSubs2: "'salt' Stylistic Alternatives in Latin lookup 16 subtable" M.salt
Substitution2: "'c2sc' Capitals to Small Capitals in Latin lookup 2 subtable" m.smcp
EndChar

StartChar: N
Encoding: 78 78 49
Width: 660
GlyphClass: 2
Flags: W
LayerCount: 2
Fore
SplineSet
80 0 m 1,0,-1
 196 732 l 1,1,-1
 268 732 l 1,2,-1
 547 138 l 1,3,-1
 641 732 l 1,4,-1
 715 732 l 1,5,-1
 599 0 l 1,6,-1
 529 0 l 1,7,-1
 249 594 l 1,8,-1
 155 0 l 1,9,-1
 80 0 l 1,0,-1
EndSplineSet
AlternateSubs2: "'salt' Stylistic Alternatives in Latin lookup 16 subtable" N.salt
Substitution2: "'c2sc' Capitals to Small Capitals in Latin lookup 2 subtable" n.smcp
EndChar

StartChar: O
Encoding: 79 79 50
Width: 667
GlyphClass: 2
Flags: W
LayerCount: 2
Fore
SplineSet
350.5 731 m 128,-1,1
 389 737 389 737 438.5 737 c 128,-1,2
 488 737 488 737 518.5 733.5 c 128,-1,3
 549 730 549 730 579 720 c 128,-1,4
 609 710 609 710 629 693 c 0,5,6
 675 653 675 653 688 580 c 1,7,8
 693 546 693 546 693 519.5 c 128,-1,9
 693 493 693 493 692.5 462 c 128,-1,10
 692 431 692 431 680.5 356 c 128,-1,11
 669 281 669 281 652 222 c 128,-1,12
 635 163 635 163 611.5 123 c 128,-1,13
 588 83 588 83 562.5 57.5 c 128,-1,14
 537 32 537 32 502 18 c 1,15,16
 442 -4 442 -4 350 -4 c 0,17,18
 223 -4 223 -4 172 34 c 0,19,20
 124 71 124 71 110 143 c 0,21,22
 103 177 103 177 103 203.5 c 128,-1,23
 103 230 103 230 103.5 260.5 c 128,-1,24
 104 291 104 291 117.5 376.5 c 128,-1,25
 131 462 131 462 154.5 531.5 c 128,-1,26
 178 601 178 601 204.5 641.5 c 128,-1,27
 231 682 231 682 271.5 703.5 c 128,-1,0
 312 725 312 725 350.5 731 c 128,-1,1
211.5 471.5 m 128,-1,29
 199 424 199 424 188 354 c 128,-1,30
 177 284 177 284 176.5 256.5 c 128,-1,31
 176 229 176 229 176 203.5 c 128,-1,32
 176 178 176 178 185 146.5 c 128,-1,33
 194 115 194 115 218.5 98 c 128,-1,34
 243 81 243 81 273 75.5 c 128,-1,35
 303 70 303 70 356.5 70 c 128,-1,36
 410 70 410 70 447 80.5 c 128,-1,37
 484 91 484 91 517 122 c 0,38,39
 580 181 580 181 607 361 c 0,40,41
 620 441 620 441 620 495.5 c 128,-1,42
 620 550 620 550 613.5 572.5 c 128,-1,43
 607 595 607 595 600.5 610 c 128,-1,44
 594 625 594 625 579.5 635.5 c 128,-1,45
 565 646 565 646 554 651.5 c 128,-1,46
 543 657 543 657 522 660 c 0,47,48
 491 663 491 663 450.5 663 c 128,-1,49
 410 663 410 663 391.5 662 c 128,-1,50
 373 661 373 661 345.5 655.5 c 128,-1,51
 318 650 318 650 303 638.5 c 128,-1,52
 288 627 288 627 268.5 605.5 c 128,-1,53
 249 584 249 584 236.5 551.5 c 128,-1,28
 224 519 224 519 211.5 471.5 c 128,-1,29
EndSplineSet
Substitution2: "'c2sc' Capitals to Small Capitals in Latin lookup 2 subtable" o.smcp
EndChar

StartChar: P
Encoding: 80 80 51
Width: 595
GlyphClass: 2
Flags: W
LayerCount: 2
Fore
SplineSet
497 732 m 2,0,1
 567 732 567 732 610 682 c 0,2,3
 643 645 643 645 643 573 c 0,4,5
 643 467 643 467 597 378 c 0,6,7
 577 339 577 339 534 314 c 1,8,9
 504 298 504 298 429 298 c 0,10,11
 400 298 400 298 302 305.5 c 128,-1,12
 204 313 204 313 200 315 c 1,13,-1
 149 0 l 1,14,-1
 75 0 l 1,15,-1
 191 732 l 1,16,-1
 497 732 l 2,0,1
439 372 m 2,17,18
 487 372 487 372 518.5 401 c 128,-1,19
 550 430 550 430 564 520 c 0,20,21
 568 540 568 540 568 551.5 c 128,-1,22
 568 563 568 563 566.5 576.5 c 128,-1,23
 565 590 565 590 563 604.5 c 128,-1,24
 561 619 561 619 553 629 c 128,-1,25
 545 639 545 639 538.5 644.5 c 128,-1,26
 532 650 532 650 521 653 c 0,27,28
 506 657 506 657 485 657 c 2,29,-1
 253 657 l 1,30,-1
 208 372 l 1,31,-1
 439 372 l 2,17,18
EndSplineSet
Substitution2: "'c2sc' Capitals to Small Capitals in Latin lookup 2 subtable" p.smcp
EndChar

StartChar: Q
Encoding: 81 81 52
Width: 671
GlyphClass: 2
Flags: W
LayerCount: 2
Fore
SplineSet
354.5 731 m 128,-1,1
 393 737 393 737 442.5 737 c 128,-1,2
 492 737 492 737 522.5 733.5 c 128,-1,3
 553 730 553 730 583 720 c 128,-1,4
 613 710 613 710 633 693 c 0,5,6
 679 653 679 653 692 580 c 1,7,8
 697 546 697 546 697 519.5 c 128,-1,9
 697 493 697 493 696.5 462 c 128,-1,10
 696 431 696 431 684.5 356 c 128,-1,11
 673 281 673 281 656 222 c 128,-1,12
 639 163 639 163 615.5 123 c 128,-1,13
 592 83 592 83 566.5 57.5 c 128,-1,14
 541 32 541 32 506 18 c 1,15,16
 446 -4 446 -4 354 -4 c 0,17,18
 227 -4 227 -4 176 34 c 0,19,20
 128 71 128 71 114 143 c 0,21,22
 107 177 107 177 107 203.5 c 128,-1,23
 107 230 107 230 107.5 260.5 c 128,-1,24
 108 291 108 291 121.5 376.5 c 128,-1,25
 135 462 135 462 158.5 531.5 c 128,-1,26
 182 601 182 601 208.5 641.5 c 128,-1,27
 235 682 235 682 275.5 703.5 c 128,-1,0
 316 725 316 725 354.5 731 c 128,-1,1
215.5 471.5 m 128,-1,29
 203 424 203 424 192 354 c 128,-1,30
 181 284 181 284 180.5 256.5 c 128,-1,31
 180 229 180 229 180 203.5 c 128,-1,32
 180 178 180 178 189 146.5 c 128,-1,33
 198 115 198 115 222.5 98 c 128,-1,34
 247 81 247 81 277 75.5 c 128,-1,35
 307 70 307 70 360.5 70 c 128,-1,36
 414 70 414 70 451 80.5 c 128,-1,37
 488 91 488 91 521 122 c 0,38,39
 584 181 584 181 611 361 c 0,40,41
 624 441 624 441 624 495.5 c 128,-1,42
 624 550 624 550 617.5 572.5 c 128,-1,43
 611 595 611 595 604.5 610 c 128,-1,44
 598 625 598 625 583.5 635.5 c 128,-1,45
 569 646 569 646 558 651.5 c 128,-1,46
 547 657 547 657 526 660 c 0,47,48
 495 663 495 663 454.5 663 c 128,-1,49
 414 663 414 663 395.5 662 c 128,-1,50
 377 661 377 661 349.5 655.5 c 128,-1,51
 322 650 322 650 307 638.5 c 128,-1,52
 292 627 292 627 272.5 605.5 c 128,-1,53
 253 584 253 584 240.5 551.5 c 128,-1,28
 228 519 228 519 215.5 471.5 c 128,-1,29
361 -33 m 1,54,55
 405 -68 405 -68 447.5 -68 c 128,-1,56
 490 -68 490 -68 526 -53 c 1,57,-1
 513 -133 l 1,58,59
 480 -142 480 -142 457.5 -142 c 128,-1,60
 435 -142 435 -142 426 -142 c 0,61,62
 381 -139 381 -139 345 -109.5 c 128,-1,63
 309 -80 309 -80 309 -33 c 1,64,-1
 361 -33 l 1,54,55
EndSplineSet
Substitution2: "'c2sc' Capitals to Small Capitals in Latin lookup 2 subtable" q.smcp
EndChar

StartChar: R
Encoding: 82 82 53
Width: 610
GlyphClass: 2
Flags: W
LayerCount: 2
Fore
SplineSet
503 732 m 2,0,1
 640 732 640 732 640 563 c 0,2,3
 640 539 640 539 637 512 c 0,4,5
 618 321 618 321 478 302 c 1,6,-1
 584 0 l 1,7,-1
 503 0 l 1,8,-1
 404 294 l 1,9,-1
 198 308 l 1,10,-1
 149 0 l 1,11,-1
 75 0 l 1,12,-1
 191 732 l 1,13,-1
 503 732 l 2,0,1
441 372 m 2,14,15
 488 372 488 372 522 404.5 c 128,-1,16
 556 437 556 437 562 512 c 1,17,18
 565 535 565 535 565 551 c 128,-1,19
 565 567 565 567 562.5 585.5 c 128,-1,20
 560 604 560 604 556.5 620 c 128,-1,21
 553 636 553 636 542 644 c 0,22,23
 523 657 523 657 491 657 c 2,24,-1
 254 657 l 1,25,-1
 209 372 l 1,26,-1
 441 372 l 2,14,15
EndSplineSet
Substitution2: "'c2sc' Capitals to Small Capitals in Latin lookup 2 subtable" r.smcp
EndChar

StartChar: S
Encoding: 83 83 54
Width: 571
GlyphClass: 2
Flags: W
LayerCount: 2
Fore
SplineSet
335 66 m 0,0,1
 464 66 464 66 478 156 c 2,2,-1
 489 224 l 2,3,4
 492 244 492 244 492 264 c 128,-1,5
 492 284 492 284 485 298 c 0,6,7
 473 322 473 322 421 322 c 2,8,-1
 282 322 l 2,9,10
 128 322 128 322 128 450 c 0,11,12
 128 471 128 471 132 494 c 2,13,-1
 142 560 l 1,14,15
 160 672 160 672 224 709 c 0,16,17
 276 738 276 738 348 738 c 0,18,19
 449 738 449 738 613 714 c 1,20,-1
 604 655 l 1,21,-1
 356 664 l 2,22,23
 348 664 348 664 340 664 c 0,24,25
 288 664 288 664 257 645.5 c 128,-1,26
 226 627 226 627 216 560 c 2,27,-1
 206 494 l 2,28,29
 203 473 203 473 203 457 c 128,-1,30
 203 441 203 441 206 431 c 128,-1,31
 209 421 209 421 214.5 413.5 c 128,-1,32
 220 406 220 406 227 403 c 128,-1,33
 234 400 234 400 243 398 c 128,-1,34
 252 396 252 396 262 396 c 0,35,36
 348 396 348 396 433 396 c 0,37,38
 477 396 477 396 507 380.5 c 128,-1,39
 537 365 537 365 549 340 c 0,40,41
 567 303 567 303 567 273 c 128,-1,42
 567 243 567 243 563 224 c 2,43,-1
 552 156 l 2,44,45
 545 112 545 112 526 80.5 c 128,-1,46
 507 49 507 49 485 32.5 c 128,-1,47
 463 16 463 16 432 6 c 1,48,49
 383 -8 383 -8 327.5 -8 c 128,-1,50
 272 -8 272 -8 192 0.5 c 128,-1,51
 112 9 112 9 79 16 c 1,52,-1
 88 76 l 1,53,54
 160 66 160 66 335 66 c 0,0,1
EndSplineSet
Substitution2: "'c2sc' Capitals to Small Capitals in Latin lookup 2 subtable" s.smcp
EndChar

StartChar: T
Encoding: 84 84 55
Width: 579
GlyphClass: 2
Flags: W
LayerCount: 2
Fore
SplineSet
139 658 m 1,0,-1
 151 732 l 1,1,-1
 659 732 l 1,2,-1
 647 658 l 1,3,-1
 427 658 l 1,4,-1
 323 0 l 1,5,-1
 249 0 l 1,6,-1
 353 658 l 1,7,-1
 139 658 l 1,0,-1
EndSplineSet
Substitution2: "'c2sc' Capitals to Small Capitals in Latin lookup 2 subtable" t.smcp
EndChar

StartChar: U
Encoding: 85 85 56
Width: 656
GlyphClass: 2
Flags: W
LayerCount: 2
Fore
SplineSet
202 302 m 1,0,1
 194 241 194 241 194 216.5 c 128,-1,2
 194 192 194 192 194 186 c 0,3,4
 196 140 196 140 217 114 c 128,-1,5
 238 88 238 88 267 78.5 c 128,-1,6
 296 69 296 69 344 69 c 0,7,8
 444 69 444 69 496.5 120.5 c 128,-1,9
 549 172 549 172 569 302 c 2,10,-1
 637 732 l 1,11,-1
 712 732 l 1,12,-1
 644 302 l 2,13,14
 636 250 636 250 627 214.5 c 128,-1,15
 618 179 618 179 596.5 133.5 c 128,-1,16
 575 88 575 88 544.5 61 c 128,-1,17
 514 34 514 34 461 14.5 c 128,-1,18
 408 -5 408 -5 338 -5 c 0,19,20
 211 -5 211 -5 156 68 c 0,21,22
 119 118 119 118 119 209 c 0,23,24
 119 251 119 251 127 302 c 2,25,-1
 195 732 l 1,26,-1
 270 732 l 1,27,-1
 202 302 l 1,0,1
EndSplineSet
Substitution2: "'c2sc' Capitals to Small Capitals in Latin lookup 2 subtable" u.smcp
EndChar

StartChar: V
Encoding: 86 86 57
Width: 670
GlyphClass: 2
Flags: W
LayerCount: 2
Fore
SplineSet
150 732 m 1,0,-1
 228 732 l 1,1,-1
 344 119 l 1,2,-1
 665 732 l 1,3,-1
 750 732 l 1,4,-1
 365 0 l 1,5,-1
 291 0 l 1,6,-1
 150 732 l 1,0,-1
EndSplineSet
Substitution2: "'c2sc' Capitals to Small Capitals in Latin lookup 2 subtable" v.smcp
EndChar

StartChar: W
Encoding: 87 87 58
Width: 1002
GlyphClass: 2
Flags: W
LayerCount: 2
Fore
SplineSet
150 732 m 1,0,-1
 225 732 l 1,1,-1
 342 121 l 1,2,-1
 665 732 l 1,3,-1
 749 732 l 1,4,-1
 619 480 l 1,5,-1
 678 115 l 1,6,-1
 1001 732 l 1,7,-1
 1082 732 l 1,8,-1
 697 0 l 1,9,-1
 623 0 l 1,10,-1
 562 374 l 1,11,-1
 365 0 l 1,12,-1
 291 0 l 1,13,-1
 150 732 l 1,0,-1
EndSplineSet
Substitution2: "'c2sc' Capitals to Small Capitals in Latin lookup 2 subtable" w.smcp
EndChar

StartChar: X
Encoding: 88 88 59
Width: 601
GlyphClass: 2
Flags: W
LayerCount: 2
Fore
SplineSet
38 0 m 1,0,-1
 314 364 l 1,1,-1
 151 732 l 1,2,-1
 229 732 l 1,3,-1
 363 429 l 1,4,-1
 592 732 l 1,5,-1
 681 732 l 1,6,-1
 396 355 l 1,7,-1
 553 0 l 1,8,-1
 475 0 l 1,9,-1
 347 290 l 1,10,-1
 127 0 l 1,11,-1
 38 0 l 1,0,-1
EndSplineSet
AlternateSubs2: "'salt' Stylistic Alternatives in Latin lookup 16 subtable" X.salt
Substitution2: "'c2sc' Capitals to Small Capitals in Latin lookup 2 subtable" x.smcp
EndChar

StartChar: Y
Encoding: 89 89 60
Width: 630
GlyphClass: 2
Flags: W
LayerCount: 2
Fore
SplineSet
150 732 m 1,0,-1
 228 732 l 1,1,-1
 356 351 l 1,2,-1
 622 732 l 1,3,-1
 710 732 l 1,4,-1
 382 260 l 1,5,-1
 341 0 l 1,6,-1
 267 0 l 1,7,-1
 308 260 l 1,8,-1
 150 732 l 1,0,-1
EndSplineSet
Substitution2: "'c2sc' Capitals to Small Capitals in Latin lookup 2 subtable" y.smcp
EndChar

StartChar: Z
Encoding: 90 90 61
Width: 564
GlyphClass: 2
Flags: W
LayerCount: 2
Fore
SplineSet
35 0 m 1,0,-1
 47 74 l 1,1,-1
 535 658 l 1,2,-1
 139 658 l 1,3,-1
 151 732 l 1,4,-1
 644 732 l 1,5,-1
 632 658 l 1,6,-1
 144 74 l 1,7,-1
 540 74 l 1,8,-1
 528 0 l 1,9,-1
 35 0 l 1,0,-1
EndSplineSet
Substitution2: "'c2sc' Capitals to Small Capitals in Latin lookup 2 subtable" z.smcp
EndChar

StartChar: bracketleft
Encoding: 91 91 62
Width: 321
GlyphClass: 2
Flags: W
LayerCount: 2
Fore
SplineSet
354 842 m 2,0,-1
 434 842 l 1,1,-1
 422 768 l 1,2,-1
 342 768 l 2,3,4
 311 768 311 768 293 751 c 128,-1,5
 275 734 275 734 267 688 c 2,6,-1
 152 -38 l 1,7,8
 148 -70 148 -70 148 -90 c 128,-1,9
 148 -110 148 -110 152 -118 c 0,10,11
 161 -136 161 -136 199 -136 c 2,12,-1
 279 -136 l 1,13,-1
 267 -210 l 1,14,-1
 187 -210 l 2,15,16
 144 -210 144 -210 117 -191 c 128,-1,17
 90 -172 90 -172 83 -145 c 0,18,19
 74 -108 74 -108 74 -81 c 128,-1,20
 74 -54 74 -54 78 -38 c 1,21,-1
 193 688 l 2,22,23
 205 764 205 764 238 803 c 128,-1,24
 271 842 271 842 354 842 c 2,0,-1
EndSplineSet
EndChar

StartChar: backslash
Encoding: 92 92 63
Width: 391
GlyphClass: 2
Flags: W
LayerCount: 2
Fore
SplineSet
141 770 m 1,0,-1
 212 770 l 1,1,-1
 360 -72 l 1,2,-1
 289 -72 l 1,3,-1
 141 770 l 1,0,-1
EndSplineSet
EndChar

StartChar: bracketright
Encoding: 93 93 64
Width: 322
GlyphClass: 2
Flags: W
LayerCount: 2
Fore
SplineSet
79 -136 m 2,0,1
 110 -136 110 -136 128 -119 c 128,-1,2
 146 -102 146 -102 154 -56 c 2,3,-1
 269 670 l 2,4,5
 274 702 274 702 274 722 c 128,-1,6
 274 742 274 742 269 750 c 0,7,8
 260 768 260 768 222 768 c 2,9,-1
 142 768 l 1,10,-1
 154 842 l 1,11,-1
 234 842 l 2,12,13
 277 842 277 842 304 823 c 128,-1,14
 331 804 331 804 338 777 c 0,15,16
 348 740 348 740 348 713 c 128,-1,17
 348 686 348 686 343 670 c 1,18,-1
 228 -56 l 2,19,20
 216 -132 216 -132 183 -171 c 128,-1,21
 150 -210 150 -210 67 -210 c 2,22,-1
 -13 -210 l 1,23,-1
 -1 -136 l 1,24,-1
 79 -136 l 2,0,1
EndSplineSet
EndChar

StartChar: asciicircum
Encoding: 94 94 65
Width: 392
GlyphClass: 2
Flags: W
LayerCount: 2
Fore
SplineSet
134 531 m 1,0,-1
 272 662 l 1,1,-1
 343 662 l 1,2,-1
 426 531 l 1,3,-1
 357 531 l 1,4,-1
 305 611 l 1,5,-1
 218 531 l 1,6,-1
 134 531 l 1,0,-1
EndSplineSet
EndChar

StartChar: underscore
Encoding: 95 95 66
Width: 673
GlyphClass: 2
Flags: W
LayerCount: 2
Fore
SplineSet
19 -1 m 1,0,-1
 31 73 l 1,1,-1
 665 73 l 1,2,-1
 653 -1 l 1,3,-1
 19 -1 l 1,0,-1
EndSplineSet
EndChar

StartChar: grave
Encoding: 96 96 67
Width: 254
GlyphClass: 2
Flags: W
LayerCount: 2
Fore
SplineSet
125 664 m 1,0,-1
 212 664 l 1,1,-1
 318 531 l 1,2,-1
 249 531 l 1,3,-1
 125 664 l 1,0,-1
EndSplineSet
Substitution2: "'smcp' Lowercase to Small Capitals lookup 1 subtable" grave.smcp
EndChar

StartChar: a
Encoding: 97 97 68
Width: 541
GlyphClass: 2
Flags: W
LayerCount: 2
Fore
SplineSet
242 525.5 m 128,-1,1
 270 537 270 537 296.5 540 c 128,-1,2
 323 543 323 543 355 543 c 128,-1,3
 387 543 387 543 457 528 c 128,-1,4
 527 513 527 513 563 479 c 1,5,-1
 493 0 l 1,6,-1
 440 0 l 1,7,-1
 429 60 l 1,8,9
 327 -7 327 -7 243 -7 c 0,10,11
 142 -7 142 -7 108 45 c 0,12,13
 79 91 79 91 79 164 c 0,14,15
 79 212 79 212 91 283.5 c 128,-1,16
 103 355 103 355 126.5 408.5 c 128,-1,17
 150 462 150 462 182 488 c 128,-1,0
 214 514 214 514 242 525.5 c 128,-1,1
183 345.5 m 128,-1,19
 170 306 170 306 162 255 c 128,-1,20
 154 204 154 204 154 167 c 128,-1,21
 154 130 154 130 164 108 c 0,22,23
 183 67 183 67 239 67 c 128,-1,24
 295 67 295 67 334 78 c 128,-1,25
 373 89 373 89 434 115 c 1,26,-1
 486 452 l 1,27,28
 412 472 412 472 373 472 c 128,-1,29
 334 472 334 472 311.5 467.5 c 128,-1,30
 289 463 289 463 275.5 459 c 128,-1,31
 262 455 262 455 241.5 441.5 c 128,-1,32
 221 428 221 428 208.5 406.5 c 128,-1,18
 196 385 196 385 183 345.5 c 128,-1,19
EndSplineSet
AlternateSubs2: "'salt' Stylistic Alternatives in Latin lookup 16 subtable" a.salt
Substitution2: "'smcp' Lowercase to Small Capitals lookup 1 subtable" a.smcp
EndChar

StartChar: b
Encoding: 98 98 69
Width: 554
GlyphClass: 2
Flags: W
LayerCount: 2
Fore
SplineSet
408 539 m 0,0,1
 555 539 555 539 555 362 c 0,2,3
 555 292 555 292 531 186 c 0,4,5
 524 156 524 156 507 114.5 c 128,-1,6
 490 73 490 73 469 48.5 c 128,-1,7
 448 24 448 24 414.5 9 c 128,-1,8
 381 -6 381 -6 342 -6 c 0,9,10
 291 -6 291 -6 227 18 c 128,-1,11
 163 42 163 42 142 59 c 1,12,-1
 113 0 l 1,13,-1
 60 0 l 1,14,-1
 184 785 l 1,15,-1
 256 785 l 1,16,-1
 211 499 l 1,17,18
 316 539 316 539 408 539 c 0,0,1
482 374 m 0,19,20
 482 465 482 465 402 465 c 0,21,22
 307 465 307 465 203 439 c 1,23,-1
 151 114 l 1,24,25
 258 68 258 68 340 68 c 0,26,27
 395 68 395 68 426 116.5 c 128,-1,28
 457 165 457 165 469.5 248.5 c 128,-1,29
 482 332 482 332 482 374 c 0,19,20
EndSplineSet
AlternateSubs2: "'salt' Stylistic Alternatives in Latin lookup 16 subtable" b.salt
Substitution2: "'smcp' Lowercase to Small Capitals lookup 1 subtable" b.smcp
EndChar

StartChar: c
Encoding: 99 99 70
Width: 496
GlyphClass: 2
Flags: W
LayerCount: 2
Fore
SplineSet
152 170 m 0,0,1
 152 67 152 67 232 67 c 0,2,3
 326 67 326 67 430 75 c 2,4,-1
 469 78 l 1,5,-1
 460 22 l 1,6,7
 355 -6 355 -6 238 -6 c 0,8,9
 147 -6 147 -6 105 60 c 0,10,11
 80 100 80 100 80 156.5 c 128,-1,12
 80 213 80 213 92.5 285 c 128,-1,13
 105 357 105 357 127.5 414.5 c 128,-1,14
 150 472 150 472 180.5 497.5 c 128,-1,15
 211 523 211 523 238 530.5 c 128,-1,16
 265 538 265 538 324.5 538 c 128,-1,17
 384 538 384 538 530 510 c 1,18,-1
 522 456 l 1,19,20
 384 464 384 464 329 464 c 128,-1,21
 274 464 274 464 261.5 461.5 c 128,-1,22
 249 459 249 459 233.5 448.5 c 128,-1,23
 218 438 218 438 207 417 c 0,24,25
 183 371 183 371 167.5 289.5 c 128,-1,26
 152 208 152 208 152 170 c 0,0,1
EndSplineSet
Substitution2: "'smcp' Lowercase to Small Capitals lookup 1 subtable" c.smcp
EndChar

StartChar: d
Encoding: 100 100 71
Width: 552
GlyphClass: 2
Flags: W
LayerCount: 2
Fore
SplineSet
214 517 m 128,-1,1
 254 539 254 539 299.5 539 c 128,-1,2
 345 539 345 539 400.5 528 c 128,-1,3
 456 517 456 517 498 499 c 1,4,-1
 544 785 l 1,5,-1
 616 785 l 1,6,-1
 491 0 l 1,7,-1
 438 0 l 1,8,-1
 428 59 l 1,9,10
 398 39 398 39 338 16.5 c 128,-1,11
 278 -6 278 -6 230.5 -6 c 128,-1,12
 183 -6 183 -6 148.5 19 c 128,-1,13
 114 44 114 44 101 83 c 0,14,15
 82 140 82 140 82 185.5 c 128,-1,16
 82 231 82 231 90.5 277 c 128,-1,17
 99 323 99 323 112.5 367 c 128,-1,18
 126 411 126 411 150 453 c 128,-1,0
 174 495 174 495 214 517 c 128,-1,1
163 263 m 0,19,20
 156 220 156 220 156 183.5 c 128,-1,21
 156 147 156 147 166 119 c 0,22,23
 185 68 185 68 235 68 c 0,24,25
 318 68 318 68 437 114 c 1,26,-1
 488 439 l 1,27,28
 393 465 393 465 296 465 c 0,29,30
 247 465 247 465 214.5 421.5 c 128,-1,31
 182 378 182 378 163 263 c 0,19,20
EndSplineSet
AlternateSubs2: "'salt' Stylistic Alternatives in Latin lookup 16 subtable" d.salt
Substitution2: "'smcp' Lowercase to Small Capitals lookup 1 subtable" d.smcp
EndChar

StartChar: e
Encoding: 101 101 72
Width: 525
GlyphClass: 2
Flags: W
LayerCount: 2
Fore
SplineSet
155 227 m 1,0,1
 147 180 147 180 147 148.5 c 128,-1,2
 147 117 147 117 154 100 c 0,3,4
 170 65 170 65 224 64 c 1,5,6
 250 62 250 62 305.5 62 c 128,-1,7
 361 62 361 62 473 78 c 1,8,-1
 465 22 l 1,9,10
 359 -7 359 -7 215 -7 c 0,11,12
 120 -7 120 -7 91 62 c 0,13,14
 76 98 76 98 76 152.5 c 128,-1,15
 76 207 76 207 89 277.5 c 128,-1,16
 102 348 102 348 116.5 389.5 c 128,-1,17
 131 431 131 431 159 469 c 0,18,19
 212 541 212 541 353 541 c 0,20,21
 454 541 454 541 504 506 c 0,22,23
 546 477 546 477 546 416 c 0,24,25
 546 336 546 336 496 286 c 0,26,27
 457 246 457 246 406 232 c 0,28,29
 340 214 340 214 263 214 c 128,-1,30
 186 214 186 214 155 227 c 1,0,1
163 281 m 1,31,32
 201 278 201 278 218 278 c 128,-1,33
 235 278 235 278 274.5 279.5 c 128,-1,34
 314 281 314 281 353.5 290 c 128,-1,35
 393 299 393 299 428 324 c 0,36,37
 472 354 472 354 472 409 c 0,38,39
 472 441 472 441 447.5 454 c 128,-1,40
 423 467 423 467 359.5 467 c 128,-1,41
 296 467 296 467 261 455 c 128,-1,42
 226 443 226 443 207.5 412.5 c 128,-1,43
 189 382 189 382 182 363 c 0,44,45
 171 330 171 330 163 281 c 1,31,32
EndSplineSet
Substitution2: "'smcp' Lowercase to Small Capitals lookup 1 subtable" e.smcp
EndChar

StartChar: f
Encoding: 102 102 73
Width: 403
GlyphClass: 2
Flags: W
LayerCount: 2
Fore
SplineSet
384 785 m 0,0,1
 426 785 426 785 503 761 c 1,2,-1
 496 712 l 1,3,-1
 384 712 l 2,4,5
 334 712 334 712 316 684 c 128,-1,6
 298 656 298 656 285 567 c 1,7,-1
 279 531 l 1,8,-1
 444 531 l 1,9,-1
 432 457 l 1,10,-1
 266 457 l 1,11,-1
 190 0 l 1,12,-1
 116 0 l 1,13,-1
 191 457 l 1,14,-1
 92 457 l 1,15,-1
 101 512 l 1,16,-1
 205 531 l 1,17,-1
 211 567 l 2,18,19
 231 690 231 690 265.5 737.5 c 128,-1,20
 300 785 300 785 384 785 c 0,0,1
EndSplineSet
AlternateSubs2: "'salt' Stylistic Alternatives in Latin lookup 16 subtable" f.salt
Substitution2: "'smcp' Lowercase to Small Capitals lookup 1 subtable" f.smcp
EndChar

StartChar: g
Encoding: 103 103 74
Width: 553
GlyphClass: 2
Flags: W
LayerCount: 2
Fore
SplineSet
303 -199 m 2,0,1
 340 -199 340 -199 368 -174.5 c 128,-1,2
 396 -150 396 -150 403 -104 c 2,3,-1
 424 29 l 1,4,5
 325 -9 325 -9 246 -9 c 128,-1,6
 167 -9 167 -9 127 29.5 c 128,-1,7
 87 68 87 68 84 131 c 0,8,9
 83 146 83 146 83 180 c 128,-1,10
 83 214 83 214 91 275 c 1,11,12
 111 400 111 400 169 468.5 c 128,-1,13
 227 537 227 537 311 537 c 0,14,15
 396 537 396 537 480 526 c 128,-1,16
 564 515 564 515 575 514 c 1,17,-1
 477 -104 l 2,18,19
 463 -192 463 -192 413 -232.5 c 128,-1,20
 363 -273 363 -273 307 -273 c 0,21,22
 299 -273 299 -273 291 -272 c 2,23,-1
 37 -248 l 1,24,-1
 45 -199 l 1,25,-1
 303 -199 l 2,0,1
165 268 m 1,26,27
 155 227 155 227 155 185.5 c 128,-1,28
 155 144 155 144 159 129.5 c 128,-1,29
 163 115 163 115 172 98 c 0,30,31
 188 64 188 64 242 64 c 0,32,33
 331 64 331 64 433 89 c 1,34,-1
 493 463 l 1,35,-1
 311 463 l 2,36,37
 274 463 274 463 245 440 c 128,-1,38
 216 417 216 417 200 381 c 0,39,40
 174 322 174 322 165 268 c 1,26,27
EndSplineSet
AlternateSubs2: "'salt' Stylistic Alternatives in Latin lookup 16 subtable" g.salt
Substitution2: "'smcp' Lowercase to Small Capitals lookup 1 subtable" g.smcp
EndChar

StartChar: h
Encoding: 104 104 75
Width: 544
GlyphClass: 2
Flags: W
LayerCount: 2
Fore
SplineSet
416 540 m 0,0,1
 492 540 492 540 528 490 c 0,2,3
 556 452 556 452 556 402 c 0,4,5
 556 386 556 386 553 370 c 2,6,-1
 494 0 l 1,7,-1
 420 0 l 1,8,-1
 479 370 l 2,9,10
 481 382 481 382 481 393 c 0,11,12
 481 424 481 424 463 445 c 128,-1,13
 445 466 445 466 405.5 466 c 128,-1,14
 366 466 366 466 331 458 c 128,-1,15
 296 450 296 450 274 441.5 c 128,-1,16
 252 433 252 433 199 409 c 1,17,-1
 134 0 l 1,18,-1
 60 0 l 1,19,-1
 184 784 l 1,20,-1
 258 784 l 1,21,-1
 208 469 l 1,22,23
 257 502 257 502 332 526 c 1,24,25
 372 540 372 540 416 540 c 0,0,1
EndSplineSet
Substitution2: "'smcp' Lowercase to Small Capitals lookup 1 subtable" h.smcp
EndChar

StartChar: i
Encoding: 105 105 76
Width: 195
GlyphClass: 2
Flags: W
LayerCount: 2
Fore
SplineSet
60 0 m 1,0,-1
 144 531 l 1,1,-1
 218 531 l 1,2,-1
 134 0 l 1,3,-1
 60 0 l 1,0,-1
182 695 m 2,4,-1
 232 695 l 2,5,6
 252 695 252 695 252 677 c 0,7,8
 252 674 252 674 251 670 c 2,9,-1
 243 616 l 2,10,11
 240 593 240 593 216 593 c 2,12,-1
 166 593 l 2,13,14
 146 593 146 593 146 611 c 0,15,16
 146 613 146 613 146 616 c 2,17,-1
 154 670 l 2,18,19
 157 695 157 695 182 695 c 2,4,-1
EndSplineSet
Substitution2: "'smcp' Lowercase to Small Capitals lookup 1 subtable" i.smcp
EndChar

StartChar: j
Encoding: 106 106 77
Width: 217
GlyphClass: 2
Flags: W
LayerCount: 2
Fore
SplineSet
28 -270 m 1,0,-1
 155 531 l 1,1,-1
 229 531 l 1,2,-1
 144 -4 l 1,3,4
 121 -159 121 -159 76 -270 c 1,5,-1
 28 -270 l 1,0,-1
194 695 m 2,6,-1
 244 695 l 2,7,8
 264 695 264 695 264 677 c 0,9,10
 264 674 264 674 263 670 c 2,11,-1
 254 616 l 2,12,13
 251 593 251 593 227 593 c 2,14,-1
 177 593 l 2,15,16
 157 593 157 593 157 611 c 0,17,18
 157 613 157 613 157 616 c 2,19,-1
 166 670 l 1,20,21
 169 695 169 695 194 695 c 2,6,-1
EndSplineSet
Substitution2: "'smcp' Lowercase to Small Capitals lookup 1 subtable" j.smcp
EndChar

StartChar: k
Encoding: 107 107 78
Width: 490
GlyphClass: 2
Flags: W
LayerCount: 2
Fore
SplineSet
60 0 m 1,0,-1
 184 782 l 1,1,-1
 258 782 l 1,2,-1
 184 316 l 1,3,4
 254 337 254 337 341.5 407 c 128,-1,5
 429 477 429 477 440 531 c 1,6,-1
 523 531 l 1,7,8
 502 458 502 458 427 386.5 c 128,-1,9
 352 315 352 315 290 288 c 1,10,-1
 491 0 l 1,11,-1
 401 0 l 1,12,-1
 215 268 l 1,13,-1
 177 267 l 1,14,-1
 134 0 l 1,15,-1
 60 0 l 1,0,-1
EndSplineSet
Substitution2: "'smcp' Lowercase to Small Capitals lookup 1 subtable" k.smcp
EndChar

StartChar: l
Encoding: 108 108 79
Width: 290
GlyphClass: 2
Flags: W
LayerCount: 2
Fore
SplineSet
163 189 m 2,0,1
 157 157 157 157 157 137.5 c 128,-1,2
 157 118 157 118 159 107.5 c 128,-1,3
 161 97 161 97 168 90 c 0,4,5
 180 79 180 79 229 67.5 c 128,-1,6
 278 56 278 56 279 56 c 2,7,-1
 270 0 l 1,8,-1
 202 0 l 2,9,10
 84 0 84 0 84 130 c 0,11,12
 84 157 84 157 89 189 c 2,13,-1
 183 783 l 1,14,-1
 257 783 l 1,15,-1
 163 189 l 2,0,1
EndSplineSet
Substitution2: "'smcp' Lowercase to Small Capitals lookup 1 subtable" l.smcp
EndChar

StartChar: m
Encoding: 109 109 80
Width: 898
GlyphClass: 2
Flags: W
LayerCount: 2
Fore
SplineSet
363.5 534 m 128,-1,1
 384 537 384 537 418.5 537 c 128,-1,2
 453 537 453 537 489.5 512.5 c 128,-1,3
 526 488 526 488 537 451 c 1,4,5
 655 537 655 537 769 537 c 0,6,7
 835 537 835 537 876 488 c 1,8,9
 909 451 909 451 909 398 c 0,10,11
 909 383 909 383 906 366 c 2,12,-1
 848 0 l 1,13,-1
 774 0 l 1,14,-1
 832 366 l 2,15,16
 834 376 834 376 834 386 c 0,17,18
 834 415 834 415 814 439 c 128,-1,19
 794 463 794 463 757 463 c 0,20,21
 694 463 694 463 650.5 451 c 128,-1,22
 607 439 607 439 552 407 c 1,23,-1
 488 0 l 1,24,-1
 414 0 l 1,25,-1
 472 366 l 2,26,27
 474 376 474 376 474 385 c 0,28,29
 474 415 474 415 453.5 439 c 128,-1,30
 433 463 433 463 396 463 c 0,31,32
 366 463 366 463 350.5 460.5 c 128,-1,33
 335 458 335 458 328 457 c 128,-1,34
 321 456 321 456 307.5 451.5 c 128,-1,35
 294 447 294 447 289 446 c 128,-1,36
 284 445 284 445 267.5 438 c 128,-1,37
 251 431 251 431 247.5 429.5 c 128,-1,38
 244 428 244 428 223.5 418.5 c 128,-1,39
 203 409 203 409 198 407 c 1,40,-1
 134 0 l 1,41,-1
 60 0 l 1,42,-1
 144 531 l 1,43,-1
 196 531 l 1,44,-1
 208 467 l 1,45,46
 214 470 214 470 244.5 486.5 c 128,-1,47
 275 503 275 503 285 507.5 c 128,-1,48
 295 512 295 512 319 521.5 c 128,-1,0
 343 531 343 531 363.5 534 c 128,-1,1
EndSplineSet
AlternateSubs2: "'salt' Stylistic Alternatives in Latin lookup 16 subtable" m.salt
Substitution2: "'smcp' Lowercase to Small Capitals lookup 1 subtable" m.smcp
EndChar

StartChar: n
Encoding: 110 110 81
Width: 544
GlyphClass: 2
Flags: W
LayerCount: 2
Fore
SplineSet
416 540 m 0,0,1
 492 540 492 540 528 490 c 0,2,3
 556 452 556 452 556 402 c 0,4,5
 556 386 556 386 553 370 c 2,6,-1
 494 0 l 1,7,-1
 420 0 l 1,8,-1
 479 370 l 2,9,10
 481 382 481 382 481 392 c 0,11,12
 481 424 481 424 462.5 445 c 128,-1,13
 444 466 444 466 405 466 c 128,-1,14
 366 466 366 466 331 458 c 128,-1,15
 296 450 296 450 274 441.5 c 128,-1,16
 252 433 252 433 199 409 c 1,17,-1
 134 0 l 1,18,-1
 60 0 l 1,19,-1
 144 531 l 1,20,-1
 196 531 l 1,21,-1
 208 469 l 1,22,23
 257 502 257 502 332 526 c 1,24,25
 372 540 372 540 416 540 c 0,0,1
EndSplineSet
AlternateSubs2: "'salt' Stylistic Alternatives in Latin lookup 16 subtable" n.salt
Substitution2: "'smcp' Lowercase to Small Capitals lookup 1 subtable" n.smcp
EndChar

StartChar: o
Encoding: 111 111 82
Width: 564
GlyphClass: 2
Flags: W
LayerCount: 2
Fore
SplineSet
173 477.5 m 128,-1,1
 232 536 232 536 360.5 536 c 128,-1,2
 489 536 489 536 535 468 c 0,3,4
 565 423 565 423 565 347 c 0,5,6
 565 307 565 307 557 258 c 0,7,8
 532 108 532 108 476.5 51.5 c 128,-1,9
 421 -5 421 -5 291.5 -5 c 128,-1,10
 162 -5 162 -5 114 56 c 0,11,12
 82 97 82 97 82 176 c 0,13,14
 82 213 82 213 89 258 c 0,15,0
 114 419 114 419 173 477.5 c 128,-1,1
190 367.5 m 128,-1,17
 175 327 175 327 165 268 c 128,-1,18
 155 209 155 209 155 179.5 c 128,-1,19
 155 150 155 150 161.5 131 c 128,-1,20
 168 112 168 112 178 99 c 128,-1,21
 188 86 188 86 207 80 c 0,22,23
 238 69 238 69 288 69 c 128,-1,24
 338 69 338 69 363.5 74 c 128,-1,25
 389 79 389 79 415 97.5 c 128,-1,26
 441 116 441 116 456.5 155 c 128,-1,27
 472 194 472 194 482 252.5 c 128,-1,28
 492 311 492 311 492 355 c 128,-1,29
 492 399 492 399 476 422 c 0,30,31
 448 462 448 462 356 462 c 0,32,33
 309 462 309 462 282 456 c 128,-1,34
 255 450 255 450 230 429 c 128,-1,16
 205 408 205 408 190 367.5 c 128,-1,17
EndSplineSet
Substitution2: "'smcp' Lowercase to Small Capitals lookup 1 subtable" o.smcp
EndChar

StartChar: p
Encoding: 112 112 83
Width: 559
GlyphClass: 2
Flags: W
LayerCount: 2
Fore
SplineSet
403 534 m 0,0,1
 559 534 559 534 559 337 c 0,2,3
 559 168 559 168 484 66 c 1,4,5
 431 -8 431 -8 337 -8 c 0,6,7
 297 -8 297 -8 238.5 1.5 c 128,-1,8
 180 11 180 11 139 29 c 1,9,-1
 90 -270 l 1,10,-1
 17 -270 l 1,11,-1
 150 521 l 1,12,13
 260 534 260 534 403 534 c 0,0,1
373 75 m 128,-1,15
 398 86 398 86 418 105 c 0,16,17
 459 142 459 142 479 263 c 0,18,19
 486 307 486 307 486 341 c 0,20,21
 486 460 486 460 399 460 c 2,22,-1
 212 460 l 1,23,-1
 150 90 l 1,24,25
 228 64 228 64 288 64 c 128,-1,14
 348 64 348 64 373 75 c 128,-1,15
EndSplineSet
AlternateSubs2: "'salt' Stylistic Alternatives in Latin lookup 16 subtable" p.salt
Substitution2: "'smcp' Lowercase to Small Capitals lookup 1 subtable" p.smcp
EndChar

StartChar: q
Encoding: 113 113 84
Width: 553
GlyphClass: 2
Flags: W
LayerCount: 2
Fore
SplineSet
318 537 m 0,0,1
 403 537 403 537 483.5 526 c 128,-1,2
 564 515 564 515 575 514 c 1,3,-1
 451 -270 l 1,4,-1
 377 -270 l 1,5,-1
 424 29 l 1,6,7
 322 -10 322 -10 244.5 -10 c 128,-1,8
 167 -10 167 -10 128 27 c 128,-1,9
 89 64 89 64 84 126 c 0,10,11
 83 143 83 143 83 177 c 128,-1,12
 83 211 83 211 91 268 c 1,13,14
 134 537 134 537 318 537 c 0,0,1
177 326.5 m 128,-1,16
 169 298 169 298 162 247 c 128,-1,17
 155 196 155 196 155 165.5 c 128,-1,18
 155 135 155 135 158 123 c 0,19,20
 171 64 171 64 243 64 c 0,21,22
 332 64 332 64 434 89 c 1,23,-1
 493 463 l 1,24,-1
 306 463 l 2,25,26
 271 463 271 463 243.5 442.5 c 128,-1,27
 216 422 216 422 200.5 388.5 c 128,-1,15
 185 355 185 355 177 326.5 c 128,-1,16
EndSplineSet
Substitution2: "'smcp' Lowercase to Small Capitals lookup 1 subtable" q.smcp
EndChar

StartChar: r
Encoding: 114 114 85
Width: 427
GlyphClass: 2
Flags: W
LayerCount: 2
Fore
SplineSet
384 535 m 128,-1,1
 400 537 400 537 437.5 537 c 128,-1,2
 475 537 475 537 490 529 c 1,3,-1
 478 456 l 1,4,5
 454 462 454 462 410.5 462 c 128,-1,6
 367 462 367 462 331.5 454 c 128,-1,7
 296 446 296 446 274 437 c 128,-1,8
 252 428 252 428 198 404 c 1,9,-1
 134 0 l 1,10,-1
 60 0 l 1,11,-1
 144 531 l 1,12,-1
 196 531 l 1,13,-1
 207 464 l 1,14,15
 213 467 213 467 234.5 478.5 c 128,-1,16
 256 490 256 490 264 494 c 128,-1,17
 272 498 272 498 291 507 c 128,-1,18
 310 516 310 516 321.5 519.5 c 128,-1,19
 333 523 333 523 350.5 528 c 128,-1,0
 368 533 368 533 384 535 c 128,-1,1
EndSplineSet
AlternateSubs2: "'salt' Stylistic Alternatives in Latin lookup 16 subtable" r.salt
Substitution2: "'smcp' Lowercase to Small Capitals lookup 1 subtable" r.smcp
EndChar

StartChar: s
Encoding: 115 115 86
Width: 508
GlyphClass: 2
Flags: W
LayerCount: 2
Fore
SplineSet
420 172 m 2,0,1
 422 181 422 181 422 192.5 c 128,-1,2
 422 204 422 204 413.5 215.5 c 128,-1,3
 405 227 405 227 373 227 c 2,4,-1
 225 227 l 2,5,6
 151 227 151 227 122.5 253 c 128,-1,7
 94 279 94 279 94 324 c 0,8,9
 94 340 94 340 97 358 c 2,10,-1
 105 409 l 2,11,12
 116 476 116 476 152.5 508.5 c 128,-1,13
 189 541 189 541 274.5 541 c 128,-1,14
 360 541 360 541 523 525 c 1,15,-1
 514 468 l 1,16,-1
 253 468 l 2,17,18
 197 468 197 468 184 428 c 0,19,20
 181 420 181 420 179 409 c 2,21,-1
 171 358 l 1,22,23
 167 345 167 345 169 336 c 128,-1,24
 171 327 171 327 171 320.5 c 128,-1,25
 171 314 171 314 176.5 310.5 c 128,-1,26
 182 307 182 307 184 304.5 c 128,-1,27
 186 302 186 302 193.5 301.5 c 128,-1,28
 201 301 201 301 204 300.5 c 128,-1,29
 207 300 207 300 215 300.5 c 128,-1,30
 223 301 223 301 226 301 c 2,31,-1
 376 301 l 2,32,33
 440 301 440 301 468 269 c 128,-1,34
 496 237 496 237 496 196 c 0,35,36
 496 185 496 185 494 172 c 2,37,-1
 485 109 l 2,38,39
 473 31 473 31 424 8 c 0,40,41
 385 -10 385 -10 335 -10 c 0,42,43
 240 -10 240 -10 64 9 c 1,44,-1
 73 64 l 1,45,-1
 347 64 l 1,46,47
 366 61 366 61 386.5 76 c 128,-1,48
 407 91 407 91 411 118 c 2,49,-1
 420 172 l 2,0,1
EndSplineSet
Substitution2: "'smcp' Lowercase to Small Capitals lookup 1 subtable" s.smcp
EndChar

StartChar: t
Encoding: 116 116 87
Width: 378
GlyphClass: 2
Flags: W
LayerCount: 2
Fore
SplineSet
263 0 m 2,0,1
 144 0 144 0 144 128 c 0,2,3
 144 155 144 155 149 189 c 2,4,-1
 191 458 l 1,5,-1
 92 458 l 1,6,-1
 101 514 l 1,7,-1
 203 532 l 1,8,-1
 244 680 l 1,9,-1
 300 680 l 1,10,-1
 277 532 l 1,11,-1
 432 532 l 1,12,-1
 420 458 l 1,13,-1
 265 458 l 1,14,-1
 223 189 l 1,15,16
 220 151 220 151 218.5 138.5 c 128,-1,17
 217 126 217 126 217 116.5 c 128,-1,18
 217 107 217 107 224 96.5 c 128,-1,19
 231 86 231 86 239 82 c 128,-1,20
 247 78 247 78 292.5 67 c 128,-1,21
 338 56 338 56 339 56 c 2,22,-1
 331 0 l 1,23,-1
 263 0 l 2,0,1
EndSplineSet
AlternateSubs2: "'salt' Stylistic Alternatives in Latin lookup 16 subtable" t.salt
Substitution2: "'smcp' Lowercase to Small Capitals lookup 1 subtable" t.smcp
EndChar

StartChar: u
Encoding: 117 117 88
Width: 543
GlyphClass: 2
Flags: W
LayerCount: 2
Fore
SplineSet
148 134 m 0,0,1
 148 65 148 65 225 65 c 0,2,3
 292 65 292 65 355 90 c 0,4,5
 377 98 377 98 430 122 c 1,6,-1
 494 531 l 1,7,-1
 568 531 l 1,8,-1
 484 0 l 1,9,-1
 432 0 l 1,10,-1
 420 62 l 1,11,12
 397 48 397 48 380.5 40.5 c 128,-1,13
 364 33 364 33 347 24.5 c 128,-1,14
 330 16 330 16 321.5 13 c 128,-1,15
 313 10 313 10 297 4.5 c 128,-1,16
 281 -1 281 -1 270 -3 c 0,17,18
 235 -9 235 -9 213 -9 c 0,19,20
 136 -9 136 -9 100 39 c 0,21,22
 73 75 73 75 73 126 c 0,23,24
 73 142 73 142 76 161 c 2,25,-1
 134 531 l 1,26,-1
 208 531 l 1,27,-1
 150 161 l 2,28,29
 148 146 148 146 148 134 c 0,0,1
EndSplineSet
AlternateSubs2: "'salt' Stylistic Alternatives in Latin lookup 16 subtable" u.salt
Substitution2: "'smcp' Lowercase to Small Capitals lookup 1 subtable" u.smcp
EndChar

StartChar: v
Encoding: 118 118 89
Width: 515
GlyphClass: 2
Flags: W
LayerCount: 2
Fore
SplineSet
546 531 m 1,0,1
 553 510 553 510 553 487 c 128,-1,2
 553 464 553 464 541 439 c 2,3,-1
 312 0 l 1,4,-1
 219 0 l 1,5,-1
 94 531 l 1,6,-1
 171 531 l 1,7,-1
 275 91 l 1,8,-1
 461 451 l 1,9,10
 481 492 481 492 487 531 c 1,11,-1
 546 531 l 1,0,1
EndSplineSet
Substitution2: "'smcp' Lowercase to Small Capitals lookup 1 subtable" v.smcp
EndChar

StartChar: w
Encoding: 119 119 90
Width: 798
GlyphClass: 2
Flags: W
LayerCount: 2
Fore
SplineSet
536 528 m 1,0,1
 543 507 543 507 543 484 c 128,-1,2
 543 461 543 461 531 436 c 2,3,-1
 502 371 l 1,4,-1
 556 102 l 1,5,-1
 750 451 l 1,6,7
 770 492 770 492 776 531 c 1,8,-1
 831 531 l 1,9,10
 838 508 838 508 838 485 c 128,-1,11
 838 462 838 462 826 439 c 2,12,-1
 579 0 l 1,13,-1
 506 0 l 1,14,-1
 448 280 l 1,15,-1
 301 0 l 1,16,-1
 219 0 l 1,17,-1
 94 531 l 1,18,-1
 168 531 l 1,19,-1
 269 96 l 1,20,-1
 456 448 l 1,21,22
 476 489 476 489 482 528 c 1,23,-1
 536 528 l 1,0,1
EndSplineSet
Substitution2: "'smcp' Lowercase to Small Capitals lookup 1 subtable" w.smcp
EndChar

StartChar: x
Encoding: 120 120 91
Width: 524
GlyphClass: 2
Flags: W
LayerCount: 2
Fore
SplineSet
24 0 m 1,0,-1
 259 268 l 1,1,-1
 108 531 l 1,2,-1
 193 531 l 1,3,-1
 310 327 l 1,4,-1
 489 531 l 1,5,-1
 584 531 l 1,6,-1
 349 259 l 1,7,-1
 497 0 l 1,8,-1
 412 0 l 1,9,-1
 297 200 l 1,10,-1
 124 0 l 1,11,-1
 24 0 l 1,0,-1
EndSplineSet
AlternateSubs2: "'salt' Stylistic Alternatives in Latin lookup 16 subtable" x.salt
Substitution2: "'smcp' Lowercase to Small Capitals lookup 1 subtable" x.smcp
EndChar

StartChar: y
Encoding: 121 121 92
Width: 549
GlyphClass: 2
Flags: W
LayerCount: 2
Fore
SplineSet
235 116 m 2,0,1
 239 94 239 94 255 85 c 128,-1,2
 271 76 271 76 279 76 c 128,-1,3
 287 76 287 76 288 76 c 2,4,-1
 303 77 l 1,5,-1
 496 453 l 2,6,7
 514 487 514 487 521 533 c 1,8,-1
 582 533 l 1,9,10
 588 514 588 514 588 490 c 128,-1,11
 588 466 588 466 573 437 c 2,12,-1
 352 1 l 2,13,14
 286 -128 286 -128 231 -191 c 128,-1,15
 176 -254 176 -254 98 -269 c 1,16,-1
 98 -216 l 1,17,18
 155 -178 155 -178 199 -113 c 0,19,20
 234 -61 234 -61 265 0 c 1,21,22
 239 0 239 0 214 14 c 0,23,24
 167 40 167 40 157 110 c 2,25,-1
 94 531 l 1,26,-1
 171 531 l 1,27,-1
 235 116 l 2,0,1
EndSplineSet
Substitution2: "'smcp' Lowercase to Small Capitals lookup 1 subtable" y.smcp
EndChar

StartChar: z
Encoding: 122 122 93
Width: 456
GlyphClass: 2
Flags: W
LayerCount: 2
Fore
SplineSet
45 1 m 1,0,-1
 54 75 l 1,1,-1
 399 457 l 1,2,-1
 104 457 l 1,3,-1
 114 531 l 1,4,-1
 510 531 l 1,5,-1
 500 457 l 1,6,-1
 161 75 l 1,7,-1
 437 75 l 1,8,-1
 426 1 l 1,9,-1
 45 1 l 1,0,-1
EndSplineSet
Substitution2: "'smcp' Lowercase to Small Capitals lookup 1 subtable" z.smcp
EndChar

StartChar: braceleft
Encoding: 123 123 94
Width: 320
GlyphClass: 2
Flags: W
LayerCount: 2
Fore
SplineSet
178 -45 m 0,0,1
 178 -136 178 -136 268 -136 c 0,2,3
 273 -136 273 -136 278 -136 c 1,4,-1
 266 -210 l 1,5,6
 198 -210 198 -210 158 -177 c 0,7,8
 104 -131 104 -131 104 -47 c 0,9,10
 104 -23 104 -23 108 3 c 2,11,-1
 148 247 l 2,12,13
 149 252 149 252 149 256 c 0,14,15
 149 280 149 280 126 295 c 128,-1,16
 103 310 103 310 74 310 c 0,17,18
 70 310 70 310 67 310 c 1,19,-1
 78 377 l 1,20,-1
 100 377 l 2,21,22
 152 377 152 377 167 396 c 0,23,24
 174 405 174 405 176 420 c 2,25,-1
 213 656 l 2,26,27
 243 842 243 842 433 842 c 1,28,-1
 421 768 l 1,29,30
 419 768 419 768 417 768 c 0,31,32
 305 768 305 768 287 656 c 2,33,-1
 250 420 l 2,34,35
 244 386 244 386 217 364.5 c 128,-1,36
 190 343 190 343 151 336 c 1,37,38
 186 331 186 331 204.5 309 c 128,-1,39
 223 287 223 287 223 263 c 0,40,41
 223 257 223 257 222 251 c 2,42,-1
 182 3 l 2,43,44
 178 -24 178 -24 178 -45 c 0,0,1
EndSplineSet
EndChar

StartChar: bar
Encoding: 124 124 95
Width: 245
GlyphClass: 2
Flags: W
LayerCount: 2
Fore
SplineSet
74 -72 m 1,0,-1
 207 770 l 1,1,-1
 281 770 l 1,2,-1
 148 -72 l 1,3,-1
 74 -72 l 1,0,-1
EndSplineSet
EndChar

StartChar: braceright
Encoding: 125 125 96
Width: 315
GlyphClass: 2
Flags: W
LayerCount: 2
Fore
SplineSet
242 677 m 0,0,1
 242 768 242 768 152 768 c 0,2,3
 147 768 147 768 142 768 c 1,4,-1
 154 842 l 1,5,6
 222 842 222 842 262 809 c 0,7,8
 316 763 316 763 316 679 c 0,9,10
 316 655 316 655 312 629 c 2,11,-1
 272 385 l 2,12,13
 271 380 271 380 271 376 c 0,14,15
 271 352 271 352 294 337 c 128,-1,16
 317 322 317 322 346 322 c 0,17,18
 350 322 350 322 353 322 c 1,19,-1
 342 255 l 1,20,-1
 320 255 l 2,21,22
 268 255 268 255 253 236 c 0,23,24
 246 227 246 227 244 212 c 2,25,-1
 206 -24 l 2,26,27
 176 -210 176 -210 -13 -210 c 1,28,-1
 -1 -136 l 1,29,30
 1 -136 1 -136 3 -136 c 0,31,32
 114 -136 114 -136 132 -24 c 2,33,-1
 170 212 l 2,34,35
 176 246 176 246 202.5 267.5 c 128,-1,36
 229 289 229 289 268 296 c 1,37,38
 233 301 233 301 215 323 c 128,-1,39
 197 345 197 345 197 369 c 0,40,41
 197 375 197 375 198 381 c 2,42,-1
 238 629 l 2,43,44
 242 656 242 656 242 677 c 0,0,1
EndSplineSet
EndChar

StartChar: asciitilde
Encoding: 126 126 97
Width: 438
GlyphClass: 2
Flags: W
LayerCount: 2
Fore
SplineSet
368 605 m 0,0,1
 408 605 408 605 468 645 c 1,2,-1
 483 603 l 1,3,4
 480 601 480 601 459 582.5 c 128,-1,5
 438 564 438 564 427 556 c 0,6,7
 390 531 390 531 362 531 c 128,-1,8
 334 531 334 531 303 548.5 c 128,-1,9
 272 566 272 566 254 566 c 128,-1,10
 236 566 236 566 221 560.5 c 128,-1,11
 206 555 206 555 187 545.5 c 128,-1,12
 168 536 168 536 155 531 c 1,13,-1
 140 572 l 1,14,15
 148 578 148 578 170 595.5 c 128,-1,16
 192 613 192 613 202 620 c 0,17,18
 234 640 234 640 262 640 c 128,-1,19
 290 640 290 640 319 622.5 c 128,-1,20
 348 605 348 605 368 605 c 0,0,1
EndSplineSet
EndChar

StartChar: exclamdown
Encoding: 161 161 98
Width: 271
GlyphClass: 2
Flags: W
LayerCount: 2
Fore
SplineSet
45 -269 m 1,0,-1
 140 262 l 1,1,-1
 215 262 l 1,2,-1
 142 -269 l 1,3,-1
 45 -269 l 1,0,-1
147 385 m 1,4,-1
 155 439 l 2,5,6
 158 460 158 460 183 462 c 1,7,-1
 232 462 l 1,8,9
 241 461 241 461 247 453.5 c 128,-1,10
 253 446 253 446 252 436 c 2,11,-1
 244 385 l 1,12,13
 239 365 239 365 220 360 c 1,14,-1
 164 360 l 1,15,16
 145 361 145 361 147 385 c 1,4,-1
EndSplineSet
Substitution2: "'case' Case-Sensitive Forms lookup 18 subtable" exclamdown.alt
Substitution2: "'smcp' Lowercase to Small Capitals lookup 1 subtable" exclamdown.smcp
EndChar

StartChar: cent
Encoding: 162 162 99
Width: 489
GlyphClass: 2
Flags: W
LayerCount: 2
Fore
SplineSet
143 170 m 0,0,1
 143 67 143 67 223 67 c 0,2,3
 317 67 317 67 421 75 c 2,4,-1
 460 78 l 1,5,-1
 451 22 l 1,6,7
 371 0 371 0 287 -5 c 1,8,-1
 274 -96 l 1,9,-1
 214 -96 l 1,10,-1
 227 -6 l 1,11,12
 71 -4 71 -4 71 171 c 0,13,14
 71 213 71 213 82 277.5 c 128,-1,15
 93 342 93 342 111.5 394 c 128,-1,16
 130 446 130 446 149.5 475 c 128,-1,17
 169 504 169 504 197.5 519 c 128,-1,18
 226 534 226 534 245.5 536.5 c 128,-1,19
 265 539 265 539 281.5 539 c 128,-1,20
 298 539 298 539 313 538 c 1,21,-1
 329 634 l 1,22,-1
 389 634 l 1,23,-1
 372 533 l 1,24,25
 449 524 449 524 522 510 c 1,26,-1
 513 456 l 1,27,28
 375 464 375 464 320 464 c 128,-1,29
 265 464 265 464 252.5 461.5 c 128,-1,30
 240 459 240 459 224.5 448.5 c 128,-1,31
 209 438 209 438 198 417 c 0,32,33
 174 371 174 371 158.5 289.5 c 128,-1,34
 143 208 143 208 143 170 c 0,0,1
EndSplineSet
EndChar

StartChar: sterling
Encoding: 163 163 100
Width: 596
GlyphClass: 2
Flags: W
LayerCount: 2
Fore
SplineSet
624 720 m 2,0,-1
 659 716 l 1,1,-1
 650 659 l 1,2,-1
 463 659 l 2,3,4
 363 659 363 659 327.5 630.5 c 128,-1,5
 292 602 292 602 276 505 c 2,6,-1
 258 392 l 1,7,-1
 526 375 l 1,8,-1
 519 330 l 1,9,-1
 248 330 l 1,10,-1
 208 74 l 1,11,-1
 557 74 l 1,12,-1
 545 0 l 1,13,-1
 50 0 l 1,14,-1
 59 59 l 1,15,-1
 134 74 l 1,16,-1
 174 330 l 1,17,-1
 102 330 l 1,18,-1
 109 375 l 1,19,-1
 184 392 l 1,20,-1
 202 505 l 2,21,22
 223 640 223 640 283 688 c 0,23,24
 304 704 304 704 321.5 712.5 c 128,-1,25
 339 721 339 721 367 726 c 0,26,27
 407 732 407 732 462 732 c 128,-1,28
 517 732 517 732 624 720 c 2,0,-1
EndSplineSet
Substitution2: "'smcp' Lowercase to Small Capitals lookup 1 subtable" sterling.smcp
EndChar

StartChar: currency
Encoding: 164 164 101
Width: 465
GlyphClass: 2
Flags: W
LayerCount: 2
Fore
SplineSet
111 293 m 0,0,1
 111 304 111 304 113 315 c 0,2,3
 121 372 121 372 150 406 c 1,4,-1
 113 450 l 1,5,-1
 159 486 l 1,6,-1
 194 444 l 1,7,8
 240 474 240 474 297.5 474 c 128,-1,9
 355 474 355 474 392 442 c 1,10,-1
 448 489 l 1,11,-1
 482 442 l 1,12,-1
 427 395 l 1,13,14
 442 365 442 365 442 342.5 c 128,-1,15
 442 320 442 320 440 307 c 0,16,17
 432 250 432 250 401 212 c 1,18,-1
 445 159 l 1,19,-1
 397 122 l 1,20,-1
 357 171 l 1,21,22
 318 144 318 144 261 144 c 128,-1,23
 204 144 204 144 167 174 c 1,24,-1
 115 129 l 1,25,-1
 79 177 l 1,26,-1
 131 221 l 1,27,28
 111 258 111 258 111 293 c 0,0,1
172 294 m 0,29,30
 172 262 172 262 195 234 c 0,31,32
 218 205 218 205 261 205 c 0,33,34
 359 205 359 205 381 309 c 0,35,36
 383 320 383 320 383 330 c 0,37,38
 383 359 383 359 361.5 387 c 128,-1,39
 340 415 340 415 295 415 c 0,40,41
 244 415 244 415 213 386 c 0,42,43
 172 349 172 349 172 294 c 0,29,30
EndSplineSet
EndChar

StartChar: yen
Encoding: 165 165 102
Width: 601
GlyphClass: 2
Flags: W
LayerCount: 2
Fore
SplineSet
106 153 m 1,0,-1
 115 212 l 1,1,-1
 280 212 l 1,2,-1
 287 262 l 1,3,-1
 123 262 l 1,4,-1
 133 321 l 1,5,-1
 292 321 l 1,6,-1
 136 732 l 1,7,-1
 214 732 l 1,8,-1
 342 399 l 1,9,-1
 607 732 l 1,10,-1
 696 732 l 1,11,-1
 372 321 l 1,12,-1
 560 321 l 1,13,-1
 550 262 l 1,14,-1
 361 262 l 1,15,-1
 354 212 l 1,16,-1
 542 212 l 1,17,-1
 533 153 l 1,18,-1
 347 153 l 1,19,-1
 327 0 l 1,20,-1
 253 0 l 1,21,-1
 273 153 l 1,22,-1
 106 153 l 1,0,-1
EndSplineSet
Substitution2: "'smcp' Lowercase to Small Capitals lookup 1 subtable" yen.smcp
EndChar

StartChar: brokenbar
Encoding: 166 166 103
Width: 246
GlyphClass: 2
Flags: W
LayerCount: 2
Fore
SplineSet
74 -72 m 1,0,-1
 126 256 l 1,1,-1
 200 256 l 1,2,-1
 148 -72 l 1,3,-1
 74 -72 l 1,0,-1
153 429 m 1,4,-1
 207 770 l 1,5,-1
 281 770 l 1,6,-1
 227 429 l 1,7,-1
 153 429 l 1,4,-1
EndSplineSet
EndChar

StartChar: section
Encoding: 167 167 104
Width: 551
GlyphClass: 2
Flags: W
LayerCount: 2
Fore
SplineSet
221 579 m 0,0,1
 221 543 221 543 270 543 c 2,2,-1
 449 543 l 2,3,4
 511 543 511 543 537 511.5 c 128,-1,5
 563 480 563 480 563 441 c 0,6,7
 563 429 563 429 561 416 c 2,8,-1
 551 354 l 1,9,10
 539 271 539 271 496 265 c 1,11,12
 526 253 526 253 526 209 c 0,13,14
 526 197 526 197 524 183 c 2,15,-1
 513 110 l 2,16,17
 501 37 501 37 468.5 14.5 c 128,-1,18
 436 -8 436 -8 352.5 -8 c 128,-1,19
 269 -8 269 -8 93 11 c 1,20,-1
 102 66 l 1,21,-1
 368 66 l 2,22,23
 399 66 399 66 416.5 74.5 c 128,-1,24
 434 83 434 83 439 110 c 2,25,-1
 450 183 l 2,26,27
 452 192 452 192 452 204 c 128,-1,28
 452 216 452 216 442.5 223 c 128,-1,29
 433 230 433 230 400 230 c 2,30,-1
 227 230 l 2,31,32
 167 230 167 230 138 257.5 c 128,-1,33
 109 285 109 285 109 326 c 0,34,35
 109 339 109 339 111 353 c 2,36,-1
 121 415 l 2,37,38
 127 455 127 455 140.5 477.5 c 128,-1,39
 154 500 154 500 180 508 c 1,40,41
 146 531 146 531 146 567 c 0,42,43
 146 578 146 578 148 590 c 2,44,-1
 159 660 l 2,45,46
 179 784 179 784 308 784 c 0,47,48
 403 784 403 784 579 765 c 1,49,-1
 571 710 l 1,50,-1
 297 710 l 2,51,52
 269 710 269 710 253.5 699 c 128,-1,53
 238 688 238 688 233 660 c 2,54,-1
 222 590 l 2,55,56
 221 584 221 584 221 579 c 0,0,1
184 353 m 2,57,58
 182 343 182 343 182 331 c 128,-1,59
 182 319 182 319 191.5 311.5 c 128,-1,60
 201 304 201 304 232 304 c 2,61,-1
 411 304 l 2,62,63
 454 304 454 304 465 319 c 0,64,65
 474 331 474 331 477 354 c 2,66,-1
 487 416 l 2,67,68
 490 431 490 431 490 445 c 0,69,70
 490 470 490 470 438 470 c 2,71,-1
 259 470 l 2,72,73
 225 470 225 470 212.5 460 c 128,-1,74
 200 450 200 450 194 414 c 2,75,-1
 184 353 l 2,57,58
EndSplineSet
EndChar

StartChar: dieresis
Encoding: 168 168 105
Width: 456
GlyphClass: 2
Flags: W
LayerCount: 2
Fore
SplineSet
201 632 m 128,-1,1
 222 632 222 632 233 619 c 128,-1,2
 244 606 244 606 244 596 c 0,3,4
 244 564 244 564 225 547.5 c 128,-1,5
 206 531 206 531 185 531 c 128,-1,6
 164 531 164 531 152.5 544.5 c 128,-1,7
 141 558 141 558 141 568 c 0,8,9
 141 600 141 600 160.5 616 c 128,-1,0
 180 632 180 632 201 632 c 128,-1,1
456 632 m 128,-1,11
 477 632 477 632 488 619 c 128,-1,12
 499 606 499 606 499 596 c 0,13,14
 499 564 499 564 480 547.5 c 128,-1,15
 461 531 461 531 440 531 c 128,-1,16
 419 531 419 531 407.5 544.5 c 128,-1,17
 396 558 396 558 396 568 c 0,18,19
 396 600 396 600 415.5 616 c 128,-1,10
 435 632 435 632 456 632 c 128,-1,11
EndSplineSet
Substitution2: "'smcp' Lowercase to Small Capitals lookup 1 subtable" dieresis.smcp
EndChar

StartChar: copyright
Encoding: 169 169 106
Width: 805
GlyphClass: 2
Flags: W
LayerCount: 2
Fore
SplineSet
395 732 m 2,0,-1
 655 732 l 2,1,2
 710 732 710 732 746.5 705.5 c 128,-1,3
 783 679 783 679 799 640 c 0,4,5
 822 585 822 585 822 490 c 0,6,7
 822 440 822 440 810.5 366 c 128,-1,8
 799 292 799 292 778 228.5 c 128,-1,9
 757 165 757 165 725.5 112.5 c 128,-1,10
 694 60 694 60 649 30 c 128,-1,11
 604 0 604 0 549 0 c 2,12,-1
 289 0 l 2,13,14
 234 0 234 0 195.5 28.5 c 128,-1,15
 157 57 157 57 138 98 c 0,16,17
 103 177 103 177 103 283 c 0,18,19
 103 328 103 328 110 368 c 0,20,21
 165 732 165 732 395 732 c 2,0,-1
174 368 m 1,22,23
 166 325 166 325 166 298 c 128,-1,24
 166 271 166 271 167.5 238.5 c 128,-1,25
 169 206 169 206 181 162.5 c 128,-1,26
 193 119 193 119 221.5 91.5 c 128,-1,27
 250 64 250 64 291 64 c 2,28,-1
 557 64 l 2,29,30
 619 64 619 64 672 142 c 1,31,32
 736 239 736 239 758 446 c 0,33,34
 760 473 760 473 760 494 c 128,-1,35
 760 515 760 515 759.5 542 c 128,-1,36
 759 569 759 569 749.5 598 c 128,-1,37
 740 627 740 627 716.5 647.5 c 128,-1,38
 693 668 693 668 655 668 c 2,39,-1
 385 668 l 2,40,41
 310 668 310 668 255 602 c 128,-1,42
 200 536 200 536 174 368 c 1,22,23
341 300 m 0,43,44
 341 211 341 211 405 211 c 0,45,46
 477 211 477 211 592 227 c 1,47,-1
 584 175 l 1,48,49
 480 147 480 147 395 147 c 0,50,51
 331 147 331 147 300 201 c 1,52,53
 279 235 279 235 279 280 c 128,-1,54
 279 325 279 325 286 365 c 0,55,56
 306 489 306 489 351 536 c 128,-1,57
 396 583 396 583 464 583 c 0,58,59
 508 583 508 583 638 559 c 1,60,-1
 630 507 l 1,61,62
 547 519 547 519 454 519 c 0,63,64
 374 519 374 519 349 362 c 1,65,66
 341 328 341 328 341 300 c 0,43,44
EndSplineSet
EndChar

StartChar: ordfeminine
Encoding: 170 170 107
Width: 370
GlyphClass: 3
Flags: W
LayerCount: 2
Fore
SplineSet
72 268 m 1,0,-1
 81 326 l 1,1,-1
 385 326 l 1,2,-1
 376 268 l 1,3,-1
 72 268 l 1,0,-1
112 560 m 1,4,5
 139 733 139 733 292 733 c 0,6,7
 312 733 312 733 364.5 721 c 128,-1,8
 417 709 417 709 440 687 c 1,9,-1
 395 381 l 1,10,-1
 361 381 l 1,11,-1
 351 437 l 1,12,13
 331 415 331 415 294 396 c 128,-1,14
 257 377 257 377 228 377 c 128,-1,15
 199 377 199 377 178 385 c 128,-1,16
 157 393 157 393 137.5 413 c 128,-1,17
 118 433 118 433 113.5 459.5 c 128,-1,18
 109 486 109 486 109 509 c 128,-1,19
 109 532 109 532 112 560 c 1,4,5
169 511 m 0,20,21
 169 440 169 440 229 440 c 0,22,23
 260 440 260 440 287 452.5 c 128,-1,24
 314 465 314 465 355 492 c 1,25,-1
 378 659 l 1,26,27
 326 672 326 672 300.5 672 c 128,-1,28
 275 672 275 672 260.5 668.5 c 128,-1,29
 246 665 246 665 235.5 660 c 128,-1,30
 225 655 225 655 211 642 c 0,31,32
 182 617 182 617 172 546 c 0,33,34
 169 527 169 527 169 511 c 0,20,21
EndSplineSet
Substitution2: "'smcp' Lowercase to Small Capitals lookup 1 subtable" ordfeminine.smcp
Ligature2: "'ordn' Ordinals lookup 0 subtable" a
EndChar

StartChar: guillemotleft
Encoding: 171 171 108
Width: 556
GlyphClass: 2
Flags: W
LayerCount: 2
Fore
SplineSet
106 354 m 1,0,-1
 344 557 l 1,1,-1
 390 503 l 1,2,-1
 207 347 l 1,3,-1
 338 193 l 1,4,-1
 284 146 l 1,5,-1
 106 354 l 1,0,-1
296 354 m 1,6,-1
 534 557 l 1,7,-1
 580 503 l 1,8,-1
 397 347 l 1,9,-1
 528 193 l 1,10,-1
 474 146 l 1,11,-1
 296 354 l 1,6,-1
EndSplineSet
EndChar

StartChar: logicalnot
Encoding: 172 172 109
Width: 527
GlyphClass: 2
Flags: W
LayerCount: 2
Fore
SplineSet
90 256 m 1,0,-1
 102 330 l 1,1,-1
 529 330 l 1,2,-1
 502 159 l 1,3,-1
 428 159 l 1,4,-1
 443 256 l 1,5,-1
 90 256 l 1,0,-1
EndSplineSet
EndChar

StartChar: uni00AD
Encoding: 173 173 110
Width: 355
GlyphClass: 2
Flags: W
LayerCount: 2
Fore
SplineSet
60 253 m 1,0,-1
 72 327 l 1,1,-1
 386 327 l 1,2,-1
 374 253 l 1,3,-1
 60 253 l 1,0,-1
EndSplineSet
Substitution2: "'case' Case-Sensitive Forms lookup 18 subtable" uni00AD.alt
Substitution2: "'c2sc' Capitals to Small Capitals in Latin lookup 2 subtable" uni00AD.smcp
Substitution2: "'smcp' Lowercase to Small Capitals lookup 1 subtable" uni00AD.smcp
EndChar

StartChar: registered
Encoding: 174 174 111
Width: 805
GlyphClass: 2
Flags: W
LayerCount: 2
Fore
SplineSet
395 732 m 2,0,-1
 655 732 l 2,1,2
 710 732 710 732 746.5 705.5 c 128,-1,3
 783 679 783 679 799 640 c 0,4,5
 822 585 822 585 822 490 c 0,6,7
 822 440 822 440 810.5 366 c 128,-1,8
 799 292 799 292 778 228.5 c 128,-1,9
 757 165 757 165 725.5 112.5 c 128,-1,10
 694 60 694 60 649 30 c 128,-1,11
 604 0 604 0 549 0 c 2,12,-1
 289 0 l 2,13,14
 234 0 234 0 195.5 28.5 c 128,-1,15
 157 57 157 57 138 98 c 0,16,17
 103 177 103 177 103 283 c 0,18,19
 103 328 103 328 110 368 c 0,20,21
 165 732 165 732 395 732 c 2,0,-1
174 368 m 1,22,23
 166 325 166 325 166 298 c 128,-1,24
 166 271 166 271 167.5 238.5 c 128,-1,25
 169 206 169 206 181 162.5 c 128,-1,26
 193 119 193 119 221.5 91.5 c 128,-1,27
 250 64 250 64 291 64 c 2,28,-1
 557 64 l 2,29,30
 619 64 619 64 672 142 c 1,31,32
 736 239 736 239 758 446 c 0,33,34
 760 473 760 473 760 494 c 128,-1,35
 760 515 760 515 759.5 542 c 128,-1,36
 759 569 759 569 749.5 598 c 128,-1,37
 740 627 740 627 716.5 647.5 c 128,-1,38
 693 668 693 668 655 668 c 2,39,-1
 385 668 l 2,40,41
 310 668 310 668 255 602 c 128,-1,42
 200 536 200 536 174 368 c 1,22,23
527 580 m 2,43,44
 573 580 573 580 608 554 c 1,45,46
 642 530 642 530 642 472 c 0,47,48
 642 405 642 405 612 360 c 0,49,50
 604 348 604 348 589 339.5 c 128,-1,51
 574 331 574 331 567 329 c 0,52,53
 539 321 539 321 524 321 c 1,54,-1
 588 153 l 1,55,-1
 516 153 l 1,56,-1
 452 323 l 1,57,-1
 375 335 l 1,58,-1
 346 153 l 1,59,-1
 282 153 l 1,60,-1
 350 580 l 1,61,-1
 527 580 l 2,43,44
501 379 m 2,62,63
 540 379 540 379 554.5 393 c 128,-1,64
 569 407 569 407 576 451 c 0,65,66
 578 463 578 463 578 472 c 128,-1,67
 578 481 578 481 575.5 491.5 c 128,-1,68
 573 502 573 502 562 508 c 0,69,70
 546 516 546 516 523 516 c 2,71,-1
 404 516 l 1,72,-1
 382 379 l 1,73,-1
 501 379 l 2,62,63
EndSplineSet
EndChar

StartChar: macron
Encoding: 175 175 112
Width: 392
GlyphClass: 2
Flags: W
LayerCount: 2
Fore
SplineSet
134 531 m 1,0,-1
 144 594 l 1,1,-1
 436 594 l 1,2,-1
 426 531 l 1,3,-1
 134 531 l 1,0,-1
EndSplineSet
Substitution2: "'smcp' Lowercase to Small Capitals lookup 1 subtable" macron.smcp
EndChar

StartChar: degree
Encoding: 176 176 113
Width: 300
GlyphClass: 2
Flags: W
LayerCount: 2
Fore
SplineSet
148 632 m 128,-1,1
 148 675 148 675 178 705 c 128,-1,2
 208 735 208 735 250 735 c 128,-1,3
 292 735 292 735 321.5 705 c 128,-1,4
 351 675 351 675 351 632 c 128,-1,5
 351 589 351 589 321.5 559.5 c 128,-1,6
 292 530 292 530 250 530 c 128,-1,7
 208 530 208 530 178 559.5 c 128,-1,0
 148 589 148 589 148 632 c 128,-1,1
195 632 m 128,-1,9
 195 610 195 610 211 594 c 128,-1,10
 227 578 227 578 249.5 578 c 128,-1,11
 272 578 272 578 288 594 c 128,-1,12
 304 610 304 610 304 632.5 c 128,-1,13
 304 655 304 655 288 671 c 128,-1,14
 272 687 272 687 250 687 c 128,-1,15
 228 687 228 687 211.5 670.5 c 128,-1,8
 195 654 195 654 195 632 c 128,-1,9
EndSplineSet
Substitution2: "'smcp' Lowercase to Small Capitals lookup 1 subtable" degree.smcp
EndChar

StartChar: plusminus
Encoding: 177 177 114
Width: 526
GlyphClass: 2
Flags: W
LayerCount: 2
Fore
SplineSet
69 87 m 1,0,-1
 81 161 l 1,1,-1
 497 161 l 1,2,-1
 485 87 l 1,3,-1
 69 87 l 1,0,-1
117 387 m 1,4,-1
 128 461 l 1,5,-1
 298 461 l 1,6,-1
 325 632 l 1,7,-1
 399 632 l 1,8,-1
 372 461 l 1,9,-1
 544 461 l 1,10,-1
 533 387 l 1,11,-1
 361 387 l 1,12,-1
 333 216 l 1,13,-1
 259 216 l 1,14,-1
 287 387 l 1,15,-1
 117 387 l 1,4,-1
EndSplineSet
EndChar

StartChar: twosuperior
Encoding: 178 178 115
Width: 385
GlyphClass: 2
Flags: W
LayerCount: 2
Fore
SplineSet
350.5 641.5 m 128,-1,1
 370 672 370 672 373 692 c 128,-1,2
 376 712 376 712 376 729 c 128,-1,3
 376 746 376 746 364.5 761 c 128,-1,4
 353 776 353 776 311 776 c 2,5,-1
 139 776 l 2,6,7
 136 776 136 776 144 812 c 1,8,-1
 146 823 l 1,9,10
 272 838 272 838 322.5 838 c 128,-1,11
 373 838 373 838 400 812 c 0,12,13
 442 773 442 773 442 721 c 0,14,15
 442 711 442 711 440 702 c 0,16,17
 432 650 432 650 396.5 598 c 128,-1,18
 361 546 361 546 324.5 515 c 128,-1,19
 288 484 288 484 247.5 453.5 c 128,-1,20
 207 423 207 423 202 418 c 1,21,-1
 394 418 l 1,22,-1
 384 356 l 1,23,-1
 75 356 l 1,24,-1
 84 414 l 1,25,26
 92 420 92 420 129.5 445.5 c 128,-1,27
 167 471 167 471 190 487.5 c 128,-1,28
 213 504 213 504 249.5 534 c 128,-1,29
 286 564 286 564 308.5 587.5 c 128,-1,0
 331 611 331 611 350.5 641.5 c 128,-1,1
EndSplineSet
EndChar

StartChar: threesuperior
Encoding: 179 179 116
Width: 405
GlyphClass: 2
Flags: W
LayerCount: 2
Fore
SplineSet
377 587 m 1,0,1
 409 564 409 564 409 516 c 0,2,3
 409 508 409 508 408 499 c 2,4,-1
 404 471 l 2,5,6
 395 413 395 413 363 382.5 c 128,-1,7
 331 352 331 352 263 352 c 0,8,9
 261 352 261 352 257.5 352 c 128,-1,10
 254 352 254 352 236 352 c 0,11,12
 213 352 213 352 194 352 c 128,-1,13
 175 352 175 352 169.5 352.5 c 128,-1,14
 164 353 164 353 151 354 c 128,-1,15
 138 355 138 355 130.5 356.5 c 128,-1,16
 123 358 123 358 112 360 c 0,17,18
 97 363 97 363 76 370 c 1,19,-1
 84 413 l 1,20,-1
 261 414 l 2,21,22
 332 414 332 414 342 475 c 2,23,-1
 346 498 l 2,24,25
 348 507 348 507 348 515 c 0,26,27
 348 565 348 565 289 567 c 2,28,-1
 148 572 l 1,29,-1
 156 620 l 1,30,-1
 299 626 l 2,31,32
 369 629 369 629 378 690 c 2,33,-1
 381 712 l 2,34,35
 382 721 382 721 382 734.5 c 128,-1,36
 382 748 382 748 371.5 760 c 128,-1,37
 361 772 361 772 322 772 c 2,38,-1
 136 772 l 1,39,-1
 143 815 l 1,40,41
 197 833 197 833 316 833 c 0,42,43
 327 833 327 833 340 833 c 0,44,45
 395 832 395 832 419.5 801.5 c 128,-1,46
 444 771 444 771 444 735 c 0,47,48
 444 726 444 726 443 716 c 2,49,-1
 437 681 l 2,50,51
 431 646 431 646 414.5 620.5 c 128,-1,52
 398 595 398 595 377 587 c 1,0,1
EndSplineSet
EndChar

StartChar: acute
Encoding: 180 180 117
Width: 242
GlyphClass: 2
Flags: W
LayerCount: 2
Fore
SplineSet
104 531 m 1,0,-1
 232 664 l 1,1,-1
 327 664 l 1,2,-1
 173 531 l 1,3,-1
 104 531 l 1,0,-1
EndSplineSet
Substitution2: "'smcp' Lowercase to Small Capitals lookup 1 subtable" acute.smcp
EndChar

StartChar: uni00B5
Encoding: 181 181 118
Width: 594
GlyphClass: 2
Flags: W
LayerCount: 2
Fore
SplineSet
187 138 m 0,0,1
 187 107 187 107 205.5 86 c 128,-1,2
 224 65 224 65 263 65 c 128,-1,3
 302 65 302 65 337 73 c 128,-1,4
 372 81 372 81 394 89.5 c 128,-1,5
 416 98 416 98 469 122 c 1,6,-1
 534 531 l 1,7,-1
 608 531 l 1,8,-1
 524 0 l 1,9,-1
 472 0 l 1,10,-1
 460 62 l 1,11,12
 411 29 411 29 336 4 c 0,13,14
 296 -9 296 -9 248 -9 c 128,-1,15
 200 -9 200 -9 166 16 c 1,16,-1
 121 -270 l 1,17,-1
 47 -270 l 1,18,-1
 174 531 l 1,19,-1
 248 531 l 1,20,-1
 189 161 l 2,21,22
 187 149 187 149 187 138 c 0,0,1
EndSplineSet
EndChar

StartChar: paragraph
Encoding: 182 182 119
Width: 581
GlyphClass: 2
Flags: W
LayerCount: 2
Fore
SplineSet
312 732 m 2,0,-1
 677 732 l 1,1,-1
 665 656 l 1,2,-1
 596 656 l 1,3,-1
 492 0 l 1,4,-1
 418 0 l 1,5,-1
 522 658 l 1,6,-1
 428 658 l 1,7,-1
 281 -270 l 1,8,-1
 207 -270 l 1,9,-1
 309 372 l 2,10,11
 308 372 308 372 300.5 368.5 c 128,-1,12
 293 365 293 365 286 362 c 0,13,14
 263 355 263 355 248 355 c 0,15,16
 173 355 173 355 141 400 c 0,17,18
 116 435 116 435 116 476 c 0,19,20
 116 487 116 487 118 499 c 2,21,-1
 132 592 l 2,22,23
 154 732 154 732 312 732 c 2,0,-1
191 482 m 0,24,25
 191 429 191 429 260 429 c 2,26,-1
 317 429 l 1,27,-1
 354 661 l 1,28,-1
 300 661 l 2,29,30
 217 661 217 661 207 590 c 1,31,-1
 193 501 l 2,32,33
 191 490 191 490 191 482 c 0,24,25
EndSplineSet
EndChar

StartChar: periodcentered
Encoding: 183 183 120
Width: 271
GlyphClass: 2
Flags: W
LayerCount: 2
Fore
SplineSet
177 436 m 2,0,-1
 230 436 l 2,1,2
 252 436 252 436 252 418 c 0,3,4
 252 415 252 415 251 411 c 2,5,-1
 242 354 l 2,6,7
 238 331 238 331 214 331 c 2,8,-1
 161 331 l 2,9,10
 137 331 137 331 140 354 c 2,11,-1
 149 411 l 2,12,13
 152 436 152 436 177 436 c 2,0,-1
EndSplineSet
Substitution2: "'smcp' Lowercase to Small Capitals lookup 1 subtable" periodcentered.smcp
EndChar

StartChar: cedilla
Encoding: 184 184 121
Width: 251
GlyphClass: 2
Flags: W
LayerCount: 2
Fore
SplineSet
73 -173 m 2,0,-1
 22 -173 l 1,1,-1
 28 -136 l 1,2,-1
 83 -121 l 1,3,4
 118 -107 118 -107 129 -37 c 1,5,-1
 196 -37 l 1,6,7
 184 -115 184 -115 158 -144 c 128,-1,8
 132 -173 132 -173 73 -173 c 2,0,-1
EndSplineSet
EndChar

StartChar: onesuperior
Encoding: 185 185 122
Width: 277
GlyphClass: 2
Flags: W
LayerCount: 2
Fore
SplineSet
115 725 m 1,0,-1
 122 767 l 1,1,2
 158 767 158 767 194 783.5 c 128,-1,3
 230 800 230 800 248 817 c 2,4,-1
 267 834 l 1,5,-1
 327 834 l 1,6,-1
 251 356 l 1,7,-1
 189 356 l 1,8,-1
 254 759 l 1,9,10
 210 725 210 725 115 725 c 1,0,-1
EndSplineSet
EndChar

StartChar: ordmasculine
Encoding: 186 186 123
Width: 388
GlyphClass: 3
Flags: W
LayerCount: 2
Fore
SplineSet
83 271 m 1,0,-1
 92 329 l 1,1,-1
 399 329 l 1,2,-1
 390 271 l 1,3,-1
 83 271 l 1,0,-1
426 697 m 0,4,5
 451 668 451 668 451 610 c 0,6,7
 451 583 451 583 446 550 c 0,8,9
 430 451 430 451 391.5 411.5 c 128,-1,10
 353 372 353 372 261 372 c 128,-1,11
 169 372 169 372 135 414 c 0,12,13
 111 444 111 444 111 498 c 0,14,15
 111 522 111 522 116 550 c 0,16,17
 133 656 133 656 171 696 c 0,18,19
 210 738 210 738 300.5 738 c 128,-1,20
 391 738 391 738 426 697 c 0,4,5
174 507.5 m 128,-1,22
 174 489 174 489 175.5 477 c 128,-1,23
 177 465 177 465 184.5 456.5 c 128,-1,24
 192 448 192 448 197 444 c 128,-1,25
 202 440 202 440 216 438 c 1,26,27
 234 434 234 434 261.5 434 c 128,-1,28
 289 434 289 434 302.5 435.5 c 128,-1,29
 316 437 316 437 335 447 c 0,30,31
 370 465 370 465 384 550 c 0,32,33
 390 588 390 588 390 607 c 128,-1,34
 390 626 390 626 386 638.5 c 128,-1,35
 382 651 382 651 377 658.5 c 128,-1,36
 372 666 372 666 358 670 c 0,37,38
 337 676 337 676 303.5 676 c 128,-1,39
 270 676 270 676 254 673.5 c 128,-1,40
 238 671 238 671 221 659 c 128,-1,41
 204 647 204 647 194.5 621 c 128,-1,42
 185 595 185 595 179.5 560.5 c 128,-1,21
 174 526 174 526 174 507.5 c 128,-1,22
EndSplineSet
Substitution2: "'smcp' Lowercase to Small Capitals lookup 1 subtable" ordmasculine.smcp
Ligature2: "'ordn' Ordinals lookup 0 subtable" o
EndChar

StartChar: guillemotright
Encoding: 187 187 124
Width: 553
GlyphClass: 2
Flags: W
LayerCount: 2
Fore
SplineSet
81 200 m 1,0,-1
 264 356 l 1,1,-1
 133 510 l 1,2,-1
 187 557 l 1,3,-1
 365 349 l 1,4,-1
 127 146 l 1,5,-1
 81 200 l 1,0,-1
275 200 m 1,6,-1
 458 356 l 1,7,-1
 327 510 l 1,8,-1
 381 557 l 1,9,-1
 559 349 l 1,10,-1
 321 146 l 1,11,-1
 275 200 l 1,6,-1
EndSplineSet
EndChar

StartChar: onequarter
Encoding: 188 188 125
Width: 903
GlyphClass: 3
Flags: W
LayerCount: 2
Fore
SplineSet
115 625 m 1,0,-1
 122 667 l 1,1,2
 158 667 158 667 194 683.5 c 128,-1,3
 230 700 230 700 248 717 c 2,4,-1
 267 734 l 1,5,-1
 327 734 l 1,6,-1
 251 256 l 1,7,-1
 189 256 l 1,8,-1
 254 659 l 1,9,10
 210 625 210 625 115 625 c 1,0,-1
172 0 m 1,11,-1
 760 770 l 1,12,-1
 821 770 l 1,13,-1
 233 0 l 1,14,-1
 172 0 l 1,11,-1
518 144 m 1,15,-1
 779 475 l 1,16,-1
 853 475 l 1,17,-1
 629 185 l 1,18,-1
 790 185 l 1,19,-1
 809 306 l 1,20,-1
 845 354 l 1,21,-1
 879 354 l 1,22,-1
 852 185 l 1,23,-1
 911 185 l 1,24,-1
 903 133 l 1,25,-1
 842 120 l 1,26,-1
 823 0 l 1,27,-1
 761 0 l 1,28,-1
 780 120 l 1,29,-1
 537 120 l 1,30,-1
 518 144 l 1,15,-1
EndSplineSet
Ligature2: "'frac' Diagonal Fractions lookup 7 subtable" one fraction four
Ligature2: "'frac' Diagonal Fractions lookup 7 subtable" one slash four
EndChar

StartChar: onehalf
Encoding: 189 189 126
Width: 984
GlyphClass: 3
Flags: W
LayerCount: 2
Fore
SplineSet
115 625 m 1,0,-1
 122 667 l 1,1,2
 158 667 158 667 194 683.5 c 128,-1,3
 230 700 230 700 248 717 c 2,4,-1
 267 734 l 1,5,-1
 327 734 l 1,6,-1
 251 256 l 1,7,-1
 189 256 l 1,8,-1
 254 659 l 1,9,10
 210 625 210 625 115 625 c 1,0,-1
161 0 m 1,11,-1
 749 770 l 1,12,-1
 810 770 l 1,13,-1
 222 0 l 1,14,-1
 161 0 l 1,11,-1
909.5 285.5 m 128,-1,16
 929 316 929 316 932 336 c 128,-1,17
 935 356 935 356 935 373 c 128,-1,18
 935 390 935 390 923.5 405 c 128,-1,19
 912 420 912 420 870 420 c 2,20,-1
 698 420 l 2,21,22
 695 420 695 420 702 456 c 1,23,-1
 705 467 l 1,24,25
 831 482 831 482 881.5 482 c 128,-1,26
 932 482 932 482 960 456 c 0,27,28
 1001 417 1001 417 1001 365 c 0,29,30
 1001 355 1001 355 999 346 c 0,31,32
 991 294 991 294 955.5 242 c 128,-1,33
 920 190 920 190 883.5 159 c 128,-1,34
 847 128 847 128 806.5 97.5 c 128,-1,35
 766 67 766 67 761 62 c 1,36,-1
 953 62 l 1,37,-1
 943 0 l 1,38,-1
 634 0 l 1,39,-1
 643 58 l 1,40,41
 651 64 651 64 688.5 89.5 c 128,-1,42
 726 115 726 115 749 131.5 c 128,-1,43
 772 148 772 148 808.5 178 c 128,-1,44
 845 208 845 208 867.5 231.5 c 128,-1,15
 890 255 890 255 909.5 285.5 c 128,-1,16
EndSplineSet
Ligature2: "'frac' Diagonal Fractions lookup 7 subtable" one fraction two
Ligature2: "'frac' Diagonal Fractions lookup 7 subtable" one slash two
EndChar

StartChar: threequarters
Encoding: 190 190 127
Width: 1018
GlyphClass: 3
Flags: W
LayerCount: 2
Fore
SplineSet
377 487 m 1,0,1
 409 464 409 464 409 416 c 0,2,3
 409 408 409 408 408 399 c 2,4,-1
 404 371 l 2,5,6
 395 313 395 313 363 282.5 c 128,-1,7
 331 252 331 252 263 252 c 0,8,9
 261 252 261 252 257.5 252 c 128,-1,10
 254 252 254 252 236 252 c 0,11,12
 213 252 213 252 194 252 c 128,-1,13
 175 252 175 252 169.5 252.5 c 128,-1,14
 164 253 164 253 151 254 c 128,-1,15
 138 255 138 255 130.5 256.5 c 128,-1,16
 123 258 123 258 112 260 c 0,17,18
 97 263 97 263 76 270 c 1,19,-1
 84 313 l 1,20,-1
 261 314 l 2,21,22
 332 314 332 314 342 375 c 2,23,-1
 346 398 l 2,24,25
 348 407 348 407 348 415 c 0,26,27
 348 465 348 465 289 467 c 2,28,-1
 148 472 l 1,29,-1
 156 520 l 1,30,-1
 299 526 l 2,31,32
 369 529 369 529 378 590 c 2,33,-1
 381 612 l 2,34,35
 382 621 382 621 382 634.5 c 128,-1,36
 382 648 382 648 371.5 660 c 128,-1,37
 361 672 361 672 322 672 c 2,38,-1
 136 672 l 1,39,-1
 143 715 l 1,40,41
 197 733 197 733 316 733 c 0,42,43
 327 733 327 733 340 733 c 0,44,45
 395 732 395 732 419.5 701.5 c 128,-1,46
 444 671 444 671 444 635 c 0,47,48
 444 626 444 626 443 616 c 2,49,-1
 437 581 l 2,50,51
 431 546 431 546 414.5 520.5 c 128,-1,52
 398 495 398 495 377 487 c 1,0,1
270 0 m 1,53,-1
 858 770 l 1,54,-1
 919 770 l 1,55,-1
 331 0 l 1,56,-1
 270 0 l 1,53,-1
603 144 m 1,57,-1
 864 475 l 1,58,-1
 937 475 l 1,59,-1
 713 185 l 1,60,-1
 875 185 l 1,61,-1
 894 306 l 1,62,-1
 930 354 l 1,63,-1
 964 354 l 1,64,-1
 937 185 l 1,65,-1
 995 185 l 1,66,-1
 987 133 l 1,67,-1
 927 120 l 1,68,-1
 908 0 l 1,69,-1
 845 0 l 1,70,-1
 865 120 l 1,71,-1
 621 120 l 1,72,-1
 603 144 l 1,57,-1
EndSplineSet
Ligature2: "'frac' Diagonal Fractions lookup 7 subtable" three fraction four
Ligature2: "'frac' Diagonal Fractions lookup 7 subtable" three slash four
EndChar

StartChar: questiondown
Encoding: 191 191 128
Width: 538
GlyphClass: 2
Flags: W
LayerCount: 2
Fore
SplineSet
292 -269 m 1,0,-1
 221 -272 l 2,1,2
 204 -272 204 -272 195 -270 c 1,3,4
 99 -270 99 -270 56 -216 c 0,5,6
 23 -175 23 -175 23 -120 c 0,7,8
 23 -103 23 -103 26 -85 c 2,9,-1
 42 16 l 2,10,11
 68 179 68 179 238 179 c 0,12,13
 271 179 271 179 310 173 c 1,14,-1
 318 222 l 1,15,16
 327 270 327 270 326 274 c 1,17,-1
 401 274 l 1,18,-1
 375 112 l 1,19,20
 328 113 328 113 292 113 c 128,-1,21
 256 113 256 113 223.5 111.5 c 128,-1,22
 191 110 191 110 157 86 c 128,-1,23
 123 62 123 62 115 16 c 2,24,-1
 99 -85 l 2,25,26
 96 -102 96 -102 96 -117 c 0,27,28
 96 -155 96 -155 119 -177 c 128,-1,29
 142 -199 142 -199 218 -199 c 2,30,-1
 489 -199 l 1,31,-1
 481 -250 l 1,32,33
 433 -257 433 -257 372 -263.5 c 128,-1,34
 311 -270 311 -270 300 -270 c 1,35,-1
 292 -269 l 1,0,-1
370 469 m 2,36,-1
 425 469 l 2,37,38
 449 469 449 469 446 446 c 2,39,-1
 437 389 l 2,40,41
 434 364 434 364 409 364 c 2,42,-1
 354 364 l 2,43,44
 334 364 334 364 334 382 c 0,45,46
 334 385 334 385 335 389 c 2,47,-1
 344 446 l 2,48,49
 347 469 347 469 370 469 c 2,36,-1
EndSplineSet
Substitution2: "'case' Case-Sensitive Forms lookup 18 subtable" questiondown.alt
Substitution2: "'smcp' Lowercase to Small Capitals lookup 1 subtable" questiondown.smcp
EndChar

StartChar: Agrave
Encoding: 192 192 129
Width: 660
GlyphClass: 2
Flags: W
LayerCount: 2
Fore
SplineSet
319 930 m 1,0,-1
 406 930 l 1,1,-1
 512 797 l 1,2,-1
 443 797 l 1,3,-1
 319 930 l 1,0,-1
45 0 m 1,4,-1
 430 732 l 1,5,-1
 504 732 l 1,6,-1
 645 0 l 1,7,-1
 570 0 l 1,8,-1
 531 204 l 1,9,-1
 234 204 l 1,10,-1
 126 0 l 1,11,-1
 45 0 l 1,4,-1
273 278 m 1,12,-1
 517 278 l 1,13,-1
 454 628 l 1,14,-1
 273 278 l 1,12,-1
EndSplineSet
Substitution2: "'c2sc' Capitals to Small Capitals in Latin lookup 2 subtable" agrave.smcp
EndChar

StartChar: Aacute
Encoding: 193 193 130
Width: 660
GlyphClass: 2
Flags: W
LayerCount: 2
Fore
SplineSet
443 797 m 1,0,-1
 571 930 l 1,1,-1
 666 930 l 1,2,-1
 512 797 l 1,3,-1
 443 797 l 1,0,-1
45 0 m 1,4,-1
 430 732 l 1,5,-1
 504 732 l 1,6,-1
 645 0 l 1,7,-1
 570 0 l 1,8,-1
 531 204 l 1,9,-1
 234 204 l 1,10,-1
 126 0 l 1,11,-1
 45 0 l 1,4,-1
273 278 m 1,12,-1
 517 278 l 1,13,-1
 454 628 l 1,14,-1
 273 278 l 1,12,-1
EndSplineSet
Substitution2: "'c2sc' Capitals to Small Capitals in Latin lookup 2 subtable" aacute.smcp
EndChar

StartChar: Acircumflex
Encoding: 194 194 131
Width: 660
GlyphClass: 2
Flags: W
LayerCount: 2
Fore
SplineSet
331 797 m 1,0,-1
 469 927 l 1,1,-1
 540 927 l 1,2,-1
 623 797 l 1,3,-1
 558 797 l 1,4,-1
 501 880 l 1,5,-1
 411 797 l 1,6,-1
 331 797 l 1,0,-1
45 0 m 1,7,-1
 430 732 l 1,8,-1
 504 732 l 1,9,-1
 645 0 l 1,10,-1
 570 0 l 1,11,-1
 531 204 l 1,12,-1
 234 204 l 1,13,-1
 126 0 l 1,14,-1
 45 0 l 1,7,-1
273 278 m 1,15,-1
 517 278 l 1,16,-1
 454 628 l 1,17,-1
 273 278 l 1,15,-1
EndSplineSet
Substitution2: "'c2sc' Capitals to Small Capitals in Latin lookup 2 subtable" acircumflex.smcp
EndChar

StartChar: Atilde
Encoding: 195 195 132
Width: 660
GlyphClass: 2
Flags: W
LayerCount: 2
Fore
SplineSet
516.5 876 m 128,-1,1
 531 868 531 868 537 868 c 128,-1,2
 543 868 543 868 548.5 868 c 128,-1,3
 554 868 554 868 578 876 c 0,4,5
 627 892 627 892 642 902 c 1,6,-1
 657 860 l 1,7,8
 648 854 648 854 627 839 c 0,9,10
 566 798 566 798 533 798 c 0,11,12
 497 798 497 798 473 816 c 0,13,14
 429 848 429 848 357 811 c 0,15,16
 335 800 335 800 329 797 c 1,17,-1
 314 838 l 1,18,19
 344 860 344 860 360 870 c 0,20,21
 407 902 407 902 435.5 901.5 c 128,-1,22
 464 901 464 901 483 892.5 c 128,-1,0
 502 884 502 884 516.5 876 c 128,-1,1
45 0 m 1,23,-1
 430 732 l 1,24,-1
 504 732 l 1,25,-1
 645 0 l 1,26,-1
 570 0 l 1,27,-1
 531 204 l 1,28,-1
 234 204 l 1,29,-1
 126 0 l 1,30,-1
 45 0 l 1,23,-1
273 278 m 1,31,-1
 517 278 l 1,32,-1
 454 628 l 1,33,-1
 273 278 l 1,31,-1
EndSplineSet
Substitution2: "'c2sc' Capitals to Small Capitals in Latin lookup 2 subtable" atilde.smcp
EndChar

StartChar: Adieresis
Encoding: 196 196 133
Width: 660
GlyphClass: 2
Flags: W
LayerCount: 2
Fore
SplineSet
366 898 m 128,-1,1
 387 898 387 898 398 885 c 128,-1,2
 409 872 409 872 409 862 c 128,-1,3
 409 852 409 852 408 843 c 128,-1,4
 407 834 407 834 398 822 c 0,5,6
 380 797 380 797 355 797 c 128,-1,7
 330 797 330 797 318.5 810.5 c 128,-1,8
 307 824 307 824 307 834 c 0,9,10
 307 866 307 866 326 882 c 128,-1,0
 345 898 345 898 366 898 c 128,-1,1
621 898 m 128,-1,12
 642 898 642 898 653 885 c 128,-1,13
 664 872 664 872 664 862 c 0,14,15
 664 830 664 830 645.5 813.5 c 128,-1,16
 627 797 627 797 606 797 c 128,-1,17
 585 797 585 797 573.5 810.5 c 128,-1,18
 562 824 562 824 562 834 c 0,19,20
 562 866 562 866 581 882 c 128,-1,11
 600 898 600 898 621 898 c 128,-1,12
45 0 m 1,21,-1
 430 732 l 1,22,-1
 504 732 l 1,23,-1
 645 0 l 1,24,-1
 570 0 l 1,25,-1
 531 204 l 1,26,-1
 234 204 l 1,27,-1
 126 0 l 1,28,-1
 45 0 l 1,21,-1
273 278 m 1,29,-1
 517 278 l 1,30,-1
 454 628 l 1,31,-1
 273 278 l 1,29,-1
EndSplineSet
Substitution2: "'c2sc' Capitals to Small Capitals in Latin lookup 2 subtable" adieresis.smcp
EndChar

StartChar: Aring
Encoding: 197 197 134
Width: 660
GlyphClass: 2
Flags: W
LayerCount: 2
Fore
SplineSet
494 935 m 128,-1,1
 452 935 452 935 417 903 c 128,-1,2
 382 871 382 871 382 822 c 0,3,4
 382 786 382 786 408 758 c 128,-1,5
 434 730 434 730 476 730 c 128,-1,6
 518 730 518 730 552 761.5 c 128,-1,7
 586 793 586 793 586 842 c 0,8,9
 586 879 586 879 561 907 c 128,-1,0
 536 935 536 935 494 935 c 128,-1,1
453 785.5 m 128,-1,11
 441 793 441 793 435 805 c 128,-1,12
 429 817 429 817 430.5 836 c 128,-1,13
 432 855 432 855 449.5 871 c 128,-1,14
 467 887 467 887 489.5 887 c 128,-1,15
 512 887 512 887 525.5 872 c 128,-1,16
 539 857 539 857 539 834.5 c 128,-1,17
 539 812 539 812 520 794 c 0,18,19
 503 778 503 778 484 778 c 128,-1,10
 465 778 465 778 453 785.5 c 128,-1,11
45 0 m 1,20,-1
 430 732 l 1,21,-1
 504 732 l 1,22,-1
 645 0 l 1,23,-1
 570 0 l 1,24,-1
 531 204 l 1,25,-1
 234 204 l 1,26,-1
 126 0 l 1,27,-1
 45 0 l 1,20,-1
273 278 m 1,28,-1
 517 278 l 1,29,-1
 454 628 l 1,30,-1
 273 278 l 1,28,-1
EndSplineSet
Substitution2: "'c2sc' Capitals to Small Capitals in Latin lookup 2 subtable" aring.smcp
EndChar

StartChar: AE
Encoding: 198 198 135
Width: 921
GlyphClass: 2
Flags: W
LayerCount: 2
Fore
SplineSet
622 733 m 1,0,-1
 672 732 l 1,1,-1
 989 716 l 1,2,-1
 980 657 l 1,3,-1
 660 657 l 2,4,5
 625 657 625 657 615 640 c 0,6,7
 606 626 606 626 602 604 c 2,8,-1
 569 397 l 1,9,-1
 897 387 l 1,10,-1
 888 328 l 1,11,-1
 556 318 l 1,12,-1
 525 121 l 2,13,14
 519 83 519 83 540 75 c 0,15,16
 555 69 555 69 580 69 c 2,17,-1
 887 69 l 1,18,-1
 877 12 l 1,19,-1
 567 -5 l 2,20,21
 562 -5 562 -5 558 -5 c 0,22,23
 509 -5 509 -5 479 21.5 c 128,-1,24
 449 48 449 48 449 94 c 0,25,26
 449 106 449 106 451 121 c 2,27,-1
 467 230 l 1,28,-1
 266 230 l 1,29,-1
 115 0 l 1,30,-1
 30 0 l 1,31,-1
 424 604 l 2,32,33
 450 644 450 644 477 671 c 128,-1,34
 504 698 504 698 523.5 707.5 c 128,-1,35
 543 717 543 717 552 722 c 0,36,37
 571 733 571 733 622 733 c 1,0,-1
313 304 m 1,38,-1
 480 304 l 1,39,-1
 536 640 l 1,40,-1
 313 304 l 1,38,-1
EndSplineSet
EndChar

StartChar: Ccedilla
Encoding: 199 199 136
Width: 578
GlyphClass: 2
Flags: W
LayerCount: 2
Fore
SplineSet
291 716 m 128,-1,1
 343 740 343 740 421 740 c 128,-1,2
 499 740 499 740 656 710 c 1,3,-1
 647 651 l 1,4,5
 533 666 533 666 431 666 c 0,6,7
 358 666 358 666 343 658.5 c 128,-1,8
 328 651 328 651 310.5 640.5 c 128,-1,9
 293 630 293 630 282.5 616 c 128,-1,10
 272 602 272 602 256.5 579 c 128,-1,11
 241 556 241 556 230 526 c 0,12,13
 206 457 206 457 193.5 380 c 128,-1,14
 181 303 181 303 181 268.5 c 128,-1,15
 181 234 181 234 182 218 c 0,16,17
 186 154 186 154 217.5 113 c 128,-1,18
 249 72 249 72 306 68 c 0,19,20
 326 67 326 67 377 67 c 128,-1,21
 428 67 428 67 559 76 c 1,22,-1
 551 17 l 1,23,24
 466 -6 466 -6 302 -6 c 0,25,26
 247 -6 247 -6 207.5 17 c 128,-1,27
 168 40 168 40 146 76 c 1,28,29
 105 147 105 147 105 255 c 0,30,31
 105 307 105 307 118 384.5 c 128,-1,32
 131 462 131 462 151 526 c 128,-1,33
 171 590 171 590 205 641 c 128,-1,0
 239 692 239 692 291 716 c 128,-1,1
240 -173 m 2,34,-1
 189 -173 l 1,35,-1
 195 -136 l 1,36,-1
 250 -121 l 2,37,38
 284 -112 284 -112 296 -37 c 1,39,-1
 363 -37 l 1,40,41
 351 -115 351 -115 325 -144 c 128,-1,42
 299 -173 299 -173 240 -173 c 2,34,-1
EndSplineSet
Substitution2: "'c2sc' Capitals to Small Capitals in Latin lookup 2 subtable" ccedilla.smcp
EndChar

StartChar: Egrave
Encoding: 200 200 137
Width: 567
GlyphClass: 2
Flags: W
LayerCount: 2
Fore
SplineSet
279 925 m 1,0,-1
 366 925 l 1,1,-1
 472 792 l 1,2,-1
 403 792 l 1,3,-1
 279 925 l 1,0,-1
309 732 m 0,4,5
 315 732 315 732 321 732 c 2,6,-1
 635 716 l 1,7,-1
 626 658 l 1,8,-1
 309 658 l 2,9,10
 277 658 277 658 264.5 643 c 128,-1,11
 252 628 252 628 248 602 c 2,12,-1
 216 402 l 1,13,-1
 544 392 l 1,14,-1
 534 333 l 1,15,-1
 204 323 l 1,16,-1
 172 123 l 1,17,18
 168 84 168 84 186 77 c 0,19,20
 202 71 202 71 227 71 c 2,21,-1
 534 71 l 1,22,-1
 524 14 l 1,23,-1
 214 -3 l 2,24,25
 209 -3 209 -3 205 -3 c 0,26,27
 156 -3 156 -3 126 23.5 c 128,-1,28
 96 50 96 50 96 96 c 0,29,30
 96 108 96 108 98 123 c 2,31,-1
 174 602 l 2,32,33
 195 732 195 732 309 732 c 0,4,5
EndSplineSet
Substitution2: "'c2sc' Capitals to Small Capitals in Latin lookup 2 subtable" egrave.smcp
EndChar

StartChar: Eacute
Encoding: 201 201 138
Width: 567
GlyphClass: 2
Flags: W
LayerCount: 2
Fore
SplineSet
398 792 m 1,0,-1
 526 925 l 1,1,-1
 621 925 l 1,2,-1
 467 792 l 1,3,-1
 398 792 l 1,0,-1
309 732 m 0,4,5
 315 732 315 732 321 732 c 2,6,-1
 635 716 l 1,7,-1
 626 658 l 1,8,-1
 309 658 l 2,9,10
 277 658 277 658 264.5 643 c 128,-1,11
 252 628 252 628 248 602 c 2,12,-1
 216 402 l 1,13,-1
 544 392 l 1,14,-1
 534 333 l 1,15,-1
 204 323 l 1,16,-1
 172 123 l 1,17,18
 168 84 168 84 186 77 c 0,19,20
 202 71 202 71 227 71 c 2,21,-1
 534 71 l 1,22,-1
 524 14 l 1,23,-1
 214 -3 l 2,24,25
 209 -3 209 -3 205 -3 c 0,26,27
 156 -3 156 -3 126 23.5 c 128,-1,28
 96 50 96 50 96 96 c 0,29,30
 96 108 96 108 98 123 c 2,31,-1
 174 602 l 2,32,33
 195 732 195 732 309 732 c 0,4,5
EndSplineSet
Substitution2: "'c2sc' Capitals to Small Capitals in Latin lookup 2 subtable" eacute.smcp
EndChar

StartChar: Ecircumflex
Encoding: 202 202 139
Width: 567
GlyphClass: 2
Flags: W
LayerCount: 2
Fore
SplineSet
285 792 m 1,0,-1
 423 923 l 1,1,-1
 494 923 l 1,2,-1
 577 792 l 1,3,-1
 508 792 l 1,4,-1
 456 872 l 1,5,-1
 369 792 l 1,6,-1
 285 792 l 1,0,-1
309 732 m 0,7,8
 315 732 315 732 321 732 c 2,9,-1
 635 716 l 1,10,-1
 626 658 l 1,11,-1
 309 658 l 2,12,13
 277 658 277 658 264.5 643 c 128,-1,14
 252 628 252 628 248 602 c 2,15,-1
 216 402 l 1,16,-1
 544 392 l 1,17,-1
 534 333 l 1,18,-1
 204 323 l 1,19,-1
 172 123 l 1,20,21
 168 84 168 84 186 77 c 0,22,23
 202 71 202 71 227 71 c 2,24,-1
 534 71 l 1,25,-1
 524 14 l 1,26,-1
 214 -3 l 2,27,28
 209 -3 209 -3 205 -3 c 0,29,30
 156 -3 156 -3 126 23.5 c 128,-1,31
 96 50 96 50 96 96 c 0,32,33
 96 108 96 108 98 123 c 2,34,-1
 174 602 l 2,35,36
 195 732 195 732 309 732 c 0,7,8
EndSplineSet
Substitution2: "'c2sc' Capitals to Small Capitals in Latin lookup 2 subtable" ecircumflex.smcp
EndChar

StartChar: Edieresis
Encoding: 203 203 140
Width: 567
GlyphClass: 2
Flags: W
LayerCount: 2
Fore
SplineSet
313 893 m 128,-1,1
 334 893 334 893 345 880 c 128,-1,2
 356 867 356 867 356 857 c 0,3,4
 356 825 356 825 337 808.5 c 128,-1,5
 318 792 318 792 297 792 c 128,-1,6
 276 792 276 792 264.5 805.5 c 128,-1,7
 253 819 253 819 253 829 c 0,8,9
 253 861 253 861 272.5 877 c 128,-1,0
 292 893 292 893 313 893 c 128,-1,1
568 893 m 128,-1,11
 589 893 589 893 600 880 c 128,-1,12
 611 867 611 867 611 857 c 0,13,14
 611 825 611 825 592 808.5 c 128,-1,15
 573 792 573 792 552 792 c 128,-1,16
 531 792 531 792 519.5 805.5 c 128,-1,17
 508 819 508 819 508 829 c 0,18,19
 508 861 508 861 527.5 877 c 128,-1,10
 547 893 547 893 568 893 c 128,-1,11
309 732 m 0,20,21
 315 732 315 732 321 732 c 2,22,-1
 635 716 l 1,23,-1
 626 658 l 1,24,-1
 309 658 l 2,25,26
 277 658 277 658 264.5 643 c 128,-1,27
 252 628 252 628 248 602 c 2,28,-1
 216 402 l 1,29,-1
 544 392 l 1,30,-1
 534 333 l 1,31,-1
 204 323 l 1,32,-1
 172 123 l 1,33,34
 168 84 168 84 186 77 c 0,35,36
 202 71 202 71 227 71 c 2,37,-1
 534 71 l 1,38,-1
 524 14 l 1,39,-1
 214 -3 l 2,40,41
 209 -3 209 -3 205 -3 c 0,42,43
 156 -3 156 -3 126 23.5 c 128,-1,44
 96 50 96 50 96 96 c 0,45,46
 96 108 96 108 98 123 c 2,47,-1
 174 602 l 2,48,49
 195 732 195 732 309 732 c 0,20,21
EndSplineSet
Substitution2: "'c2sc' Capitals to Small Capitals in Latin lookup 2 subtable" edieresis.smcp
EndChar

StartChar: Igrave
Encoding: 204 204 141
Width: 225
GlyphClass: 2
Flags: W
LayerCount: 2
Fore
SplineSet
95 930 m 1,0,-1
 182 930 l 1,1,-1
 288 797 l 1,2,-1
 219 797 l 1,3,-1
 95 930 l 1,0,-1
90 0 m 1,4,-1
 206 732 l 1,5,-1
 280 732 l 1,6,-1
 164 0 l 1,7,-1
 90 0 l 1,4,-1
EndSplineSet
Substitution2: "'c2sc' Capitals to Small Capitals in Latin lookup 2 subtable" igrave.smcp
EndChar

StartChar: Iacute
Encoding: 205 205 142
Width: 225
GlyphClass: 2
Flags: W
LayerCount: 2
Fore
SplineSet
219 797 m 1,0,-1
 347 930 l 1,1,-1
 442 930 l 1,2,-1
 288 797 l 1,3,-1
 219 797 l 1,0,-1
90 0 m 1,4,-1
 206 732 l 1,5,-1
 280 732 l 1,6,-1
 164 0 l 1,7,-1
 90 0 l 1,4,-1
EndSplineSet
Substitution2: "'c2sc' Capitals to Small Capitals in Latin lookup 2 subtable" iacute.smcp
EndChar

StartChar: Icircumflex
Encoding: 206 206 143
Width: 225
GlyphClass: 2
Flags: W
LayerCount: 2
Fore
SplineSet
107 797 m 1,0,-1
 245 927 l 1,1,-1
 316 927 l 1,2,-1
 399 797 l 1,3,-1
 334 797 l 1,4,-1
 277 880 l 1,5,-1
 187 797 l 1,6,-1
 107 797 l 1,0,-1
90 0 m 1,7,-1
 206 732 l 1,8,-1
 280 732 l 1,9,-1
 164 0 l 1,10,-1
 90 0 l 1,7,-1
EndSplineSet
Substitution2: "'c2sc' Capitals to Small Capitals in Latin lookup 2 subtable" icircumflex.smcp
EndChar

StartChar: Idieresis
Encoding: 207 207 144
Width: 225
GlyphClass: 2
Flags: W
LayerCount: 2
Fore
SplineSet
142 898 m 128,-1,1
 163 898 163 898 174 885 c 128,-1,2
 185 872 185 872 185 862 c 128,-1,3
 185 852 185 852 184 845 c 128,-1,4
 183 838 183 838 177.5 828.5 c 128,-1,5
 172 819 172 819 165 812 c 0,6,7
 148 797 148 797 127 797 c 128,-1,8
 106 797 106 797 94.5 810.5 c 128,-1,9
 83 824 83 824 83 834 c 0,10,11
 83 866 83 866 102 882 c 128,-1,0
 121 898 121 898 142 898 c 128,-1,1
397 898 m 128,-1,13
 418 898 418 898 429 885 c 128,-1,14
 440 872 440 872 440 862 c 0,15,16
 440 830 440 830 421.5 813.5 c 128,-1,17
 403 797 403 797 382 797 c 128,-1,18
 361 797 361 797 349.5 810.5 c 128,-1,19
 338 824 338 824 338 834 c 0,20,21
 338 866 338 866 357 882 c 128,-1,12
 376 898 376 898 397 898 c 128,-1,13
90 0 m 1,22,-1
 206 732 l 1,23,-1
 280 732 l 1,24,-1
 164 0 l 1,25,-1
 90 0 l 1,22,-1
EndSplineSet
Substitution2: "'c2sc' Capitals to Small Capitals in Latin lookup 2 subtable" idieresis.smcp
EndChar

StartChar: Eth
Encoding: 208 208 145
Width: 668
GlyphClass: 2
Flags: W
LayerCount: 2
Fore
SplineSet
468 732 m 0,0,1
 532 732 532 732 577 705 c 128,-1,2
 622 678 622 678 644 638 c 0,3,4
 681 569 681 569 681 462 c 0,5,6
 681 414 681 414 671 363 c 1,7,8
 608 0 608 0 352 0 c 2,9,-1
 79 0 l 1,10,-1
 134 346 l 1,11,-1
 69 346 l 1,12,-1
 78 400 l 1,13,-1
 143 400 l 1,14,-1
 195 731 l 2,15,16
 195 732 195 732 468 732 c 0,0,1
364 77 m 2,17,18
 456 77 456 77 516 159.5 c 128,-1,19
 576 242 576 242 596 364 c 0,20,21
 606 426 606 426 606 485 c 128,-1,22
 606 544 606 544 586 586 c 0,23,24
 551 658 551 658 456 658 c 2,25,-1
 257 658 l 1,26,-1
 217 400 l 1,27,-1
 356 400 l 1,28,-1
 347 346 l 1,29,-1
 208 346 l 1,30,-1
 165 77 l 1,31,-1
 364 77 l 2,17,18
EndSplineSet
Substitution2: "'c2sc' Capitals to Small Capitals in Latin lookup 2 subtable" eth.smcp
EndChar

StartChar: Ntilde
Encoding: 209 209 146
Width: 660
GlyphClass: 2
Flags: W
LayerCount: 2
Fore
SplineSet
481 879 m 128,-1,1
 511 863 511 863 517.5 863 c 128,-1,2
 524 863 524 863 532.5 863 c 128,-1,3
 541 863 541 863 578 877.5 c 128,-1,4
 615 892 615 892 623 897 c 1,5,-1
 638 855 l 1,6,7
 629 849 629 849 607.5 834.5 c 128,-1,8
 586 820 586 820 574 813 c 0,9,10
 513 776 513 776 454 810 c 0,11,12
 426 827 426 827 408 827 c 128,-1,13
 390 827 390 827 374.5 822 c 128,-1,14
 359 817 359 817 337.5 806 c 128,-1,15
 316 795 316 795 310 792 c 1,16,-1
 295 833 l 1,17,18
 325 855 325 855 340 866 c 0,19,20
 387 897 387 897 423 897 c 1,21,0
 451 895 451 895 481 879 c 128,-1,1
80 0 m 1,22,-1
 196 732 l 1,23,-1
 268 732 l 1,24,-1
 547 138 l 1,25,-1
 641 732 l 1,26,-1
 715 732 l 1,27,-1
 599 0 l 1,28,-1
 529 0 l 1,29,-1
 249 594 l 1,30,-1
 155 0 l 1,31,-1
 80 0 l 1,22,-1
EndSplineSet
AlternateSubs2: "'salt' Stylistic Alternatives in Latin lookup 16 subtable" Ntilde.salt
Substitution2: "'c2sc' Capitals to Small Capitals in Latin lookup 2 subtable" ntilde.smcp
EndChar

StartChar: Ograve
Encoding: 210 210 147
Width: 667
GlyphClass: 2
Flags: W
LayerCount: 2
Fore
SplineSet
299 930 m 1,0,-1
 386 930 l 1,1,-1
 492 797 l 1,2,-1
 423 797 l 1,3,-1
 299 930 l 1,0,-1
350.5 731 m 128,-1,5
 389 737 389 737 438.5 737 c 128,-1,6
 488 737 488 737 518.5 733.5 c 128,-1,7
 549 730 549 730 579 720 c 128,-1,8
 609 710 609 710 629 693 c 0,9,10
 675 653 675 653 688 580 c 1,11,12
 693 546 693 546 693 519.5 c 128,-1,13
 693 493 693 493 692.5 462 c 128,-1,14
 692 431 692 431 680.5 356 c 128,-1,15
 669 281 669 281 652 222 c 128,-1,16
 635 163 635 163 611.5 123 c 128,-1,17
 588 83 588 83 562.5 57.5 c 128,-1,18
 537 32 537 32 502 18 c 1,19,20
 442 -4 442 -4 350 -4 c 0,21,22
 223 -4 223 -4 172 34 c 0,23,24
 124 71 124 71 110 143 c 0,25,26
 103 177 103 177 103 203.5 c 128,-1,27
 103 230 103 230 103.5 260.5 c 128,-1,28
 104 291 104 291 117.5 376.5 c 128,-1,29
 131 462 131 462 154.5 531.5 c 128,-1,30
 178 601 178 601 204.5 641.5 c 128,-1,31
 231 682 231 682 271.5 703.5 c 128,-1,4
 312 725 312 725 350.5 731 c 128,-1,5
211.5 471.5 m 128,-1,33
 199 424 199 424 188 354 c 128,-1,34
 177 284 177 284 176.5 256.5 c 128,-1,35
 176 229 176 229 176 203.5 c 128,-1,36
 176 178 176 178 185 146.5 c 128,-1,37
 194 115 194 115 218.5 98 c 128,-1,38
 243 81 243 81 273 75.5 c 128,-1,39
 303 70 303 70 356.5 70 c 128,-1,40
 410 70 410 70 447 80.5 c 128,-1,41
 484 91 484 91 517 122 c 0,42,43
 580 181 580 181 607 361 c 0,44,45
 620 441 620 441 620 495.5 c 128,-1,46
 620 550 620 550 613.5 572.5 c 128,-1,47
 607 595 607 595 600.5 610 c 128,-1,48
 594 625 594 625 579.5 635.5 c 128,-1,49
 565 646 565 646 554 651.5 c 128,-1,50
 543 657 543 657 522 660 c 0,51,52
 491 663 491 663 450.5 663 c 128,-1,53
 410 663 410 663 391.5 662 c 128,-1,54
 373 661 373 661 345.5 655.5 c 128,-1,55
 318 650 318 650 303 638.5 c 128,-1,56
 288 627 288 627 268.5 605.5 c 128,-1,57
 249 584 249 584 236.5 551.5 c 128,-1,32
 224 519 224 519 211.5 471.5 c 128,-1,33
EndSplineSet
Substitution2: "'c2sc' Capitals to Small Capitals in Latin lookup 2 subtable" ograve.smcp
EndChar

StartChar: Oacute
Encoding: 211 211 148
Width: 667
GlyphClass: 2
Flags: W
LayerCount: 2
Fore
SplineSet
423 797 m 1,0,-1
 551 930 l 1,1,-1
 646 930 l 1,2,-1
 492 797 l 1,3,-1
 423 797 l 1,0,-1
350.5 731 m 128,-1,5
 389 737 389 737 438.5 737 c 128,-1,6
 488 737 488 737 518.5 733.5 c 128,-1,7
 549 730 549 730 579 720 c 128,-1,8
 609 710 609 710 629 693 c 0,9,10
 675 653 675 653 688 580 c 1,11,12
 693 546 693 546 693 519.5 c 128,-1,13
 693 493 693 493 692.5 462 c 128,-1,14
 692 431 692 431 680.5 356 c 128,-1,15
 669 281 669 281 652 222 c 128,-1,16
 635 163 635 163 611.5 123 c 128,-1,17
 588 83 588 83 562.5 57.5 c 128,-1,18
 537 32 537 32 502 18 c 1,19,20
 442 -4 442 -4 350 -4 c 0,21,22
 223 -4 223 -4 172 34 c 0,23,24
 124 71 124 71 110 143 c 0,25,26
 103 177 103 177 103 203.5 c 128,-1,27
 103 230 103 230 103.5 260.5 c 128,-1,28
 104 291 104 291 117.5 376.5 c 128,-1,29
 131 462 131 462 154.5 531.5 c 128,-1,30
 178 601 178 601 204.5 641.5 c 128,-1,31
 231 682 231 682 271.5 703.5 c 128,-1,4
 312 725 312 725 350.5 731 c 128,-1,5
211.5 471.5 m 128,-1,33
 199 424 199 424 188 354 c 128,-1,34
 177 284 177 284 176.5 256.5 c 128,-1,35
 176 229 176 229 176 203.5 c 128,-1,36
 176 178 176 178 185 146.5 c 128,-1,37
 194 115 194 115 218.5 98 c 128,-1,38
 243 81 243 81 273 75.5 c 128,-1,39
 303 70 303 70 356.5 70 c 128,-1,40
 410 70 410 70 447 80.5 c 128,-1,41
 484 91 484 91 517 122 c 0,42,43
 580 181 580 181 607 361 c 0,44,45
 620 441 620 441 620 495.5 c 128,-1,46
 620 550 620 550 613.5 572.5 c 128,-1,47
 607 595 607 595 600.5 610 c 128,-1,48
 594 625 594 625 579.5 635.5 c 128,-1,49
 565 646 565 646 554 651.5 c 128,-1,50
 543 657 543 657 522 660 c 0,51,52
 491 663 491 663 450.5 663 c 128,-1,53
 410 663 410 663 391.5 662 c 128,-1,54
 373 661 373 661 345.5 655.5 c 128,-1,55
 318 650 318 650 303 638.5 c 128,-1,56
 288 627 288 627 268.5 605.5 c 128,-1,57
 249 584 249 584 236.5 551.5 c 128,-1,32
 224 519 224 519 211.5 471.5 c 128,-1,33
EndSplineSet
Substitution2: "'c2sc' Capitals to Small Capitals in Latin lookup 2 subtable" oacute.smcp
EndChar

StartChar: Ocircumflex
Encoding: 212 212 149
Width: 667
GlyphClass: 2
Flags: W
LayerCount: 2
Fore
SplineSet
312 797 m 1,0,-1
 450 927 l 1,1,-1
 521 927 l 1,2,-1
 604 797 l 1,3,-1
 539 797 l 1,4,-1
 482 880 l 1,5,-1
 392 797 l 1,6,-1
 312 797 l 1,0,-1
350.5 731 m 128,-1,8
 389 737 389 737 438.5 737 c 128,-1,9
 488 737 488 737 518.5 733.5 c 128,-1,10
 549 730 549 730 579 720 c 128,-1,11
 609 710 609 710 629 693 c 0,12,13
 675 653 675 653 688 580 c 1,14,15
 693 546 693 546 693 519.5 c 128,-1,16
 693 493 693 493 692.5 462 c 128,-1,17
 692 431 692 431 680.5 356 c 128,-1,18
 669 281 669 281 652 222 c 128,-1,19
 635 163 635 163 611.5 123 c 128,-1,20
 588 83 588 83 562.5 57.5 c 128,-1,21
 537 32 537 32 502 18 c 1,22,23
 442 -4 442 -4 350 -4 c 0,24,25
 223 -4 223 -4 172 34 c 0,26,27
 124 71 124 71 110 143 c 0,28,29
 103 177 103 177 103 203.5 c 128,-1,30
 103 230 103 230 103.5 260.5 c 128,-1,31
 104 291 104 291 117.5 376.5 c 128,-1,32
 131 462 131 462 154.5 531.5 c 128,-1,33
 178 601 178 601 204.5 641.5 c 128,-1,34
 231 682 231 682 271.5 703.5 c 128,-1,7
 312 725 312 725 350.5 731 c 128,-1,8
211.5 471.5 m 128,-1,36
 199 424 199 424 188 354 c 128,-1,37
 177 284 177 284 176.5 256.5 c 128,-1,38
 176 229 176 229 176 203.5 c 128,-1,39
 176 178 176 178 185 146.5 c 128,-1,40
 194 115 194 115 218.5 98 c 128,-1,41
 243 81 243 81 273 75.5 c 128,-1,42
 303 70 303 70 356.5 70 c 128,-1,43
 410 70 410 70 447 80.5 c 128,-1,44
 484 91 484 91 517 122 c 0,45,46
 580 181 580 181 607 361 c 0,47,48
 620 441 620 441 620 495.5 c 128,-1,49
 620 550 620 550 613.5 572.5 c 128,-1,50
 607 595 607 595 600.5 610 c 128,-1,51
 594 625 594 625 579.5 635.5 c 128,-1,52
 565 646 565 646 554 651.5 c 128,-1,53
 543 657 543 657 522 660 c 0,54,55
 491 663 491 663 450.5 663 c 128,-1,56
 410 663 410 663 391.5 662 c 128,-1,57
 373 661 373 661 345.5 655.5 c 128,-1,58
 318 650 318 650 303 638.5 c 128,-1,59
 288 627 288 627 268.5 605.5 c 128,-1,60
 249 584 249 584 236.5 551.5 c 128,-1,35
 224 519 224 519 211.5 471.5 c 128,-1,36
EndSplineSet
Substitution2: "'c2sc' Capitals to Small Capitals in Latin lookup 2 subtable" ocircumflex.smcp
EndChar

StartChar: Otilde
Encoding: 213 213 150
Width: 667
GlyphClass: 2
Flags: W
LayerCount: 2
Fore
SplineSet
480.5 884 m 128,-1,1
 511 868 511 868 517 868 c 128,-1,2
 523 868 523 868 529 868 c 128,-1,3
 535 868 535 868 558 876 c 0,4,5
 607 892 607 892 622 902 c 1,6,-1
 637 860 l 1,7,8
 628 854 628 854 607 839 c 0,9,10
 546 798 546 798 513 798 c 0,11,12
 477 798 477 798 453 816 c 0,13,14
 409 848 409 848 337 811 c 0,15,16
 316 800 316 800 309 797 c 1,17,-1
 294 838 l 1,18,19
 324 860 324 860 340 870 c 0,20,21
 387 902 387 902 418.5 901 c 128,-1,0
 450 900 450 900 480.5 884 c 128,-1,1
350.5 731 m 128,-1,23
 389 737 389 737 438.5 737 c 128,-1,24
 488 737 488 737 518.5 733.5 c 128,-1,25
 549 730 549 730 579 720 c 128,-1,26
 609 710 609 710 629 693 c 0,27,28
 675 653 675 653 688 580 c 1,29,30
 693 546 693 546 693 519.5 c 128,-1,31
 693 493 693 493 692.5 462 c 128,-1,32
 692 431 692 431 680.5 356 c 128,-1,33
 669 281 669 281 652 222 c 128,-1,34
 635 163 635 163 611.5 123 c 128,-1,35
 588 83 588 83 562.5 57.5 c 128,-1,36
 537 32 537 32 502 18 c 1,37,38
 442 -4 442 -4 350 -4 c 0,39,40
 223 -4 223 -4 172 34 c 0,41,42
 124 71 124 71 110 143 c 0,43,44
 103 177 103 177 103 203.5 c 128,-1,45
 103 230 103 230 103.5 260.5 c 128,-1,46
 104 291 104 291 117.5 376.5 c 128,-1,47
 131 462 131 462 154.5 531.5 c 128,-1,48
 178 601 178 601 204.5 641.5 c 128,-1,49
 231 682 231 682 271.5 703.5 c 128,-1,22
 312 725 312 725 350.5 731 c 128,-1,23
211.5 471.5 m 128,-1,51
 199 424 199 424 188 354 c 128,-1,52
 177 284 177 284 176.5 256.5 c 128,-1,53
 176 229 176 229 176 203.5 c 128,-1,54
 176 178 176 178 185 146.5 c 128,-1,55
 194 115 194 115 218.5 98 c 128,-1,56
 243 81 243 81 273 75.5 c 128,-1,57
 303 70 303 70 356.5 70 c 128,-1,58
 410 70 410 70 447 80.5 c 128,-1,59
 484 91 484 91 517 122 c 0,60,61
 580 181 580 181 607 361 c 0,62,63
 620 441 620 441 620 495.5 c 128,-1,64
 620 550 620 550 613.5 572.5 c 128,-1,65
 607 595 607 595 600.5 610 c 128,-1,66
 594 625 594 625 579.5 635.5 c 128,-1,67
 565 646 565 646 554 651.5 c 128,-1,68
 543 657 543 657 522 660 c 0,69,70
 491 663 491 663 450.5 663 c 128,-1,71
 410 663 410 663 391.5 662 c 128,-1,72
 373 661 373 661 345.5 655.5 c 128,-1,73
 318 650 318 650 303 638.5 c 128,-1,74
 288 627 288 627 268.5 605.5 c 128,-1,75
 249 584 249 584 236.5 551.5 c 128,-1,50
 224 519 224 519 211.5 471.5 c 128,-1,51
EndSplineSet
Substitution2: "'c2sc' Capitals to Small Capitals in Latin lookup 2 subtable" otilde.smcp
EndChar

StartChar: Odieresis
Encoding: 214 214 151
Width: 667
GlyphClass: 2
Flags: W
LayerCount: 2
Fore
SplineSet
347 898 m 128,-1,1
 368 898 368 898 378.5 885 c 128,-1,2
 389 872 389 872 389 862 c 128,-1,3
 389 852 389 852 388 843 c 128,-1,4
 387 834 387 834 378 822 c 0,5,6
 360 797 360 797 335 797 c 128,-1,7
 310 797 310 797 298.5 810.5 c 128,-1,8
 287 824 287 824 287 834 c 0,9,10
 287 866 287 866 306.5 882 c 128,-1,0
 326 898 326 898 347 898 c 128,-1,1
602 898 m 128,-1,12
 623 898 623 898 633.5 885 c 128,-1,13
 644 872 644 872 644 862 c 0,14,15
 644 830 644 830 625.5 813.5 c 128,-1,16
 607 797 607 797 586 797 c 128,-1,17
 565 797 565 797 553.5 810.5 c 128,-1,18
 542 824 542 824 542 834 c 0,19,20
 542 866 542 866 561.5 882 c 128,-1,11
 581 898 581 898 602 898 c 128,-1,12
350.5 731 m 128,-1,22
 389 737 389 737 438.5 737 c 128,-1,23
 488 737 488 737 518.5 733.5 c 128,-1,24
 549 730 549 730 579 720 c 128,-1,25
 609 710 609 710 629 693 c 0,26,27
 675 653 675 653 688 580 c 1,28,29
 693 546 693 546 693 519.5 c 128,-1,30
 693 493 693 493 692.5 462 c 128,-1,31
 692 431 692 431 680.5 356 c 128,-1,32
 669 281 669 281 652 222 c 128,-1,33
 635 163 635 163 611.5 123 c 128,-1,34
 588 83 588 83 562.5 57.5 c 128,-1,35
 537 32 537 32 502 18 c 1,36,37
 442 -4 442 -4 350 -4 c 0,38,39
 223 -4 223 -4 172 34 c 0,40,41
 124 71 124 71 110 143 c 0,42,43
 103 177 103 177 103 203.5 c 128,-1,44
 103 230 103 230 103.5 260.5 c 128,-1,45
 104 291 104 291 117.5 376.5 c 128,-1,46
 131 462 131 462 154.5 531.5 c 128,-1,47
 178 601 178 601 204.5 641.5 c 128,-1,48
 231 682 231 682 271.5 703.5 c 128,-1,21
 312 725 312 725 350.5 731 c 128,-1,22
211.5 471.5 m 128,-1,50
 199 424 199 424 188 354 c 128,-1,51
 177 284 177 284 176.5 256.5 c 128,-1,52
 176 229 176 229 176 203.5 c 128,-1,53
 176 178 176 178 185 146.5 c 128,-1,54
 194 115 194 115 218.5 98 c 128,-1,55
 243 81 243 81 273 75.5 c 128,-1,56
 303 70 303 70 356.5 70 c 128,-1,57
 410 70 410 70 447 80.5 c 128,-1,58
 484 91 484 91 517 122 c 0,59,60
 580 181 580 181 607 361 c 0,61,62
 620 441 620 441 620 495.5 c 128,-1,63
 620 550 620 550 613.5 572.5 c 128,-1,64
 607 595 607 595 600.5 610 c 128,-1,65
 594 625 594 625 579.5 635.5 c 128,-1,66
 565 646 565 646 554 651.5 c 128,-1,67
 543 657 543 657 522 660 c 0,68,69
 491 663 491 663 450.5 663 c 128,-1,70
 410 663 410 663 391.5 662 c 128,-1,71
 373 661 373 661 345.5 655.5 c 128,-1,72
 318 650 318 650 303 638.5 c 128,-1,73
 288 627 288 627 268.5 605.5 c 128,-1,74
 249 584 249 584 236.5 551.5 c 128,-1,49
 224 519 224 519 211.5 471.5 c 128,-1,50
EndSplineSet
Substitution2: "'c2sc' Capitals to Small Capitals in Latin lookup 2 subtable" odieresis.smcp
EndChar

StartChar: multiply
Encoding: 215 215 152
Width: 459
GlyphClass: 2
Flags: W
LayerCount: 2
Fore
SplineSet
93 237 m 1,0,-1
 232 357 l 1,1,-1
 132 476 l 1,2,-1
 188 524 l 1,3,-1
 288 405 l 1,4,-1
 434 531 l 1,5,-1
 479 477 l 1,6,-1
 334 351 l 1,7,-1
 436 230 l 1,8,-1
 379 182 l 1,9,-1
 278 303 l 1,10,-1
 138 183 l 1,11,-1
 93 237 l 1,0,-1
EndSplineSet
EndChar

StartChar: Oslash
Encoding: 216 216 153
Width: 667
GlyphClass: 2
Flags: W
LayerCount: 2
Fore
SplineSet
100 225 m 0,0,1
 100 285 100 285 114 373.5 c 128,-1,2
 128 462 128 462 151.5 531.5 c 128,-1,3
 175 601 175 601 201.5 641.5 c 128,-1,4
 228 682 228 682 268.5 703.5 c 128,-1,5
 309 725 309 725 347.5 731 c 128,-1,6
 386 737 386 737 445 737 c 0,7,8
 572 737 572 737 625 694 c 1,9,-1
 655 732 l 1,10,-1
 716 732 l 1,11,-1
 657 658 l 1,12,13
 690 604 690 604 690 502 c 0,14,15
 690 440 690 440 678 360.5 c 128,-1,16
 666 281 666 281 649 222 c 128,-1,17
 632 163 632 163 608.5 123 c 128,-1,18
 585 83 585 83 559.5 57.5 c 128,-1,19
 534 32 534 32 498 18 c 0,20,21
 439 -4 439 -4 347 -4 c 0,22,23
 216 -4 216 -4 163 41 c 1,24,-1
 130 0 l 1,25,-1
 69 0 l 1,26,-1
 131 78 l 1,27,28
 100 130 100 130 100 225 c 0,0,1
208.5 471.5 m 128,-1,30
 196 424 196 424 184.5 352.5 c 128,-1,31
 173 281 173 281 173 228 c 128,-1,32
 173 175 173 175 184 144 c 1,33,-1
 577 635 l 1,34,35
 556 653 556 653 525.5 658 c 128,-1,36
 495 663 495 663 451 663 c 128,-1,37
 407 663 407 663 388.5 662 c 128,-1,38
 370 661 370 661 342.5 655.5 c 128,-1,39
 315 650 315 650 300 638.5 c 128,-1,40
 285 627 285 627 265.5 605.5 c 128,-1,41
 246 584 246 584 233.5 551.5 c 128,-1,29
 221 519 221 519 208.5 471.5 c 128,-1,30
349 70 m 0,43,44
 407 70 407 70 444 80.5 c 128,-1,45
 481 91 481 91 514 122 c 0,46,47
 577 181 577 181 604 361 c 0,48,49
 617 445 617 445 617 502.5 c 128,-1,50
 617 560 617 560 605 593 c 1,51,-1
 211 102 l 1,52,42
 247 70 247 70 349 70 c 0,43,44
EndSplineSet
Substitution2: "'c2sc' Capitals to Small Capitals in Latin lookup 2 subtable" oslash.smcp
EndChar

StartChar: Ugrave
Encoding: 217 217 154
Width: 656
GlyphClass: 2
Flags: W
LayerCount: 2
Fore
SplineSet
305 930 m 1,0,-1
 392 930 l 1,1,-1
 498 797 l 1,2,-1
 429 797 l 1,3,-1
 305 930 l 1,0,-1
202 302 m 1,4,5
 194 241 194 241 194 216.5 c 128,-1,6
 194 192 194 192 194 186 c 0,7,8
 196 140 196 140 217 114 c 128,-1,9
 238 88 238 88 267 78.5 c 128,-1,10
 296 69 296 69 344 69 c 0,11,12
 444 69 444 69 496.5 120.5 c 128,-1,13
 549 172 549 172 569 302 c 2,14,-1
 637 732 l 1,15,-1
 712 732 l 1,16,-1
 644 302 l 2,17,18
 636 250 636 250 627 214.5 c 128,-1,19
 618 179 618 179 596.5 133.5 c 128,-1,20
 575 88 575 88 544.5 61 c 128,-1,21
 514 34 514 34 461 14.5 c 128,-1,22
 408 -5 408 -5 338 -5 c 0,23,24
 211 -5 211 -5 156 68 c 0,25,26
 119 118 119 118 119 209 c 0,27,28
 119 251 119 251 127 302 c 2,29,-1
 195 732 l 1,30,-1
 270 732 l 1,31,-1
 202 302 l 1,4,5
EndSplineSet
Substitution2: "'c2sc' Capitals to Small Capitals in Latin lookup 2 subtable" ugrave.smcp
EndChar

StartChar: Uacute
Encoding: 218 218 155
Width: 656
GlyphClass: 2
Flags: W
LayerCount: 2
Fore
SplineSet
429 797 m 1,0,-1
 557 930 l 1,1,-1
 652 930 l 1,2,-1
 498 797 l 1,3,-1
 429 797 l 1,0,-1
202 302 m 1,4,5
 194 241 194 241 194 216.5 c 128,-1,6
 194 192 194 192 194 186 c 0,7,8
 196 140 196 140 217 114 c 128,-1,9
 238 88 238 88 267 78.5 c 128,-1,10
 296 69 296 69 344 69 c 0,11,12
 444 69 444 69 496.5 120.5 c 128,-1,13
 549 172 549 172 569 302 c 2,14,-1
 637 732 l 1,15,-1
 712 732 l 1,16,-1
 644 302 l 2,17,18
 636 250 636 250 627 214.5 c 128,-1,19
 618 179 618 179 596.5 133.5 c 128,-1,20
 575 88 575 88 544.5 61 c 128,-1,21
 514 34 514 34 461 14.5 c 128,-1,22
 408 -5 408 -5 338 -5 c 0,23,24
 211 -5 211 -5 156 68 c 0,25,26
 119 118 119 118 119 209 c 0,27,28
 119 251 119 251 127 302 c 2,29,-1
 195 732 l 1,30,-1
 270 732 l 1,31,-1
 202 302 l 1,4,5
EndSplineSet
Substitution2: "'c2sc' Capitals to Small Capitals in Latin lookup 2 subtable" uacute.smcp
EndChar

StartChar: Ucircumflex
Encoding: 219 219 156
Width: 656
GlyphClass: 2
Flags: W
LayerCount: 2
Fore
SplineSet
318 797 m 1,0,-1
 456 927 l 1,1,-1
 527 927 l 1,2,-1
 610 797 l 1,3,-1
 545 797 l 1,4,-1
 488 880 l 1,5,-1
 398 797 l 1,6,-1
 318 797 l 1,0,-1
202 302 m 1,7,8
 194 241 194 241 194 216.5 c 128,-1,9
 194 192 194 192 194 186 c 0,10,11
 196 140 196 140 217 114 c 128,-1,12
 238 88 238 88 267 78.5 c 128,-1,13
 296 69 296 69 344 69 c 0,14,15
 444 69 444 69 496.5 120.5 c 128,-1,16
 549 172 549 172 569 302 c 2,17,-1
 637 732 l 1,18,-1
 712 732 l 1,19,-1
 644 302 l 2,20,21
 636 250 636 250 627 214.5 c 128,-1,22
 618 179 618 179 596.5 133.5 c 128,-1,23
 575 88 575 88 544.5 61 c 128,-1,24
 514 34 514 34 461 14.5 c 128,-1,25
 408 -5 408 -5 338 -5 c 0,26,27
 211 -5 211 -5 156 68 c 0,28,29
 119 118 119 118 119 209 c 0,30,31
 119 251 119 251 127 302 c 2,32,-1
 195 732 l 1,33,-1
 270 732 l 1,34,-1
 202 302 l 1,7,8
EndSplineSet
Substitution2: "'c2sc' Capitals to Small Capitals in Latin lookup 2 subtable" ucircumflex.smcp
EndChar

StartChar: Udieresis
Encoding: 220 220 157
Width: 656
GlyphClass: 2
Flags: W
LayerCount: 2
Fore
SplineSet
353 898 m 128,-1,1
 374 898 374 898 385 885 c 128,-1,2
 396 872 396 872 396 862 c 128,-1,3
 396 852 396 852 394.5 843 c 128,-1,4
 393 834 393 834 385 822 c 0,5,6
 366 797 366 797 341 797 c 128,-1,7
 316 797 316 797 304.5 810.5 c 128,-1,8
 293 824 293 824 293 834 c 0,9,10
 293 866 293 866 312.5 882 c 128,-1,0
 332 898 332 898 353 898 c 128,-1,1
608 898 m 128,-1,12
 629 898 629 898 640 885 c 128,-1,13
 651 872 651 872 651 862 c 0,14,15
 651 830 651 830 632 813.5 c 128,-1,16
 613 797 613 797 592 797 c 128,-1,17
 571 797 571 797 559.5 810.5 c 128,-1,18
 548 824 548 824 548 834 c 0,19,20
 548 866 548 866 567.5 882 c 128,-1,11
 587 898 587 898 608 898 c 128,-1,12
202 302 m 1,21,22
 194 241 194 241 194 216.5 c 128,-1,23
 194 192 194 192 194 186 c 0,24,25
 196 140 196 140 217 114 c 128,-1,26
 238 88 238 88 267 78.5 c 128,-1,27
 296 69 296 69 344 69 c 0,28,29
 444 69 444 69 496.5 120.5 c 128,-1,30
 549 172 549 172 569 302 c 2,31,-1
 637 732 l 1,32,-1
 712 732 l 1,33,-1
 644 302 l 2,34,35
 636 250 636 250 627 214.5 c 128,-1,36
 618 179 618 179 596.5 133.5 c 128,-1,37
 575 88 575 88 544.5 61 c 128,-1,38
 514 34 514 34 461 14.5 c 128,-1,39
 408 -5 408 -5 338 -5 c 0,40,41
 211 -5 211 -5 156 68 c 0,42,43
 119 118 119 118 119 209 c 0,44,45
 119 251 119 251 127 302 c 2,46,-1
 195 732 l 1,47,-1
 270 732 l 1,48,-1
 202 302 l 1,21,22
EndSplineSet
Substitution2: "'c2sc' Capitals to Small Capitals in Latin lookup 2 subtable" udieresis.smcp
EndChar

StartChar: Yacute
Encoding: 221 221 158
Width: 630
GlyphClass: 2
Flags: W
LayerCount: 2
Fore
SplineSet
406 797 m 1,0,-1
 534 930 l 1,1,-1
 629 930 l 1,2,-1
 475 797 l 1,3,-1
 406 797 l 1,0,-1
150 732 m 1,4,-1
 228 732 l 1,5,-1
 356 351 l 1,6,-1
 622 732 l 1,7,-1
 710 732 l 1,8,-1
 382 260 l 1,9,-1
 341 0 l 1,10,-1
 267 0 l 1,11,-1
 308 260 l 1,12,-1
 150 732 l 1,4,-1
EndSplineSet
Substitution2: "'c2sc' Capitals to Small Capitals in Latin lookup 2 subtable" yacute.smcp
EndChar

StartChar: Thorn
Encoding: 222 222 159
Width: 555
GlyphClass: 2
Flags: W
LayerCount: 2
Fore
SplineSet
60 0 m 1,0,1
 60 0 60 0 175 729 c 1,2,-1
 249 729 l 1,3,-1
 227 588 l 1,4,-1
 424 588 l 2,5,6
 470 588 470 588 499 569 c 128,-1,7
 528 550 528 550 543 528 c 0,8,9
 569 490 569 490 569 420 c 0,10,11
 569 399 569 399 563 349.5 c 128,-1,12
 557 300 557 300 536.5 252.5 c 128,-1,13
 516 205 516 205 484 185 c 128,-1,14
 452 165 452 165 426 159.5 c 128,-1,15
 400 154 400 154 359 154 c 0,16,17
 221 154 221 154 162 174 c 1,18,-1
 134 0 l 1,19,-1
 60 0 l 1,0,1
367 228 m 2,20,21
 415 228 415 228 442 252 c 0,22,23
 474 280 474 280 490 377 c 1,24,25
 493 428 493 428 493 442.5 c 128,-1,26
 493 457 493 457 484.5 471.5 c 128,-1,27
 476 486 476 486 469 494.5 c 128,-1,28
 462 503 462 503 450 507 c 0,29,30
 431 513 431 513 412 513 c 2,31,-1
 215 513 l 1,32,-1
 170 228 l 1,33,-1
 367 228 l 2,20,21
EndSplineSet
Substitution2: "'c2sc' Capitals to Small Capitals in Latin lookup 2 subtable" thorn.smcp
EndChar

StartChar: germandbls
Encoding: 223 223 160
Width: 570
GlyphClass: 2
Flags: W
LayerCount: 2
Fore
SplineSet
230 71 m 1,0,-1
 406 66 l 2,1,2
 438 66 438 66 462 84 c 128,-1,3
 486 102 486 102 492 132 c 2,4,-1
 499 169 l 2,5,6
 500 173 500 173 500 176 c 0,7,8
 500 207 500 207 436 224 c 0,9,10
 407 231 407 231 378.5 241.5 c 128,-1,11
 350 252 350 252 335 275 c 128,-1,12
 320 298 320 298 320 317 c 0,13,14
 320 395 320 395 354 434 c 0,15,16
 379 463 379 463 466 510 c 1,17,18
 536 549 536 549 536 630 c 0,19,20
 536 670 536 670 506 686.5 c 128,-1,21
 476 703 476 703 402.5 703 c 128,-1,22
 329 703 329 703 282.5 674 c 128,-1,23
 236 645 236 645 224 566 c 2,24,-1
 134 0 l 1,25,-1
 60 0 l 1,26,-1
 150 566 l 2,27,28
 165 661 165 661 226.5 719 c 128,-1,29
 288 777 288 777 406 777 c 0,30,31
 490 777 490 777 540.5 749.5 c 128,-1,32
 591 722 591 722 603 681 c 0,33,34
 610 656 610 656 610 635 c 0,35,36
 610 565 610 565 572 510 c 0,37,38
 545 472 545 472 512 453 c 0,39,40
 505 449 505 449 485.5 439.5 c 128,-1,41
 466 430 466 430 456 423.5 c 128,-1,42
 446 417 446 417 432 406 c 0,43,44
 406 387 406 387 400 352 c 0,45,46
 399 346 399 346 399 341 c 0,47,48
 399 303 399 303 462 288 c 0,49,50
 491 281 491 281 519.5 271.5 c 128,-1,51
 548 262 548 262 563 240.5 c 128,-1,52
 578 219 578 219 578 201 c 128,-1,53
 578 183 578 183 576 171 c 2,54,-1
 569 124 l 2,55,56
 563 85 563 85 543.5 57.5 c 128,-1,57
 524 30 524 30 497 16 c 0,58,59
 448 -8 448 -8 404.5 -8 c 128,-1,60
 361 -8 361 -8 328 -4.5 c 128,-1,61
 295 -1 295 -1 263.5 4.5 c 128,-1,62
 232 10 232 10 221 11 c 1,63,-1
 230 71 l 1,0,-1
EndSplineSet
Substitution2: "'smcp' Lowercase to Small Capitals lookup 1 subtable" germandbls.smcp
EndChar

StartChar: agrave
Encoding: 224 224 161
Width: 541
GlyphClass: 2
Flags: W
LayerCount: 2
Fore
SplineSet
202 736 m 1,0,-1
 289 736 l 1,1,-1
 395 603 l 1,2,-1
 326 603 l 1,3,-1
 202 736 l 1,0,-1
242 525.5 m 128,-1,5
 270 537 270 537 296.5 540 c 128,-1,6
 323 543 323 543 355 543 c 128,-1,7
 387 543 387 543 457 528 c 128,-1,8
 527 513 527 513 563 479 c 1,9,-1
 493 0 l 1,10,-1
 440 0 l 1,11,-1
 429 60 l 1,12,13
 327 -7 327 -7 243 -7 c 0,14,15
 142 -7 142 -7 108 45 c 0,16,17
 79 91 79 91 79 164 c 0,18,19
 79 212 79 212 91 283.5 c 128,-1,20
 103 355 103 355 126.5 408.5 c 128,-1,21
 150 462 150 462 182 488 c 128,-1,4
 214 514 214 514 242 525.5 c 128,-1,5
183 345.5 m 128,-1,23
 170 306 170 306 162 255 c 128,-1,24
 154 204 154 204 154 167 c 128,-1,25
 154 130 154 130 164 108 c 0,26,27
 183 67 183 67 239 67 c 128,-1,28
 295 67 295 67 334 78 c 128,-1,29
 373 89 373 89 434 115 c 1,30,-1
 486 452 l 1,31,32
 412 472 412 472 373 472 c 128,-1,33
 334 472 334 472 311.5 467.5 c 128,-1,34
 289 463 289 463 275.5 459 c 128,-1,35
 262 455 262 455 241.5 441.5 c 128,-1,36
 221 428 221 428 208.5 406.5 c 128,-1,22
 196 385 196 385 183 345.5 c 128,-1,23
EndSplineSet
AlternateSubs2: "'salt' Stylistic Alternatives in Latin lookup 16 subtable" agrave.salt
Substitution2: "'smcp' Lowercase to Small Capitals lookup 1 subtable" agrave.smcp
EndChar

StartChar: aacute
Encoding: 225 225 162
Width: 541
GlyphClass: 2
Flags: W
LayerCount: 2
Fore
SplineSet
336 603 m 1,0,-1
 464 736 l 1,1,-1
 559 736 l 1,2,-1
 405 603 l 1,3,-1
 336 603 l 1,0,-1
242 525.5 m 128,-1,5
 270 537 270 537 296.5 540 c 128,-1,6
 323 543 323 543 355 543 c 128,-1,7
 387 543 387 543 457 528 c 128,-1,8
 527 513 527 513 563 479 c 1,9,-1
 493 0 l 1,10,-1
 440 0 l 1,11,-1
 429 60 l 1,12,13
 327 -7 327 -7 243 -7 c 0,14,15
 142 -7 142 -7 108 45 c 0,16,17
 79 91 79 91 79 164 c 0,18,19
 79 212 79 212 91 283.5 c 128,-1,20
 103 355 103 355 126.5 408.5 c 128,-1,21
 150 462 150 462 182 488 c 128,-1,4
 214 514 214 514 242 525.5 c 128,-1,5
183 345.5 m 128,-1,23
 170 306 170 306 162 255 c 128,-1,24
 154 204 154 204 154 167 c 128,-1,25
 154 130 154 130 164 108 c 0,26,27
 183 67 183 67 239 67 c 128,-1,28
 295 67 295 67 334 78 c 128,-1,29
 373 89 373 89 434 115 c 1,30,-1
 486 452 l 1,31,32
 412 472 412 472 373 472 c 128,-1,33
 334 472 334 472 311.5 467.5 c 128,-1,34
 289 463 289 463 275.5 459 c 128,-1,35
 262 455 262 455 241.5 441.5 c 128,-1,36
 221 428 221 428 208.5 406.5 c 128,-1,22
 196 385 196 385 183 345.5 c 128,-1,23
EndSplineSet
AlternateSubs2: "'salt' Stylistic Alternatives in Latin lookup 16 subtable" aacute.salt
Substitution2: "'smcp' Lowercase to Small Capitals lookup 1 subtable" aacute.smcp
EndChar

StartChar: acircumflex
Encoding: 226 226 163
Width: 541
GlyphClass: 2
Flags: W
LayerCount: 2
Fore
SplineSet
214 603 m 1,0,-1
 352 733 l 1,1,-1
 423 733 l 1,2,-1
 506 603 l 1,3,-1
 441 603 l 1,4,-1
 384 686 l 1,5,-1
 294 603 l 1,6,-1
 214 603 l 1,0,-1
242 525.5 m 128,-1,8
 270 537 270 537 296.5 540 c 128,-1,9
 323 543 323 543 355 543 c 128,-1,10
 387 543 387 543 457 528 c 128,-1,11
 527 513 527 513 563 479 c 1,12,-1
 493 0 l 1,13,-1
 440 0 l 1,14,-1
 429 60 l 1,15,16
 327 -7 327 -7 243 -7 c 0,17,18
 142 -7 142 -7 108 45 c 0,19,20
 79 91 79 91 79 164 c 0,21,22
 79 212 79 212 91 283.5 c 128,-1,23
 103 355 103 355 126.5 408.5 c 128,-1,24
 150 462 150 462 182 488 c 128,-1,7
 214 514 214 514 242 525.5 c 128,-1,8
183 345.5 m 128,-1,26
 170 306 170 306 162 255 c 128,-1,27
 154 204 154 204 154 167 c 128,-1,28
 154 130 154 130 164 108 c 0,29,30
 183 67 183 67 239 67 c 128,-1,31
 295 67 295 67 334 78 c 128,-1,32
 373 89 373 89 434 115 c 1,33,-1
 486 452 l 1,34,35
 412 472 412 472 373 472 c 128,-1,36
 334 472 334 472 311.5 467.5 c 128,-1,37
 289 463 289 463 275.5 459 c 128,-1,38
 262 455 262 455 241.5 441.5 c 128,-1,39
 221 428 221 428 208.5 406.5 c 128,-1,25
 196 385 196 385 183 345.5 c 128,-1,26
EndSplineSet
AlternateSubs2: "'salt' Stylistic Alternatives in Latin lookup 16 subtable" acircumflex.salt
Substitution2: "'smcp' Lowercase to Small Capitals lookup 1 subtable" acircumflex.smcp
EndChar

StartChar: atilde
Encoding: 227 227 164
Width: 541
GlyphClass: 2
Flags: W
LayerCount: 2
Fore
SplineSet
391 690 m 128,-1,1
 421 674 421 674 427.5 674 c 128,-1,2
 434 674 434 674 442 674 c 128,-1,3
 450 674 450 674 487.5 688 c 128,-1,4
 525 702 525 702 533 708 c 1,5,-1
 548 666 l 1,6,7
 539 660 539 660 517 645 c 0,8,9
 457 604 457 604 424 604 c 0,10,11
 393 604 393 604 365 621 c 128,-1,12
 337 638 337 638 321 638 c 0,13,14
 288 638 288 638 257 622 c 128,-1,15
 226 606 226 606 220 603 c 1,16,-1
 205 644 l 1,17,18
 235 666 235 666 251 676 c 0,19,20
 297 708 297 708 329 707 c 128,-1,0
 361 706 361 706 391 690 c 128,-1,1
242 525.5 m 128,-1,22
 270 537 270 537 296.5 540 c 128,-1,23
 323 543 323 543 355 543 c 128,-1,24
 387 543 387 543 457 528 c 128,-1,25
 527 513 527 513 563 479 c 1,26,-1
 493 0 l 1,27,-1
 440 0 l 1,28,-1
 429 60 l 1,29,30
 327 -7 327 -7 243 -7 c 0,31,32
 142 -7 142 -7 108 45 c 0,33,34
 79 91 79 91 79 164 c 0,35,36
 79 212 79 212 91 283.5 c 128,-1,37
 103 355 103 355 126.5 408.5 c 128,-1,38
 150 462 150 462 182 488 c 128,-1,21
 214 514 214 514 242 525.5 c 128,-1,22
183 345.5 m 128,-1,40
 170 306 170 306 162 255 c 128,-1,41
 154 204 154 204 154 167 c 128,-1,42
 154 130 154 130 164 108 c 0,43,44
 183 67 183 67 239 67 c 128,-1,45
 295 67 295 67 334 78 c 128,-1,46
 373 89 373 89 434 115 c 1,47,-1
 486 452 l 1,48,49
 412 472 412 472 373 472 c 128,-1,50
 334 472 334 472 311.5 467.5 c 128,-1,51
 289 463 289 463 275.5 459 c 128,-1,52
 262 455 262 455 241.5 441.5 c 128,-1,53
 221 428 221 428 208.5 406.5 c 128,-1,39
 196 385 196 385 183 345.5 c 128,-1,40
EndSplineSet
AlternateSubs2: "'salt' Stylistic Alternatives in Latin lookup 16 subtable" atilde.salt
Substitution2: "'smcp' Lowercase to Small Capitals lookup 1 subtable" atilde.smcp
EndChar

StartChar: adieresis
Encoding: 228 228 165
Width: 541
GlyphClass: 2
Flags: W
LayerCount: 2
Fore
SplineSet
210.5 689.5 m 128,-1,1
 228 704 228 704 249 704 c 128,-1,2
 270 704 270 704 281 691 c 128,-1,3
 292 678 292 678 292 668 c 0,4,5
 292 636 292 636 273 619.5 c 128,-1,6
 254 603 254 603 237 603 c 128,-1,7
 220 603 220 603 209 610 c 0,8,9
 186 625 186 625 189.5 650 c 128,-1,0
 193 675 193 675 210.5 689.5 c 128,-1,1
536 691 m 128,-1,11
 547 678 547 678 547 668 c 0,12,13
 547 636 547 636 528 619.5 c 128,-1,14
 509 603 509 603 492 603 c 128,-1,15
 475 603 475 603 464 610 c 0,16,17
 441 625 441 625 445 654 c 0,18,19
 449 679 449 679 473 694 c 1,20,21
 487 704 487 704 506 704 c 128,-1,10
 525 704 525 704 536 691 c 128,-1,11
242 525.5 m 128,-1,23
 270 537 270 537 296.5 540 c 128,-1,24
 323 543 323 543 355 543 c 128,-1,25
 387 543 387 543 457 528 c 128,-1,26
 527 513 527 513 563 479 c 1,27,-1
 493 0 l 1,28,-1
 440 0 l 1,29,-1
 429 60 l 1,30,31
 327 -7 327 -7 243 -7 c 0,32,33
 142 -7 142 -7 108 45 c 0,34,35
 79 91 79 91 79 164 c 0,36,37
 79 212 79 212 91 283.5 c 128,-1,38
 103 355 103 355 126.5 408.5 c 128,-1,39
 150 462 150 462 182 488 c 128,-1,22
 214 514 214 514 242 525.5 c 128,-1,23
183 345.5 m 128,-1,41
 170 306 170 306 162 255 c 128,-1,42
 154 204 154 204 154 167 c 128,-1,43
 154 130 154 130 164 108 c 0,44,45
 183 67 183 67 239 67 c 128,-1,46
 295 67 295 67 334 78 c 128,-1,47
 373 89 373 89 434 115 c 1,48,-1
 486 452 l 1,49,50
 412 472 412 472 373 472 c 128,-1,51
 334 472 334 472 311.5 467.5 c 128,-1,52
 289 463 289 463 275.5 459 c 128,-1,53
 262 455 262 455 241.5 441.5 c 128,-1,54
 221 428 221 428 208.5 406.5 c 128,-1,40
 196 385 196 385 183 345.5 c 128,-1,41
EndSplineSet
AlternateSubs2: "'salt' Stylistic Alternatives in Latin lookup 16 subtable" adieresis.salt
Substitution2: "'smcp' Lowercase to Small Capitals lookup 1 subtable" adieresis.smcp
EndChar

StartChar: aring
Encoding: 229 229 166
Width: 541
GlyphClass: 2
Flags: W
LayerCount: 2
Fore
SplineSet
396 808 m 128,-1,1
 438 808 438 808 463.5 779.5 c 128,-1,2
 489 751 489 751 489 715 c 0,3,4
 489 666 489 666 454.5 634.5 c 128,-1,5
 420 603 420 603 378 603 c 128,-1,6
 336 603 336 603 310.5 631 c 128,-1,7
 285 659 285 659 285 695 c 0,8,9
 285 744 285 744 319.5 776 c 128,-1,0
 354 808 354 808 396 808 c 128,-1,1
346 666 m 128,-1,11
 360 651 360 651 382.5 651 c 128,-1,12
 405 651 405 651 422 667 c 0,13,14
 441 685 441 685 441 707.5 c 128,-1,15
 441 730 441 730 427.5 745 c 128,-1,16
 414 760 414 760 391.5 760 c 128,-1,17
 369 760 369 760 352 744 c 0,18,19
 332 725 332 725 332 703 c 128,-1,10
 332 681 332 681 346 666 c 128,-1,11
242 525.5 m 128,-1,21
 270 537 270 537 296.5 540 c 128,-1,22
 323 543 323 543 355 543 c 128,-1,23
 387 543 387 543 457 528 c 128,-1,24
 527 513 527 513 563 479 c 1,25,-1
 493 0 l 1,26,-1
 440 0 l 1,27,-1
 429 60 l 1,28,29
 327 -7 327 -7 243 -7 c 0,30,31
 142 -7 142 -7 108 45 c 0,32,33
 79 91 79 91 79 164 c 0,34,35
 79 212 79 212 91 283.5 c 128,-1,36
 103 355 103 355 126.5 408.5 c 128,-1,37
 150 462 150 462 182 488 c 128,-1,20
 214 514 214 514 242 525.5 c 128,-1,21
183 345.5 m 128,-1,39
 170 306 170 306 162 255 c 128,-1,40
 154 204 154 204 154 167 c 128,-1,41
 154 130 154 130 164 108 c 0,42,43
 183 67 183 67 239 67 c 128,-1,44
 295 67 295 67 334 78 c 128,-1,45
 373 89 373 89 434 115 c 1,46,-1
 486 452 l 1,47,48
 412 472 412 472 373 472 c 128,-1,49
 334 472 334 472 311.5 467.5 c 128,-1,50
 289 463 289 463 275.5 459 c 128,-1,51
 262 455 262 455 241.5 441.5 c 128,-1,52
 221 428 221 428 208.5 406.5 c 128,-1,38
 196 385 196 385 183 345.5 c 128,-1,39
EndSplineSet
AlternateSubs2: "'salt' Stylistic Alternatives in Latin lookup 16 subtable" aring.salt
Substitution2: "'smcp' Lowercase to Small Capitals lookup 1 subtable" aring.smcp
EndChar

StartChar: ae
Encoding: 230 230 167
Width: 902
GlyphClass: 2
Flags: W
LayerCount: 2
Fore
SplineSet
472 227 m 1,0,1
 464 180 464 180 464 148.5 c 128,-1,2
 464 117 464 117 472 100 c 0,3,4
 487 65 487 65 541 64 c 1,5,6
 567 62 567 62 623 62 c 128,-1,7
 679 62 679 62 791 78 c 1,8,-1
 782 22 l 1,9,10
 676 -7 676 -7 533 -7 c 0,11,12
 438 -7 438 -7 408 63 c 1,13,14
 377 38 377 38 315 15.5 c 128,-1,15
 253 -7 253 -7 209.5 -7 c 128,-1,16
 166 -7 166 -7 139 0.5 c 128,-1,17
 112 8 112 8 88 26.5 c 128,-1,18
 64 45 64 45 54 77 c 1,19,20
 39 120 39 120 39 169.5 c 128,-1,21
 39 219 39 219 51 280 c 128,-1,22
 63 341 63 341 82 389 c 128,-1,23
 101 437 101 437 120.5 464 c 128,-1,24
 140 491 140 491 167 508.5 c 128,-1,25
 194 526 194 526 216 532 c 0,26,27
 260 543 260 543 299 543 c 128,-1,28
 338 543 338 543 397.5 532.5 c 128,-1,29
 457 522 457 522 501 495 c 1,30,31
 558 541 558 541 664.5 541 c 128,-1,32
 771 541 771 541 822 506 c 0,33,34
 863 477 863 477 863 416 c 0,35,36
 863 336 863 336 814 286 c 0,37,38
 774 246 774 246 723 232 c 0,39,40
 657 214 657 214 580 214 c 128,-1,41
 503 214 503 214 472 227 c 1,0,1
112 162 m 128,-1,43
 112 126 112 126 121 107 c 0,44,45
 138 67 138 67 210 67 c 0,46,47
 260 67 260 67 315.5 80.5 c 128,-1,48
 371 94 371 94 394 116 c 1,49,50
 392 132 392 132 392 167.5 c 128,-1,51
 392 203 392 203 410 299 c 128,-1,52
 428 395 428 395 459 446 c 1,53,54
 366 471 366 471 309 471 c 0,55,56
 246 471 246 471 202 442 c 0,57,58
 182 428 182 428 170 406 c 1,59,60
 137 351 137 351 121 251 c 0,61,42
 112 198 112 198 112 162 c 128,-1,43
480 281 m 1,62,63
 518 278 518 278 535 278 c 128,-1,64
 552 278 552 278 591.5 279.5 c 128,-1,65
 631 281 631 281 670.5 290 c 128,-1,66
 710 299 710 299 746 324 c 0,67,68
 789 354 789 354 789 409 c 0,69,70
 789 441 789 441 764.5 454 c 128,-1,71
 740 467 740 467 676.5 467 c 128,-1,72
 613 467 613 467 578 455 c 128,-1,73
 543 443 543 443 524.5 412.5 c 128,-1,74
 506 382 506 382 500 363 c 0,75,76
 488 330 488 330 480 281 c 1,62,63
EndSplineSet
Substitution2: "'smcp' Lowercase to Small Capitals lookup 1 subtable" ae.smcp
EndChar

StartChar: ccedilla
Encoding: 231 231 168
Width: 498
GlyphClass: 2
Flags: W
LayerCount: 2
Fore
SplineSet
154 170 m 0,0,1
 154 67 154 67 234 67 c 0,2,3
 328 67 328 67 432 75 c 2,4,-1
 471 78 l 1,5,-1
 462 22 l 1,6,7
 357 -6 357 -6 240 -6 c 0,8,9
 149 -6 149 -6 107 60 c 0,10,11
 82 100 82 100 82 156.5 c 128,-1,12
 82 213 82 213 94.5 285 c 128,-1,13
 107 357 107 357 129.5 414.5 c 128,-1,14
 152 472 152 472 182.5 497.5 c 128,-1,15
 213 523 213 523 240 530.5 c 128,-1,16
 267 538 267 538 326.5 538 c 128,-1,17
 386 538 386 538 532 510 c 1,18,-1
 524 456 l 1,19,20
 386 464 386 464 331 464 c 128,-1,21
 276 464 276 464 263.5 461.5 c 128,-1,22
 251 459 251 459 235.5 448.5 c 128,-1,23
 220 438 220 438 209 417 c 0,24,25
 185 371 185 371 169.5 289.5 c 128,-1,26
 154 208 154 208 154 170 c 0,0,1
197 -173 m 2,27,-1
 146 -173 l 1,28,-1
 152 -136 l 1,29,-1
 207 -121 l 1,30,31
 242 -107 242 -107 253 -37 c 1,32,-1
 320 -37 l 1,33,34
 308 -115 308 -115 282 -144 c 128,-1,35
 256 -173 256 -173 197 -173 c 2,27,-1
EndSplineSet
Substitution2: "'smcp' Lowercase to Small Capitals lookup 1 subtable" ccedilla.smcp
EndChar

StartChar: egrave
Encoding: 232 232 169
Width: 525
GlyphClass: 2
Flags: W
LayerCount: 2
Fore
SplineSet
204 734 m 1,0,-1
 291 734 l 1,1,-1
 397 601 l 1,2,-1
 328 601 l 1,3,-1
 204 734 l 1,0,-1
155 227 m 1,4,5
 147 180 147 180 147 148.5 c 128,-1,6
 147 117 147 117 154 100 c 0,7,8
 170 65 170 65 224 64 c 1,9,10
 250 62 250 62 305.5 62 c 128,-1,11
 361 62 361 62 473 78 c 1,12,-1
 465 22 l 1,13,14
 359 -7 359 -7 215 -7 c 0,15,16
 120 -7 120 -7 91 62 c 0,17,18
 76 98 76 98 76 152.5 c 128,-1,19
 76 207 76 207 89 277.5 c 128,-1,20
 102 348 102 348 116.5 389.5 c 128,-1,21
 131 431 131 431 159 469 c 0,22,23
 212 541 212 541 353 541 c 0,24,25
 454 541 454 541 504 506 c 0,26,27
 546 477 546 477 546 416 c 0,28,29
 546 336 546 336 496 286 c 0,30,31
 457 246 457 246 406 232 c 0,32,33
 340 214 340 214 263 214 c 128,-1,34
 186 214 186 214 155 227 c 1,4,5
163 281 m 1,35,36
 201 278 201 278 218 278 c 128,-1,37
 235 278 235 278 274.5 279.5 c 128,-1,38
 314 281 314 281 353.5 290 c 128,-1,39
 393 299 393 299 428 324 c 0,40,41
 472 354 472 354 472 409 c 0,42,43
 472 441 472 441 447.5 454 c 128,-1,44
 423 467 423 467 359.5 467 c 128,-1,45
 296 467 296 467 261 455 c 128,-1,46
 226 443 226 443 207.5 412.5 c 128,-1,47
 189 382 189 382 182 363 c 0,48,49
 171 330 171 330 163 281 c 1,35,36
EndSplineSet
Substitution2: "'smcp' Lowercase to Small Capitals lookup 1 subtable" egrave.smcp
EndChar

StartChar: eacute
Encoding: 233 233 170
Width: 525
GlyphClass: 2
Flags: W
LayerCount: 2
Fore
SplineSet
328 601 m 1,0,-1
 456 734 l 1,1,-1
 551 734 l 1,2,-1
 397 601 l 1,3,-1
 328 601 l 1,0,-1
155 227 m 1,4,5
 147 180 147 180 147 148.5 c 128,-1,6
 147 117 147 117 154 100 c 0,7,8
 170 65 170 65 224 64 c 1,9,10
 250 62 250 62 305.5 62 c 128,-1,11
 361 62 361 62 473 78 c 1,12,-1
 465 22 l 1,13,14
 359 -7 359 -7 215 -7 c 0,15,16
 120 -7 120 -7 91 62 c 0,17,18
 76 98 76 98 76 152.5 c 128,-1,19
 76 207 76 207 89 277.5 c 128,-1,20
 102 348 102 348 116.5 389.5 c 128,-1,21
 131 431 131 431 159 469 c 0,22,23
 212 541 212 541 353 541 c 0,24,25
 454 541 454 541 504 506 c 0,26,27
 546 477 546 477 546 416 c 0,28,29
 546 336 546 336 496 286 c 0,30,31
 457 246 457 246 406 232 c 0,32,33
 340 214 340 214 263 214 c 128,-1,34
 186 214 186 214 155 227 c 1,4,5
163 281 m 1,35,36
 201 278 201 278 218 278 c 128,-1,37
 235 278 235 278 274.5 279.5 c 128,-1,38
 314 281 314 281 353.5 290 c 128,-1,39
 393 299 393 299 428 324 c 0,40,41
 472 354 472 354 472 409 c 0,42,43
 472 441 472 441 447.5 454 c 128,-1,44
 423 467 423 467 359.5 467 c 128,-1,45
 296 467 296 467 261 455 c 128,-1,46
 226 443 226 443 207.5 412.5 c 128,-1,47
 189 382 189 382 182 363 c 0,48,49
 171 330 171 330 163 281 c 1,35,36
EndSplineSet
Substitution2: "'smcp' Lowercase to Small Capitals lookup 1 subtable" eacute.smcp
EndChar

StartChar: ecircumflex
Encoding: 234 234 171
Width: 525
GlyphClass: 2
Flags: W
LayerCount: 2
Fore
SplineSet
217 601 m 1,0,-1
 355 731 l 1,1,-1
 426 731 l 1,2,-1
 509 601 l 1,3,-1
 444 601 l 1,4,-1
 387 684 l 1,5,-1
 297 601 l 1,6,-1
 217 601 l 1,0,-1
155 227 m 1,7,8
 147 180 147 180 147 148.5 c 128,-1,9
 147 117 147 117 154 100 c 0,10,11
 170 65 170 65 224 64 c 1,12,13
 250 62 250 62 305.5 62 c 128,-1,14
 361 62 361 62 473 78 c 1,15,-1
 465 22 l 1,16,17
 359 -7 359 -7 215 -7 c 0,18,19
 120 -7 120 -7 91 62 c 0,20,21
 76 98 76 98 76 152.5 c 128,-1,22
 76 207 76 207 89 277.5 c 128,-1,23
 102 348 102 348 116.5 389.5 c 128,-1,24
 131 431 131 431 159 469 c 0,25,26
 212 541 212 541 353 541 c 0,27,28
 454 541 454 541 504 506 c 0,29,30
 546 477 546 477 546 416 c 0,31,32
 546 336 546 336 496 286 c 0,33,34
 457 246 457 246 406 232 c 0,35,36
 340 214 340 214 263 214 c 128,-1,37
 186 214 186 214 155 227 c 1,7,8
163 281 m 1,38,39
 201 278 201 278 218 278 c 128,-1,40
 235 278 235 278 274.5 279.5 c 128,-1,41
 314 281 314 281 353.5 290 c 128,-1,42
 393 299 393 299 428 324 c 0,43,44
 472 354 472 354 472 409 c 0,45,46
 472 441 472 441 447.5 454 c 128,-1,47
 423 467 423 467 359.5 467 c 128,-1,48
 296 467 296 467 261 455 c 128,-1,49
 226 443 226 443 207.5 412.5 c 128,-1,50
 189 382 189 382 182 363 c 0,51,52
 171 330 171 330 163 281 c 1,38,39
EndSplineSet
Substitution2: "'smcp' Lowercase to Small Capitals lookup 1 subtable" ecircumflex.smcp
EndChar

StartChar: edieresis
Encoding: 235 235 172
Width: 525
GlyphClass: 2
Flags: W
LayerCount: 2
Fore
SplineSet
213.5 687.5 m 128,-1,1
 231 702 231 702 252 702 c 128,-1,2
 273 702 273 702 283.5 689 c 128,-1,3
 294 676 294 676 294 666 c 0,4,5
 294 634 294 634 275.5 617.5 c 128,-1,6
 257 601 257 601 242 601 c 128,-1,7
 227 601 227 601 220 603.5 c 128,-1,8
 213 606 213 606 207.5 611 c 128,-1,9
 202 616 202 616 198 622 c 0,10,11
 190 635 190 635 193 654 c 128,-1,0
 196 673 196 673 213.5 687.5 c 128,-1,1
468.5 687.5 m 128,-1,13
 486 702 486 702 507 702 c 128,-1,14
 528 702 528 702 538.5 689 c 128,-1,15
 549 676 549 676 549 666 c 0,16,17
 549 634 549 634 530.5 617.5 c 128,-1,18
 512 601 512 601 494.5 601 c 128,-1,19
 477 601 477 601 466 608 c 0,20,21
 444 623 444 623 447.5 648 c 128,-1,12
 451 673 451 673 468.5 687.5 c 128,-1,13
155 227 m 1,22,23
 147 180 147 180 147 148.5 c 128,-1,24
 147 117 147 117 154 100 c 0,25,26
 170 65 170 65 224 64 c 1,27,28
 250 62 250 62 305.5 62 c 128,-1,29
 361 62 361 62 473 78 c 1,30,-1
 465 22 l 1,31,32
 359 -7 359 -7 215 -7 c 0,33,34
 120 -7 120 -7 91 62 c 0,35,36
 76 98 76 98 76 152.5 c 128,-1,37
 76 207 76 207 89 277.5 c 128,-1,38
 102 348 102 348 116.5 389.5 c 128,-1,39
 131 431 131 431 159 469 c 0,40,41
 212 541 212 541 353 541 c 0,42,43
 454 541 454 541 504 506 c 0,44,45
 546 477 546 477 546 416 c 0,46,47
 546 336 546 336 496 286 c 0,48,49
 457 246 457 246 406 232 c 0,50,51
 340 214 340 214 263 214 c 128,-1,52
 186 214 186 214 155 227 c 1,22,23
163 281 m 1,53,54
 201 278 201 278 218 278 c 128,-1,55
 235 278 235 278 274.5 279.5 c 128,-1,56
 314 281 314 281 353.5 290 c 128,-1,57
 393 299 393 299 428 324 c 0,58,59
 472 354 472 354 472 409 c 0,60,61
 472 441 472 441 447.5 454 c 128,-1,62
 423 467 423 467 359.5 467 c 128,-1,63
 296 467 296 467 261 455 c 128,-1,64
 226 443 226 443 207.5 412.5 c 128,-1,65
 189 382 189 382 182 363 c 0,66,67
 171 330 171 330 163 281 c 1,53,54
EndSplineSet
Substitution2: "'smcp' Lowercase to Small Capitals lookup 1 subtable" edieresis.smcp
EndChar

StartChar: igrave
Encoding: 236 236 173
Width: 195
GlyphClass: 2
Flags: W
LayerCount: 2
Fore
SplineSet
33 729 m 1,0,-1
 120 729 l 1,1,-1
 226 596 l 1,2,-1
 157 596 l 1,3,-1
 33 729 l 1,0,-1
60 0 m 1,4,-1
 144 531 l 1,5,-1
 218 531 l 1,6,-1
 134 0 l 1,7,-1
 60 0 l 1,4,-1
EndSplineSet
Substitution2: "'smcp' Lowercase to Small Capitals lookup 1 subtable" igrave.smcp
EndChar

StartChar: iacute
Encoding: 237 237 174
Width: 195
GlyphClass: 2
Flags: W
LayerCount: 2
Fore
SplineSet
155 596 m 1,0,-1
 283 729 l 1,1,-1
 378 729 l 1,2,-1
 224 596 l 1,3,-1
 155 596 l 1,0,-1
60 0 m 1,4,-1
 144 531 l 1,5,-1
 218 531 l 1,6,-1
 134 0 l 1,7,-1
 60 0 l 1,4,-1
EndSplineSet
Substitution2: "'smcp' Lowercase to Small Capitals lookup 1 subtable" iacute.smcp
EndChar

StartChar: icircumflex
Encoding: 238 238 175
Width: 195
GlyphClass: 2
Flags: W
LayerCount: 2
Fore
SplineSet
41 596 m 1,0,-1
 179 726 l 1,1,-1
 250 726 l 1,2,-1
 333 596 l 1,3,-1
 268 596 l 1,4,-1
 211 679 l 1,5,-1
 121 596 l 1,6,-1
 41 596 l 1,0,-1
60 0 m 1,7,-1
 144 531 l 1,8,-1
 218 531 l 1,9,-1
 134 0 l 1,10,-1
 60 0 l 1,7,-1
EndSplineSet
Substitution2: "'smcp' Lowercase to Small Capitals lookup 1 subtable" icircumflex.smcp
EndChar

StartChar: idieresis
Encoding: 239 239 176
Width: 195
GlyphClass: 2
Flags: W
LayerCount: 2
Fore
SplineSet
72 697 m 128,-1,1
 93 697 93 697 104 684 c 128,-1,2
 115 671 115 671 115 661 c 0,3,4
 115 629 115 629 96.5 612.5 c 128,-1,5
 78 596 78 596 60 596 c 0,6,7
 27 596 27 596 17 621 c 0,8,9
 13 630 13 630 13 636 c 0,10,11
 13 665 13 665 32 681 c 128,-1,0
 51 697 51 697 72 697 c 128,-1,1
301 690.5 m 128,-1,13
 314 697 314 697 331 697 c 128,-1,14
 348 697 348 697 359 684 c 128,-1,15
 370 671 370 671 370 661 c 128,-1,16
 370 651 370 651 369 642 c 128,-1,17
 368 633 368 633 359.5 621.5 c 128,-1,18
 351 610 351 610 338 603 c 128,-1,19
 325 596 325 596 311.5 596 c 128,-1,20
 298 596 298 596 287.5 603 c 128,-1,21
 277 610 277 610 272 621.5 c 128,-1,22
 267 633 267 633 268.5 647 c 128,-1,23
 270 661 270 661 279 672.5 c 128,-1,12
 288 684 288 684 301 690.5 c 128,-1,13
60 0 m 1,24,-1
 144 531 l 1,25,-1
 218 531 l 1,26,-1
 134 0 l 1,27,-1
 60 0 l 1,24,-1
EndSplineSet
Substitution2: "'smcp' Lowercase to Small Capitals lookup 1 subtable" idieresis.smcp
EndChar

StartChar: eth
Encoding: 240 240 177
Width: 537
GlyphClass: 2
Flags: W
LayerCount: 2
Fore
SplineSet
297 531 m 2,0,-1
 400 531 l 2,1,2
 456 531 456 531 468 516 c 1,3,4
 455 600 455 600 415 648 c 1,5,-1
 261 590 l 1,6,-1
 246 650 l 1,7,-1
 362 694 l 1,8,9
 320 718 320 718 255 718 c 0,10,11
 246 718 246 718 236 718 c 1,12,-1
 246 783 l 1,13,14
 378 783 378 783 446 724 c 1,15,-1
 571 771 l 1,16,-1
 587 711 l 1,17,-1
 490 675 l 1,18,19
 551 582 551 582 551 425 c 0,20,21
 551 349 551 349 537 258 c 0,22,23
 515 121 515 121 467.5 60.5 c 128,-1,24
 420 0 420 0 321 0 c 2,25,-1
 213 0 l 2,26,27
 164 0 164 0 131 21.5 c 128,-1,28
 98 43 98 43 86 79 c 0,29,30
 70 126 70 126 70 172.5 c 128,-1,31
 70 219 70 219 79 258 c 1,32,33
 104 405 104 405 151.5 468 c 128,-1,34
 199 531 199 531 297 531 c 2,0,-1
153 258 m 1,35,36
 144 193 144 193 144 158 c 128,-1,37
 144 123 144 123 157 104 c 128,-1,38
 170 85 170 85 184 79.5 c 128,-1,39
 198 74 198 74 209 74 c 128,-1,40
 220 74 220 74 223 74 c 2,41,-1
 331 74 l 2,42,43
 332 74 332 74 334 74 c 0,44,45
 380 74 380 74 412.5 110.5 c 128,-1,46
 445 147 445 147 463 258 c 0,47,48
 473 320 473 320 473 357 c 128,-1,49
 473 394 473 394 466 414 c 0,50,51
 451 457 451 457 389 457 c 2,52,-1
 289 457 l 2,53,54
 235 457 235 457 204 416.5 c 128,-1,55
 173 376 173 376 153 258 c 1,35,36
EndSplineSet
Substitution2: "'smcp' Lowercase to Small Capitals lookup 1 subtable" eth.smcp
EndChar

StartChar: ntilde
Encoding: 241 241 178
Width: 544
GlyphClass: 2
Flags: W
LayerCount: 2
Fore
SplineSet
395.5 687 m 128,-1,1
 426 671 426 671 432 671 c 128,-1,2
 438 671 438 671 446 671 c 128,-1,3
 454 671 454 671 491.5 685.5 c 128,-1,4
 529 700 529 700 537 705 c 1,5,-1
 552 663 l 1,6,7
 543 657 543 657 527.5 646.5 c 128,-1,8
 512 636 512 636 501.5 629 c 128,-1,9
 491 622 491 622 478 615 c 0,10,11
 423 585 423 585 368 618 c 0,12,13
 341 635 341 635 325 635 c 0,14,15
 292 635 292 635 261 619 c 128,-1,16
 230 603 230 603 224 600 c 1,17,-1
 209 641 l 1,18,19
 239 663 239 663 255 673 c 0,20,21
 302 705 302 705 333.5 704 c 128,-1,0
 365 703 365 703 395.5 687 c 128,-1,1
416 540 m 0,22,23
 492 540 492 540 528 490 c 0,24,25
 556 452 556 452 556 402 c 0,26,27
 556 386 556 386 553 370 c 2,28,-1
 494 0 l 1,29,-1
 420 0 l 1,30,-1
 479 370 l 2,31,32
 481 382 481 382 481 392 c 0,33,34
 481 424 481 424 462.5 445 c 128,-1,35
 444 466 444 466 405 466 c 128,-1,36
 366 466 366 466 331 458 c 128,-1,37
 296 450 296 450 274 441.5 c 128,-1,38
 252 433 252 433 199 409 c 1,39,-1
 134 0 l 1,40,-1
 60 0 l 1,41,-1
 144 531 l 1,42,-1
 196 531 l 1,43,-1
 208 469 l 1,44,45
 257 502 257 502 332 526 c 1,46,47
 372 540 372 540 416 540 c 0,22,23
EndSplineSet
AlternateSubs2: "'salt' Stylistic Alternatives in Latin lookup 16 subtable" ntilde.salt
Substitution2: "'smcp' Lowercase to Small Capitals lookup 1 subtable" ntilde.smcp
EndChar

StartChar: ograve
Encoding: 242 242 179
Width: 564
GlyphClass: 2
Flags: W
LayerCount: 2
Fore
SplineSet
215 729 m 1,0,-1
 302 729 l 1,1,-1
 408 596 l 1,2,-1
 339 596 l 1,3,-1
 215 729 l 1,0,-1
173 477.5 m 128,-1,5
 232 536 232 536 360.5 536 c 128,-1,6
 489 536 489 536 535 468 c 0,7,8
 565 423 565 423 565 347 c 0,9,10
 565 307 565 307 557 258 c 0,11,12
 532 108 532 108 476.5 51.5 c 128,-1,13
 421 -5 421 -5 291.5 -5 c 128,-1,14
 162 -5 162 -5 114 56 c 0,15,16
 82 97 82 97 82 176 c 0,17,18
 82 213 82 213 89 258 c 0,19,4
 114 419 114 419 173 477.5 c 128,-1,5
190 367.5 m 128,-1,21
 175 327 175 327 165 268 c 128,-1,22
 155 209 155 209 155 179.5 c 128,-1,23
 155 150 155 150 161.5 131 c 128,-1,24
 168 112 168 112 178 99 c 128,-1,25
 188 86 188 86 207 80 c 0,26,27
 238 69 238 69 288 69 c 128,-1,28
 338 69 338 69 363.5 74 c 128,-1,29
 389 79 389 79 415 97.5 c 128,-1,30
 441 116 441 116 456.5 155 c 128,-1,31
 472 194 472 194 482 252.5 c 128,-1,32
 492 311 492 311 492 355 c 128,-1,33
 492 399 492 399 476 422 c 0,34,35
 448 462 448 462 356 462 c 0,36,37
 309 462 309 462 282 456 c 128,-1,38
 255 450 255 450 230 429 c 128,-1,20
 205 408 205 408 190 367.5 c 128,-1,21
EndSplineSet
Substitution2: "'smcp' Lowercase to Small Capitals lookup 1 subtable" ograve.smcp
EndChar

StartChar: oacute
Encoding: 243 243 180
Width: 564
GlyphClass: 2
Flags: W
LayerCount: 2
Fore
SplineSet
339 596 m 1,0,-1
 467 729 l 1,1,-1
 562 729 l 1,2,-1
 408 596 l 1,3,-1
 339 596 l 1,0,-1
173 477.5 m 128,-1,5
 232 536 232 536 360.5 536 c 128,-1,6
 489 536 489 536 535 468 c 0,7,8
 565 423 565 423 565 347 c 0,9,10
 565 307 565 307 557 258 c 0,11,12
 532 108 532 108 476.5 51.5 c 128,-1,13
 421 -5 421 -5 291.5 -5 c 128,-1,14
 162 -5 162 -5 114 56 c 0,15,16
 82 97 82 97 82 176 c 0,17,18
 82 213 82 213 89 258 c 0,19,4
 114 419 114 419 173 477.5 c 128,-1,5
190 367.5 m 128,-1,21
 175 327 175 327 165 268 c 128,-1,22
 155 209 155 209 155 179.5 c 128,-1,23
 155 150 155 150 161.5 131 c 128,-1,24
 168 112 168 112 178 99 c 128,-1,25
 188 86 188 86 207 80 c 0,26,27
 238 69 238 69 288 69 c 128,-1,28
 338 69 338 69 363.5 74 c 128,-1,29
 389 79 389 79 415 97.5 c 128,-1,30
 441 116 441 116 456.5 155 c 128,-1,31
 472 194 472 194 482 252.5 c 128,-1,32
 492 311 492 311 492 355 c 128,-1,33
 492 399 492 399 476 422 c 0,34,35
 448 462 448 462 356 462 c 0,36,37
 309 462 309 462 282 456 c 128,-1,38
 255 450 255 450 230 429 c 128,-1,20
 205 408 205 408 190 367.5 c 128,-1,21
EndSplineSet
Substitution2: "'smcp' Lowercase to Small Capitals lookup 1 subtable" oacute.smcp
EndChar

StartChar: ocircumflex
Encoding: 244 244 181
Width: 564
GlyphClass: 2
Flags: W
LayerCount: 2
Fore
SplineSet
228 596 m 1,0,-1
 366 726 l 1,1,-1
 437 726 l 1,2,-1
 520 596 l 1,3,-1
 455 596 l 1,4,-1
 398 679 l 1,5,-1
 308 596 l 1,6,-1
 228 596 l 1,0,-1
173 477.5 m 128,-1,8
 232 536 232 536 360.5 536 c 128,-1,9
 489 536 489 536 535 468 c 0,10,11
 565 423 565 423 565 347 c 0,12,13
 565 307 565 307 557 258 c 0,14,15
 532 108 532 108 476.5 51.5 c 128,-1,16
 421 -5 421 -5 291.5 -5 c 128,-1,17
 162 -5 162 -5 114 56 c 0,18,19
 82 97 82 97 82 176 c 0,20,21
 82 213 82 213 89 258 c 0,22,7
 114 419 114 419 173 477.5 c 128,-1,8
190 367.5 m 128,-1,24
 175 327 175 327 165 268 c 128,-1,25
 155 209 155 209 155 179.5 c 128,-1,26
 155 150 155 150 161.5 131 c 128,-1,27
 168 112 168 112 178 99 c 128,-1,28
 188 86 188 86 207 80 c 0,29,30
 238 69 238 69 288 69 c 128,-1,31
 338 69 338 69 363.5 74 c 128,-1,32
 389 79 389 79 415 97.5 c 128,-1,33
 441 116 441 116 456.5 155 c 128,-1,34
 472 194 472 194 482 252.5 c 128,-1,35
 492 311 492 311 492 355 c 128,-1,36
 492 399 492 399 476 422 c 0,37,38
 448 462 448 462 356 462 c 0,39,40
 309 462 309 462 282 456 c 128,-1,41
 255 450 255 450 230 429 c 128,-1,23
 205 408 205 408 190 367.5 c 128,-1,24
EndSplineSet
Substitution2: "'smcp' Lowercase to Small Capitals lookup 1 subtable" ocircumflex.smcp
EndChar

StartChar: otilde
Encoding: 245 245 182
Width: 564
GlyphClass: 2
Flags: W
LayerCount: 2
Fore
SplineSet
396.5 683 m 128,-1,1
 427 667 427 667 433 667 c 128,-1,2
 439 667 439 667 445 667 c 128,-1,3
 451 667 451 667 474 675 c 0,4,5
 523 691 523 691 538 701 c 1,6,-1
 553 659 l 1,7,8
 544 653 544 653 523 638 c 0,9,10
 462 597 462 597 429 597 c 0,11,12
 398 597 398 597 370 614 c 128,-1,13
 342 631 342 631 326 631 c 0,14,15
 293 631 293 631 262.5 615 c 128,-1,16
 232 599 232 599 225 596 c 1,17,-1
 210 637 l 1,18,19
 240 659 240 659 256 669 c 0,20,21
 303 701 303 701 334.5 700 c 128,-1,0
 366 699 366 699 396.5 683 c 128,-1,1
173 477.5 m 128,-1,23
 232 536 232 536 360.5 536 c 128,-1,24
 489 536 489 536 535 468 c 0,25,26
 565 423 565 423 565 347 c 0,27,28
 565 307 565 307 557 258 c 0,29,30
 532 108 532 108 476.5 51.5 c 128,-1,31
 421 -5 421 -5 291.5 -5 c 128,-1,32
 162 -5 162 -5 114 56 c 0,33,34
 82 97 82 97 82 176 c 0,35,36
 82 213 82 213 89 258 c 0,37,22
 114 419 114 419 173 477.5 c 128,-1,23
190 367.5 m 128,-1,39
 175 327 175 327 165 268 c 128,-1,40
 155 209 155 209 155 179.5 c 128,-1,41
 155 150 155 150 161.5 131 c 128,-1,42
 168 112 168 112 178 99 c 128,-1,43
 188 86 188 86 207 80 c 0,44,45
 238 69 238 69 288 69 c 128,-1,46
 338 69 338 69 363.5 74 c 128,-1,47
 389 79 389 79 415 97.5 c 128,-1,48
 441 116 441 116 456.5 155 c 128,-1,49
 472 194 472 194 482 252.5 c 128,-1,50
 492 311 492 311 492 355 c 128,-1,51
 492 399 492 399 476 422 c 0,52,53
 448 462 448 462 356 462 c 0,54,55
 309 462 309 462 282 456 c 128,-1,56
 255 450 255 450 230 429 c 128,-1,38
 205 408 205 408 190 367.5 c 128,-1,39
EndSplineSet
Substitution2: "'smcp' Lowercase to Small Capitals lookup 1 subtable" otilde.smcp
EndChar

StartChar: odieresis
Encoding: 246 246 183
Width: 564
GlyphClass: 2
Flags: W
LayerCount: 2
Fore
SplineSet
224.5 682.5 m 128,-1,1
 242 697 242 697 263 697 c 128,-1,2
 284 697 284 697 294.5 684 c 128,-1,3
 305 671 305 671 305 661 c 0,4,5
 305 629 305 629 286.5 612.5 c 128,-1,6
 268 596 268 596 250.5 596 c 128,-1,7
 233 596 233 596 222 603 c 0,8,9
 200 618 200 618 203.5 643 c 128,-1,0
 207 668 207 668 224.5 682.5 c 128,-1,1
479.5 682.5 m 128,-1,11
 497 697 497 697 518 697 c 128,-1,12
 539 697 539 697 549.5 684 c 128,-1,13
 560 671 560 671 560 661 c 0,14,15
 560 629 560 629 541.5 612.5 c 128,-1,16
 523 596 523 596 505.5 596 c 128,-1,17
 488 596 488 596 477 603 c 0,18,19
 455 618 455 618 458.5 643 c 128,-1,10
 462 668 462 668 479.5 682.5 c 128,-1,11
173 477.5 m 128,-1,21
 232 536 232 536 360.5 536 c 128,-1,22
 489 536 489 536 535 468 c 0,23,24
 565 423 565 423 565 347 c 0,25,26
 565 307 565 307 557 258 c 0,27,28
 532 108 532 108 476.5 51.5 c 128,-1,29
 421 -5 421 -5 291.5 -5 c 128,-1,30
 162 -5 162 -5 114 56 c 0,31,32
 82 97 82 97 82 176 c 0,33,34
 82 213 82 213 89 258 c 0,35,20
 114 419 114 419 173 477.5 c 128,-1,21
190 367.5 m 128,-1,37
 175 327 175 327 165 268 c 128,-1,38
 155 209 155 209 155 179.5 c 128,-1,39
 155 150 155 150 161.5 131 c 128,-1,40
 168 112 168 112 178 99 c 128,-1,41
 188 86 188 86 207 80 c 0,42,43
 238 69 238 69 288 69 c 128,-1,44
 338 69 338 69 363.5 74 c 128,-1,45
 389 79 389 79 415 97.5 c 128,-1,46
 441 116 441 116 456.5 155 c 128,-1,47
 472 194 472 194 482 252.5 c 128,-1,48
 492 311 492 311 492 355 c 128,-1,49
 492 399 492 399 476 422 c 0,50,51
 448 462 448 462 356 462 c 0,52,53
 309 462 309 462 282 456 c 128,-1,54
 255 450 255 450 230 429 c 128,-1,36
 205 408 205 408 190 367.5 c 128,-1,37
EndSplineSet
Substitution2: "'smcp' Lowercase to Small Capitals lookup 1 subtable" odieresis.smcp
EndChar

StartChar: divide
Encoding: 247 247 184
Width: 517
GlyphClass: 2
Flags: W
LayerCount: 2
Fore
SplineSet
100 316 m 1,0,-1
 112 390 l 1,1,-1
 528 390 l 1,2,-1
 516 316 l 1,3,-1
 100 316 l 1,0,-1
276 252 m 2,4,-1
 326 252 l 2,5,6
 346 252 346 252 346 234 c 0,7,8
 346 231 346 231 345 227 c 2,9,-1
 336 173 l 2,10,11
 333 150 333 150 310 150 c 2,12,-1
 260 150 l 2,13,14
 236 150 236 150 239 173 c 2,15,-1
 248 227 l 1,16,17
 251 252 251 252 276 252 c 2,4,-1
323 551 m 2,19,-1
 373 551 l 2,20,21
 393 551 393 551 393 533 c 0,22,23
 393 530 393 530 392 526 c 2,24,-1
 384 472 l 2,25,26
 381 449 381 449 357 449 c 2,27,-1
 307 449 l 2,28,29
 287 449 287 449 287 467 c 0,30,31
 287 469 287 469 287 472 c 2,32,-1
 295 526 l 2,33,18
 298 551 298 551 323 551 c 2,19,-1
EndSplineSet
EndChar

StartChar: oslash
Encoding: 248 248 185
Width: 568
GlyphClass: 2
Flags: W
LayerCount: 2
Fore
SplineSet
84 174 m 0,0,1
 84 212 84 212 91 258 c 0,2,3
 116 419 116 419 175 477.5 c 128,-1,4
 234 536 234 536 366 536 c 0,5,6
 451 536 451 536 500 504 c 1,7,-1
 524 531 l 1,8,-1
 590 531 l 1,9,-1
 535 470 l 1,10,11
 567 425 567 425 567 346 c 0,12,13
 567 306 567 306 559 258 c 0,14,15
 534 108 534 108 478.5 51.5 c 128,-1,16
 423 -5 423 -5 293 -5 c 0,17,18
 191 -5 191 -5 141 32 c 1,19,-1
 112 0 l 1,20,-1
 51 0 l 1,21,-1
 109 65 l 1,22,23
 84 105 84 105 84 174 c 0,0,1
449 447 m 1,24,25
 419 462 419 462 364.5 462 c 128,-1,26
 310 462 310 462 283 456 c 128,-1,27
 256 450 256 450 231.5 429 c 128,-1,28
 207 408 207 408 192 367.5 c 128,-1,29
 177 327 177 327 167 269.5 c 128,-1,30
 157 212 157 212 157 179.5 c 128,-1,31
 157 147 157 147 164 127 c 1,32,-1
 449 447 l 1,24,25
192 89 m 1,33,34
 220 69 220 69 280 69 c 128,-1,35
 340 69 340 69 365.5 74 c 128,-1,36
 391 79 391 79 417 97.5 c 128,-1,37
 443 116 443 116 458.5 155 c 128,-1,38
 474 194 474 194 484 251.5 c 128,-1,39
 494 309 494 309 494 348.5 c 128,-1,40
 494 388 494 388 483 412 c 1,41,-1
 192 89 l 1,33,34
EndSplineSet
Substitution2: "'smcp' Lowercase to Small Capitals lookup 1 subtable" oslash.smcp
EndChar

StartChar: ugrave
Encoding: 249 249 186
Width: 543
GlyphClass: 2
Flags: W
LayerCount: 2
Fore
SplineSet
203 729 m 1,0,-1
 290 729 l 1,1,-1
 396 596 l 1,2,-1
 327 596 l 1,3,-1
 203 729 l 1,0,-1
148 134 m 0,4,5
 148 65 148 65 225 65 c 0,6,7
 292 65 292 65 355 90 c 0,8,9
 377 98 377 98 430 122 c 1,10,-1
 494 531 l 1,11,-1
 568 531 l 1,12,-1
 484 0 l 1,13,-1
 432 0 l 1,14,-1
 420 62 l 1,15,16
 397 48 397 48 380.5 40.5 c 128,-1,17
 364 33 364 33 347 24.5 c 128,-1,18
 330 16 330 16 321.5 13 c 128,-1,19
 313 10 313 10 297 4.5 c 128,-1,20
 281 -1 281 -1 270 -3 c 0,21,22
 235 -9 235 -9 213 -9 c 0,23,24
 136 -9 136 -9 100 39 c 0,25,26
 73 75 73 75 73 126 c 0,27,28
 73 142 73 142 76 161 c 2,29,-1
 134 531 l 1,30,-1
 208 531 l 1,31,-1
 150 161 l 2,32,33
 148 146 148 146 148 134 c 0,4,5
EndSplineSet
AlternateSubs2: "'salt' Stylistic Alternatives in Latin lookup 16 subtable" ugrave.salt
Substitution2: "'smcp' Lowercase to Small Capitals lookup 1 subtable" ugrave.smcp
EndChar

StartChar: uacute
Encoding: 250 250 187
Width: 543
GlyphClass: 2
Flags: W
LayerCount: 2
Fore
SplineSet
327 596 m 1,0,-1
 455 729 l 1,1,-1
 550 729 l 1,2,-1
 396 596 l 1,3,-1
 327 596 l 1,0,-1
148 134 m 0,4,5
 148 65 148 65 225 65 c 0,6,7
 292 65 292 65 355 90 c 0,8,9
 377 98 377 98 430 122 c 1,10,-1
 494 531 l 1,11,-1
 568 531 l 1,12,-1
 484 0 l 1,13,-1
 432 0 l 1,14,-1
 420 62 l 1,15,16
 397 48 397 48 380.5 40.5 c 128,-1,17
 364 33 364 33 347 24.5 c 128,-1,18
 330 16 330 16 321.5 13 c 128,-1,19
 313 10 313 10 297 4.5 c 128,-1,20
 281 -1 281 -1 270 -3 c 0,21,22
 235 -9 235 -9 213 -9 c 0,23,24
 136 -9 136 -9 100 39 c 0,25,26
 73 75 73 75 73 126 c 0,27,28
 73 142 73 142 76 161 c 2,29,-1
 134 531 l 1,30,-1
 208 531 l 1,31,-1
 150 161 l 2,32,33
 148 146 148 146 148 134 c 0,4,5
EndSplineSet
AlternateSubs2: "'salt' Stylistic Alternatives in Latin lookup 16 subtable" uacute.salt
Substitution2: "'smcp' Lowercase to Small Capitals lookup 1 subtable" uacute.smcp
EndChar

StartChar: ucircumflex
Encoding: 251 251 188
Width: 543
GlyphClass: 2
Flags: W
LayerCount: 2
Fore
SplineSet
215 596 m 1,0,-1
 353 726 l 1,1,-1
 424 726 l 1,2,-1
 507 596 l 1,3,-1
 442 596 l 1,4,-1
 385 679 l 1,5,-1
 295 596 l 1,6,-1
 215 596 l 1,0,-1
148 134 m 0,7,8
 148 65 148 65 225 65 c 0,9,10
 292 65 292 65 355 90 c 0,11,12
 377 98 377 98 430 122 c 1,13,-1
 494 531 l 1,14,-1
 568 531 l 1,15,-1
 484 0 l 1,16,-1
 432 0 l 1,17,-1
 420 62 l 1,18,19
 397 48 397 48 380.5 40.5 c 128,-1,20
 364 33 364 33 347 24.5 c 128,-1,21
 330 16 330 16 321.5 13 c 128,-1,22
 313 10 313 10 297 4.5 c 128,-1,23
 281 -1 281 -1 270 -3 c 0,24,25
 235 -9 235 -9 213 -9 c 0,26,27
 136 -9 136 -9 100 39 c 0,28,29
 73 75 73 75 73 126 c 0,30,31
 73 142 73 142 76 161 c 2,32,-1
 134 531 l 1,33,-1
 208 531 l 1,34,-1
 150 161 l 2,35,36
 148 146 148 146 148 134 c 0,7,8
EndSplineSet
AlternateSubs2: "'salt' Stylistic Alternatives in Latin lookup 16 subtable" ucircumflex.salt
Substitution2: "'smcp' Lowercase to Small Capitals lookup 1 subtable" ucircumflex.smcp
EndChar

StartChar: udieresis
Encoding: 252 252 189
Width: 543
GlyphClass: 2
Flags: W
LayerCount: 2
Fore
SplineSet
212 682.5 m 128,-1,1
 229 697 229 697 250 697 c 128,-1,2
 271 697 271 697 282 684 c 128,-1,3
 293 671 293 671 293 661 c 0,4,5
 293 629 293 629 274.5 612.5 c 128,-1,6
 256 596 256 596 238.5 596 c 128,-1,7
 221 596 221 596 210 603 c 0,8,9
 187 618 187 618 191 643 c 128,-1,0
 195 668 195 668 212 682.5 c 128,-1,1
467 682.5 m 128,-1,11
 484 697 484 697 505 697 c 128,-1,12
 526 697 526 697 537 684 c 128,-1,13
 548 671 548 671 548 661 c 0,14,15
 548 629 548 629 529.5 612.5 c 128,-1,16
 511 596 511 596 493.5 596 c 128,-1,17
 476 596 476 596 465 603 c 0,18,19
 442 618 442 618 446 643 c 128,-1,10
 450 668 450 668 467 682.5 c 128,-1,11
148 134 m 0,20,21
 148 65 148 65 225 65 c 0,22,23
 292 65 292 65 355 90 c 0,24,25
 377 98 377 98 430 122 c 1,26,-1
 494 531 l 1,27,-1
 568 531 l 1,28,-1
 484 0 l 1,29,-1
 432 0 l 1,30,-1
 420 62 l 1,31,32
 397 48 397 48 380.5 40.5 c 128,-1,33
 364 33 364 33 347 24.5 c 128,-1,34
 330 16 330 16 321.5 13 c 128,-1,35
 313 10 313 10 297 4.5 c 128,-1,36
 281 -1 281 -1 270 -3 c 0,37,38
 235 -9 235 -9 213 -9 c 0,39,40
 136 -9 136 -9 100 39 c 0,41,42
 73 75 73 75 73 126 c 0,43,44
 73 142 73 142 76 161 c 2,45,-1
 134 531 l 1,46,-1
 208 531 l 1,47,-1
 150 161 l 2,48,49
 148 146 148 146 148 134 c 0,20,21
EndSplineSet
AlternateSubs2: "'salt' Stylistic Alternatives in Latin lookup 16 subtable" udieresis.salt
Substitution2: "'smcp' Lowercase to Small Capitals lookup 1 subtable" udieresis.smcp
EndChar

StartChar: yacute
Encoding: 253 253 190
Width: 549
GlyphClass: 2
Flags: W
LayerCount: 2
Fore
SplineSet
314 591 m 1,0,-1
 442 724 l 1,1,-1
 537 724 l 1,2,-1
 383 591 l 1,3,-1
 314 591 l 1,0,-1
235 116 m 2,4,5
 239 94 239 94 255 85 c 128,-1,6
 271 76 271 76 279 76 c 128,-1,7
 287 76 287 76 288 76 c 2,8,-1
 303 77 l 1,9,-1
 496 453 l 2,10,11
 514 487 514 487 521 533 c 1,12,-1
 582 533 l 1,13,14
 588 514 588 514 588 490 c 128,-1,15
 588 466 588 466 573 437 c 2,16,-1
 352 1 l 2,17,18
 286 -128 286 -128 231 -191 c 128,-1,19
 176 -254 176 -254 98 -269 c 1,20,-1
 98 -216 l 1,21,22
 155 -178 155 -178 199 -113 c 0,23,24
 234 -61 234 -61 265 0 c 1,25,26
 239 0 239 0 214 14 c 0,27,28
 167 40 167 40 157 110 c 2,29,-1
 94 531 l 1,30,-1
 171 531 l 1,31,-1
 235 116 l 2,4,5
EndSplineSet
Substitution2: "'smcp' Lowercase to Small Capitals lookup 1 subtable" yacute.smcp
EndChar

StartChar: thorn
Encoding: 254 254 191
Width: 550
GlyphClass: 2
Flags: W
LayerCount: 2
Fore
SplineSet
313.5 515 m 128,-1,1
 379 540 379 540 429.5 540 c 128,-1,2
 480 540 480 540 514 496 c 0,3,4
 561 435 561 435 561 333 c 0,5,6
 561 301 561 301 556 268.5 c 128,-1,7
 551 236 551 236 548.5 219 c 128,-1,8
 546 202 546 202 537.5 169 c 128,-1,9
 529 136 529 136 519.5 115.5 c 128,-1,10
 510 95 510 95 493 68.5 c 128,-1,11
 476 42 476 42 456 27 c 0,12,13
 405 -10 405 -10 337 -10 c 0,14,15
 299 -10 299 -10 244.5 0.5 c 128,-1,16
 190 11 190 11 148 29 c 1,17,-1
 101 -270 l 1,18,-1
 27 -270 l 1,19,-1
 194 782 l 1,20,-1
 268 782 l 1,21,-1
 218 471 l 1,22,0
 248 490 248 490 313.5 515 c 128,-1,1
343 64 m 0,23,24
 454 64 454 64 481 269 c 0,25,26
 486 305 486 305 486 344.5 c 128,-1,27
 486 384 486 384 474 417 c 0,28,29
 456 467 456 467 416 467 c 0,30,31
 413 467 413 467 410 467 c 0,32,33
 338 463 338 463 210 416 c 1,34,-1
 158 89 l 1,35,36
 203 75 203 75 234 72 c 2,37,-1
 276 68 l 2,38,39
 320 64 320 64 343 64 c 0,23,24
EndSplineSet
Substitution2: "'smcp' Lowercase to Small Capitals lookup 1 subtable" thorn.smcp
EndChar

StartChar: ydieresis
Encoding: 255 255 192
Width: 549
GlyphClass: 2
Flags: W
LayerCount: 2
Fore
SplineSet
238 692 m 128,-1,1
 259 692 259 692 270 679 c 128,-1,2
 281 666 281 666 281 656 c 0,3,4
 281 624 281 624 262 607.5 c 128,-1,5
 243 591 243 591 222 591 c 128,-1,6
 201 591 201 591 189.5 604.5 c 128,-1,7
 178 618 178 618 178 628 c 0,8,9
 178 660 178 660 197.5 676 c 128,-1,0
 217 692 217 692 238 692 c 128,-1,1
493 692 m 128,-1,11
 514 692 514 692 525 679 c 128,-1,12
 536 666 536 666 536 656 c 0,13,14
 536 624 536 624 517 607.5 c 128,-1,15
 498 591 498 591 477 591 c 128,-1,16
 456 591 456 591 444.5 604.5 c 128,-1,17
 433 618 433 618 433 628 c 0,18,19
 433 660 433 660 452.5 676 c 128,-1,10
 472 692 472 692 493 692 c 128,-1,11
235 116 m 2,20,21
 239 94 239 94 255 85 c 128,-1,22
 271 76 271 76 279 76 c 128,-1,23
 287 76 287 76 288 76 c 2,24,-1
 303 77 l 1,25,-1
 496 453 l 2,26,27
 514 487 514 487 521 533 c 1,28,-1
 582 533 l 1,29,30
 588 514 588 514 588 490 c 128,-1,31
 588 466 588 466 573 437 c 2,32,-1
 352 1 l 2,33,34
 286 -128 286 -128 231 -191 c 128,-1,35
 176 -254 176 -254 98 -269 c 1,36,-1
 98 -216 l 1,37,38
 155 -178 155 -178 199 -113 c 0,39,40
 234 -61 234 -61 265 0 c 1,41,42
 239 0 239 0 214 14 c 0,43,44
 167 40 167 40 157 110 c 2,45,-1
 94 531 l 1,46,-1
 171 531 l 1,47,-1
 235 116 l 2,20,21
EndSplineSet
Substitution2: "'smcp' Lowercase to Small Capitals lookup 1 subtable" ydieresis.smcp
EndChar

StartChar: Amacron
Encoding: 256 256 193
Width: 660
GlyphClass: 2
Flags: W
LayerCount: 2
Fore
SplineSet
331 797 m 1,0,-1
 341 860 l 1,1,-1
 633 860 l 1,2,-1
 623 797 l 1,3,-1
 331 797 l 1,0,-1
45 0 m 1,4,-1
 430 732 l 1,5,-1
 504 732 l 1,6,-1
 645 0 l 1,7,-1
 570 0 l 1,8,-1
 531 204 l 1,9,-1
 234 204 l 1,10,-1
 126 0 l 1,11,-1
 45 0 l 1,4,-1
273 278 m 1,12,-1
 517 278 l 1,13,-1
 454 628 l 1,14,-1
 273 278 l 1,12,-1
EndSplineSet
Substitution2: "'c2sc' Capitals to Small Capitals in Latin lookup 2 subtable" amacron.smcp
EndChar

StartChar: amacron
Encoding: 257 257 194
Width: 541
GlyphClass: 2
Flags: W
LayerCount: 2
Fore
SplineSet
214 603 m 1,0,-1
 224 666 l 1,1,-1
 516 666 l 1,2,-1
 506 603 l 1,3,-1
 214 603 l 1,0,-1
242 525.5 m 128,-1,5
 270 537 270 537 296.5 540 c 128,-1,6
 323 543 323 543 355 543 c 128,-1,7
 387 543 387 543 457 528 c 128,-1,8
 527 513 527 513 563 479 c 1,9,-1
 493 0 l 1,10,-1
 440 0 l 1,11,-1
 429 60 l 1,12,13
 327 -7 327 -7 243 -7 c 0,14,15
 142 -7 142 -7 108 45 c 0,16,17
 79 91 79 91 79 164 c 0,18,19
 79 212 79 212 91 283.5 c 128,-1,20
 103 355 103 355 126.5 408.5 c 128,-1,21
 150 462 150 462 182 488 c 128,-1,4
 214 514 214 514 242 525.5 c 128,-1,5
183 345.5 m 128,-1,23
 170 306 170 306 162 255 c 128,-1,24
 154 204 154 204 154 167 c 128,-1,25
 154 130 154 130 164 108 c 0,26,27
 183 67 183 67 239 67 c 128,-1,28
 295 67 295 67 334 78 c 128,-1,29
 373 89 373 89 434 115 c 1,30,-1
 486 452 l 1,31,32
 412 472 412 472 373 472 c 128,-1,33
 334 472 334 472 311.5 467.5 c 128,-1,34
 289 463 289 463 275.5 459 c 128,-1,35
 262 455 262 455 241.5 441.5 c 128,-1,36
 221 428 221 428 208.5 406.5 c 128,-1,22
 196 385 196 385 183 345.5 c 128,-1,23
EndSplineSet
AlternateSubs2: "'salt' Stylistic Alternatives in Latin lookup 16 subtable" amacron.salt
Substitution2: "'smcp' Lowercase to Small Capitals lookup 1 subtable" amacron.smcp
EndChar

StartChar: Abreve
Encoding: 258 258 195
Width: 660
GlyphClass: 2
Flags: W
LayerCount: 2
Fore
SplineSet
428 911 m 1,0,1
 427 905 427 905 427 890.5 c 128,-1,2
 427 876 427 876 442 859.5 c 128,-1,3
 457 843 457 843 483 843 c 0,4,5
 485 843 485 843 486 843 c 0,6,7
 552 843 552 843 563 911 c 1,8,-1
 609 911 l 1,9,10
 594 797 594 797 483 797 c 0,11,12
 440 797 440 797 411 826 c 128,-1,13
 382 855 382 855 382 899 c 0,14,15
 382 905 382 905 382 911 c 1,16,-1
 428 911 l 1,0,1
45 0 m 1,17,-1
 430 732 l 1,18,-1
 504 732 l 1,19,-1
 645 0 l 1,20,-1
 570 0 l 1,21,-1
 531 204 l 1,22,-1
 234 204 l 1,23,-1
 126 0 l 1,24,-1
 45 0 l 1,17,-1
273 278 m 1,25,-1
 517 278 l 1,26,-1
 454 628 l 1,27,-1
 273 278 l 1,25,-1
EndSplineSet
Substitution2: "'c2sc' Capitals to Small Capitals in Latin lookup 2 subtable" abreve.smcp
EndChar

StartChar: abreve
Encoding: 259 259 196
Width: 541
GlyphClass: 2
Flags: W
LayerCount: 2
Fore
SplineSet
321 717 m 1,0,1
 320 711 320 711 320 696.5 c 128,-1,2
 320 682 320 682 335 665.5 c 128,-1,3
 350 649 350 649 376 649 c 0,4,5
 377 649 377 649 379 649 c 0,6,7
 445 649 445 649 456 717 c 1,8,-1
 502 717 l 1,9,10
 486 603 486 603 376 603 c 0,11,12
 333 603 333 603 303.5 632 c 128,-1,13
 274 661 274 661 274 705 c 0,14,15
 274 711 274 711 275 717 c 1,16,-1
 321 717 l 1,0,1
242 525.5 m 128,-1,18
 270 537 270 537 296.5 540 c 128,-1,19
 323 543 323 543 355 543 c 128,-1,20
 387 543 387 543 457 528 c 128,-1,21
 527 513 527 513 563 479 c 1,22,-1
 493 0 l 1,23,-1
 440 0 l 1,24,-1
 429 60 l 1,25,26
 327 -7 327 -7 243 -7 c 0,27,28
 142 -7 142 -7 108 45 c 0,29,30
 79 91 79 91 79 164 c 0,31,32
 79 212 79 212 91 283.5 c 128,-1,33
 103 355 103 355 126.5 408.5 c 128,-1,34
 150 462 150 462 182 488 c 128,-1,17
 214 514 214 514 242 525.5 c 128,-1,18
183 345.5 m 128,-1,36
 170 306 170 306 162 255 c 128,-1,37
 154 204 154 204 154 167 c 128,-1,38
 154 130 154 130 164 108 c 0,39,40
 183 67 183 67 239 67 c 128,-1,41
 295 67 295 67 334 78 c 128,-1,42
 373 89 373 89 434 115 c 1,43,-1
 486 452 l 1,44,45
 412 472 412 472 373 472 c 128,-1,46
 334 472 334 472 311.5 467.5 c 128,-1,47
 289 463 289 463 275.5 459 c 128,-1,48
 262 455 262 455 241.5 441.5 c 128,-1,49
 221 428 221 428 208.5 406.5 c 128,-1,35
 196 385 196 385 183 345.5 c 128,-1,36
EndSplineSet
Substitution2: "'smcp' Lowercase to Small Capitals lookup 1 subtable" abreve.smcp
EndChar

StartChar: Aogonek
Encoding: 260 260 197
Width: 758
GlyphClass: 2
Flags: W
LayerCount: 2
Fore
SplineSet
593 -109 m 0,0,1
 593 -40 593 -40 693 0 c 1,2,-1
 732 0 l 1,3,4
 658 -54 658 -54 658 -91 c 0,5,6
 658 -121 658 -121 707 -121 c 0,7,8
 711 -121 711 -121 716 -121 c 1,9,-1
 706 -181 l 1,10,11
 694 -183 694 -183 684 -183 c 0,12,13
 641 -183 641 -183 617 -159.5 c 128,-1,14
 593 -136 593 -136 593 -109 c 0,0,1
147 0 m 1,15,-1
 532 732 l 1,16,-1
 606 732 l 1,17,-1
 747 0 l 1,18,-1
 672 0 l 1,19,-1
 633 204 l 1,20,-1
 336 204 l 1,21,-1
 228 0 l 1,22,-1
 147 0 l 1,15,-1
375 278 m 1,23,-1
 619 278 l 1,24,-1
 556 628 l 1,25,-1
 375 278 l 1,23,-1
EndSplineSet
Substitution2: "'c2sc' Capitals to Small Capitals in Latin lookup 2 subtable" aogonek.smcp
EndChar

StartChar: aogonek
Encoding: 261 261 198
Width: 487
GlyphClass: 2
Flags: W
LayerCount: 2
Fore
SplineSet
325 -109 m 0,0,1
 325 -40 325 -40 425 0 c 1,2,-1
 464 0 l 1,3,4
 390 -54 390 -54 390 -91 c 0,5,6
 390 -121 390 -121 439 -121 c 0,7,8
 443 -121 443 -121 448 -121 c 1,9,-1
 438 -181 l 1,10,11
 426 -183 426 -183 416 -183 c 0,12,13
 373 -183 373 -183 349 -159.5 c 128,-1,14
 325 -136 325 -136 325 -109 c 0,0,1
220 525.5 m 128,-1,16
 248 537 248 537 274.5 540 c 128,-1,17
 301 543 301 543 333 543 c 128,-1,18
 365 543 365 543 435 528 c 128,-1,19
 505 513 505 513 541 479 c 1,20,-1
 471 0 l 1,21,-1
 418 0 l 1,22,-1
 407 60 l 1,23,24
 305 -7 305 -7 221 -7 c 0,25,26
 120 -7 120 -7 86 45 c 0,27,28
 57 91 57 91 57 164 c 0,29,30
 57 212 57 212 69 283.5 c 128,-1,31
 81 355 81 355 104.5 408.5 c 128,-1,32
 128 462 128 462 160 488 c 128,-1,15
 192 514 192 514 220 525.5 c 128,-1,16
161 345.5 m 128,-1,34
 148 306 148 306 140 255 c 128,-1,35
 132 204 132 204 132 167 c 128,-1,36
 132 130 132 130 142 108 c 0,37,38
 161 67 161 67 217 67 c 128,-1,39
 273 67 273 67 312 78 c 128,-1,40
 351 89 351 89 412 115 c 1,41,-1
 464 452 l 1,42,43
 390 472 390 472 351 472 c 128,-1,44
 312 472 312 472 289.5 467.5 c 128,-1,45
 267 463 267 463 253.5 459 c 128,-1,46
 240 455 240 455 219.5 441.5 c 128,-1,47
 199 428 199 428 186.5 406.5 c 128,-1,33
 174 385 174 385 161 345.5 c 128,-1,34
EndSplineSet
AlternateSubs2: "'salt' Stylistic Alternatives in Latin lookup 16 subtable" aogonek.salt
Substitution2: "'smcp' Lowercase to Small Capitals lookup 1 subtable" aogonek.smcp
EndChar

StartChar: Cacute
Encoding: 262 262 199
Width: 578
GlyphClass: 2
Flags: W
LayerCount: 2
Fore
SplineSet
409 800 m 1,0,-1
 537 933 l 1,1,-1
 632 933 l 1,2,-1
 478 800 l 1,3,-1
 409 800 l 1,0,-1
291 716 m 128,-1,5
 343 740 343 740 421 740 c 128,-1,6
 499 740 499 740 656 710 c 1,7,-1
 647 651 l 1,8,9
 533 666 533 666 431 666 c 0,10,11
 392 666 392 666 381.5 665.5 c 128,-1,12
 371 665 371 665 348.5 659.5 c 128,-1,13
 326 654 326 654 312.5 643.5 c 128,-1,14
 299 633 299 633 278 611 c 128,-1,15
 257 589 257 589 243 558 c 0,16,17
 207 480 207 480 193 392 c 128,-1,18
 179 304 179 304 179 269.5 c 128,-1,19
 179 235 179 235 180 218 c 0,20,21
 185 154 185 154 217 113 c 128,-1,22
 249 72 249 72 306 68 c 0,23,24
 326 67 326 67 377 67 c 128,-1,25
 428 67 428 67 559 76 c 1,26,-1
 551 17 l 1,27,28
 466 -6 466 -6 302 -6 c 0,29,30
 247 -6 247 -6 207.5 17 c 128,-1,31
 168 40 168 40 146 76 c 1,32,33
 105 147 105 147 105 255 c 0,34,35
 105 307 105 307 118 384.5 c 128,-1,36
 131 462 131 462 151 526 c 128,-1,37
 171 590 171 590 205 641 c 128,-1,4
 239 692 239 692 291 716 c 128,-1,5
EndSplineSet
Substitution2: "'c2sc' Capitals to Small Capitals in Latin lookup 2 subtable" cacute.smcp
EndChar

StartChar: cacute
Encoding: 263 263 200
Width: 496
GlyphClass: 2
Flags: W
LayerCount: 2
Fore
SplineSet
316 598 m 1,0,-1
 444 731 l 1,1,-1
 539 731 l 1,2,-1
 385 598 l 1,3,-1
 316 598 l 1,0,-1
154 170 m 0,4,5
 154 67 154 67 234 67 c 0,6,7
 328 67 328 67 432 75 c 2,8,-1
 471 78 l 1,9,-1
 462 22 l 1,10,11
 357 -6 357 -6 240 -6 c 0,12,13
 149 -6 149 -6 107 60 c 0,14,15
 82 100 82 100 82 156.5 c 128,-1,16
 82 213 82 213 94.5 285 c 128,-1,17
 107 357 107 357 129.5 414.5 c 128,-1,18
 152 472 152 472 182.5 497.5 c 128,-1,19
 213 523 213 523 240 530.5 c 128,-1,20
 267 538 267 538 326.5 538 c 128,-1,21
 386 538 386 538 532 510 c 1,22,-1
 524 456 l 1,23,24
 386 464 386 464 331 464 c 128,-1,25
 276 464 276 464 263.5 461.5 c 128,-1,26
 251 459 251 459 235.5 448.5 c 128,-1,27
 220 438 220 438 209 417 c 0,28,29
 185 371 185 371 169.5 289.5 c 128,-1,30
 154 208 154 208 154 170 c 0,4,5
EndSplineSet
Substitution2: "'smcp' Lowercase to Small Capitals lookup 1 subtable" cacute.smcp
EndChar

StartChar: Ccircumflex
Encoding: 264 264 201
Width: 578
GlyphClass: 2
Flags: W
LayerCount: 2
Fore
SplineSet
300 800 m 1,0,-1
 438 930 l 1,1,-1
 509 930 l 1,2,-1
 592 800 l 1,3,-1
 527 800 l 1,4,-1
 470 883 l 1,5,-1
 380 800 l 1,6,-1
 300 800 l 1,0,-1
291 716 m 128,-1,8
 343 740 343 740 421 740 c 128,-1,9
 499 740 499 740 656 710 c 1,10,-1
 647 651 l 1,11,12
 533 666 533 666 431 666 c 0,13,14
 392 666 392 666 381.5 665.5 c 128,-1,15
 371 665 371 665 348.5 659.5 c 128,-1,16
 326 654 326 654 312.5 643.5 c 128,-1,17
 299 633 299 633 278 611 c 128,-1,18
 257 589 257 589 243 558 c 0,19,20
 207 480 207 480 193 392 c 128,-1,21
 179 304 179 304 179 269.5 c 128,-1,22
 179 235 179 235 180 218 c 0,23,24
 185 154 185 154 217 113 c 128,-1,25
 249 72 249 72 306 68 c 0,26,27
 326 67 326 67 377 67 c 128,-1,28
 428 67 428 67 559 76 c 1,29,-1
 551 17 l 1,30,31
 466 -6 466 -6 302 -6 c 0,32,33
 247 -6 247 -6 207.5 17 c 128,-1,34
 168 40 168 40 146 76 c 1,35,36
 105 147 105 147 105 255 c 0,37,38
 105 307 105 307 118 384.5 c 128,-1,39
 131 462 131 462 151 526 c 128,-1,40
 171 590 171 590 205 641 c 128,-1,7
 239 692 239 692 291 716 c 128,-1,8
EndSplineSet
Substitution2: "'c2sc' Capitals to Small Capitals in Latin lookup 2 subtable" ccircumflex.smcp
EndChar

StartChar: ccircumflex
Encoding: 265 265 202
Width: 496
GlyphClass: 2
Flags: W
LayerCount: 2
Fore
SplineSet
218 598 m 1,0,-1
 356 728 l 1,1,-1
 427 728 l 1,2,-1
 510 598 l 1,3,-1
 445 598 l 1,4,-1
 388 681 l 1,5,-1
 298 598 l 1,6,-1
 218 598 l 1,0,-1
152 170 m 0,7,8
 152 67 152 67 232 67 c 0,9,10
 326 67 326 67 430 75 c 2,11,-1
 469 78 l 1,12,-1
 460 22 l 1,13,14
 355 -6 355 -6 238 -6 c 0,15,16
 147 -6 147 -6 105 60 c 0,17,18
 80 100 80 100 80 156.5 c 128,-1,19
 80 213 80 213 92.5 285 c 128,-1,20
 105 357 105 357 127.5 414.5 c 128,-1,21
 150 472 150 472 180.5 497.5 c 128,-1,22
 211 523 211 523 238 530.5 c 128,-1,23
 265 538 265 538 324.5 538 c 128,-1,24
 384 538 384 538 530 510 c 1,25,-1
 522 456 l 1,26,27
 384 464 384 464 329 464 c 128,-1,28
 274 464 274 464 261.5 461.5 c 128,-1,29
 249 459 249 459 233.5 448.5 c 128,-1,30
 218 438 218 438 207 417 c 0,31,32
 183 371 183 371 167.5 289.5 c 128,-1,33
 152 208 152 208 152 170 c 0,7,8
EndSplineSet
Substitution2: "'smcp' Lowercase to Small Capitals lookup 1 subtable" ccircumflex.smcp
EndChar

StartChar: Cdotaccent
Encoding: 266 266 203
Width: 578
GlyphClass: 2
Flags: W
LayerCount: 2
Fore
SplineSet
418 902 m 2,0,-1
 468 902 l 2,1,2
 490 902 490 902 487 877 c 1,3,-1
 478 823 l 2,4,5
 475 800 475 800 452 800 c 2,6,-1
 402 800 l 2,7,8
 391 800 391 800 385 806.5 c 128,-1,9
 379 813 379 813 381 823 c 2,10,-1
 390 877 l 1,11,12
 393 902 393 902 418 902 c 2,0,-1
291 716 m 128,-1,14
 343 740 343 740 421 740 c 128,-1,15
 499 740 499 740 656 710 c 1,16,-1
 647 651 l 1,17,18
 533 666 533 666 431 666 c 0,19,20
 392 666 392 666 381.5 665.5 c 128,-1,21
 371 665 371 665 348.5 659.5 c 128,-1,22
 326 654 326 654 312.5 643.5 c 128,-1,23
 299 633 299 633 278 611 c 128,-1,24
 257 589 257 589 243 558 c 0,25,26
 207 480 207 480 193 392 c 128,-1,27
 179 304 179 304 179 269.5 c 128,-1,28
 179 235 179 235 180 218 c 0,29,30
 185 154 185 154 217 113 c 128,-1,31
 249 72 249 72 306 68 c 0,32,33
 326 67 326 67 377 67 c 128,-1,34
 428 67 428 67 559 76 c 1,35,-1
 551 17 l 1,36,37
 466 -6 466 -6 302 -6 c 0,38,39
 247 -6 247 -6 207.5 17 c 128,-1,40
 168 40 168 40 146 76 c 1,41,42
 105 147 105 147 105 255 c 0,43,44
 105 307 105 307 118 384.5 c 128,-1,45
 131 462 131 462 151 526 c 128,-1,46
 171 590 171 590 205 641 c 128,-1,13
 239 692 239 692 291 716 c 128,-1,14
EndSplineSet
Substitution2: "'c2sc' Capitals to Small Capitals in Latin lookup 2 subtable" cdotaccent.smcp
EndChar

StartChar: cdotaccent
Encoding: 267 267 204
Width: 496
GlyphClass: 2
Flags: W
LayerCount: 2
Fore
SplineSet
359 700 m 2,0,-1
 409 700 l 2,1,2
 431 700 431 700 428 675 c 1,3,-1
 419 621 l 2,4,5
 416 598 416 598 393 598 c 2,6,-1
 343 598 l 2,7,8
 332 598 332 598 326 604.5 c 128,-1,9
 320 611 320 611 322 621 c 2,10,-1
 331 675 l 1,11,12
 334 700 334 700 359 700 c 2,0,-1
152 170 m 0,13,14
 152 67 152 67 232 67 c 0,15,16
 326 67 326 67 430 75 c 2,17,-1
 469 78 l 1,18,-1
 460 22 l 1,19,20
 355 -6 355 -6 238 -6 c 0,21,22
 147 -6 147 -6 105 60 c 0,23,24
 80 100 80 100 80 156.5 c 128,-1,25
 80 213 80 213 92.5 285 c 128,-1,26
 105 357 105 357 127.5 414.5 c 128,-1,27
 150 472 150 472 180.5 497.5 c 128,-1,28
 211 523 211 523 238 530.5 c 128,-1,29
 265 538 265 538 324.5 538 c 128,-1,30
 384 538 384 538 530 510 c 1,31,-1
 522 456 l 1,32,33
 384 464 384 464 329 464 c 128,-1,34
 274 464 274 464 261.5 461.5 c 128,-1,35
 249 459 249 459 233.5 448.5 c 128,-1,36
 218 438 218 438 207 417 c 0,37,38
 183 371 183 371 167.5 289.5 c 128,-1,39
 152 208 152 208 152 170 c 0,13,14
EndSplineSet
Substitution2: "'smcp' Lowercase to Small Capitals lookup 1 subtable" cdotaccent.smcp
EndChar

